<svg xmlns="http://www.w3.org/2000/svg" width="593" height="348" viewBox="0 0 593 348"><title>body-background</title><path fill="none" d="M-90.826-270.785l840.04 4.27v479.632l-840.04 25.087v-508.99z" opacity=".08"/><g opacity=".08"><path fill="#65C3D5" d="M378.07-34.513l-256.785 152.67 62.413 106.76"/><path fill="#126472" d="M-139.367 189.904c1.418 10.487 7.803 18.97 15.898 24.818 5.7 4.902 14.455 7.836 23.39 7.836 6.142 0 12.01-1.387 16.962-4.032l.054-.037.04.073 453.458-269.48L346.46-64.61 66.967 102.09 44.78 114.663l-114.76 68.4-20.827 12.288-.17.098c-2.12 1.123-4.505 1.737-6.9 1.737-5.376 0-10.31-2.946-12.903-7.656-1.162-2.108-1.783-4.48-1.802-6.873l-.02-.23.048-20.866.06-.072-.116-466.257.18.1-.083-43.034.004-.333c.018-2.356.648-4.73 1.8-6.832 2.56-4.67 7.476-7.58 12.824-7.58 2.376 0 4.745.584 6.537 1.523l2.423 1.603.135-.104 18.243 10.77 116.607 71.95 21.09 12.72L538.994 25.997l21.163 13.296c1.575 1.006 2.897 2.41 3.835 4.05 3.033 5.4 1.116 11.708-4.573 15.005L81.348 339.702l8.347 2.75c1.855.61 3.836 1.133 5.89 1.527 2.53.5 5.07.795 7.555.875.594.024 1.198.043 1.783.043 7.375 0 14.488-1.658 21.13-4.88.526-.25 1.22-.5 1.94-.773 1.495-.542 3.035-1.097 4.08-1.78l12.575-7.188 429.19-252.77.367-.215c10.735-6.213 17.202-19.395 15.723-31.86-.756-10.767-7.604-20.908-18.773-27.85l-1.27-.714-649.986-398.922-.875-.434h-.017c-.686-.425-1.387-.83-2.11-1.193l-.088-.045c-12.648-6.733-29.07-5.11-39.928 3.56-10.834 7.86-16.812 20.167-16.812 34.66l.053 1.165.027.326-.144 524.834c.002 0 .01 4.567.627 9.084"/><path fill="#126472" d="M61.322 79.055l22.52-12.662-.305-292.72-22.405-14.943.19 320.325M588.214-200.968c-.088-.85-2.47-21.01-26.392-36.137-26.328-16.643-424.163-261.398-428.07-263.802-.442-.296-11.17-7.28-25.99-7.28-4.74 0-9.414.734-13.91 2.145l-8.282 2.634 503.484 310.51-.84-8.07"/><path fill="#5CC1D4" d="M-100.46-209.898l-.06 108.9H46.868l.12-110.2M-100.264 175.986l147.34-87.168-.17-170.316H-100.52l.256 257.484"/><path fill="#A2D9EA" d="M-100.52-50.017l.014-31.48h38.35l-38.364 31.48"/><path fill="#262927" d="M-70.447 187.55l.016-.253-.017.254"/><path fill="#126472" d="M128.804-167.962V8.368l148.466-88.26-148.466-88.07"/><path fill="#5CC1D4" d="M474.662-62.52l114.383 73.482-.042-32.456-85.08-89.22-29.26 48.195M458.963-74.17l31.945-53.05-220.622-232.476-75.693 122.69L458.963-74.17M176.737-247.163l78.36-127.014-16.768-17.667L70.234-496.912l-151.958 87.506 258.46 162.243"/><path fill="#97D5EA" d="M503.328-110.43l85.835 89.44.975-155.524-34.54-21.044-52.27 87.128zM490.4-126.97l48.254-80.154L275.73-369.097l-5.943 9.653L490.4-126.97M234.387-394.027l20.74 20.23 3.754-6.112"/><path fill="#65C3D5" d="M68.075 331.178l114.723-68.797-79.063-135.235-187.34 111.774 151.68 92.258"/><path fill="#5CC1D4" d="M325.2 177.914L277.94 97.068l-94.63 126.84 16.65 28.473 125.237-74.466M171.56 239.924l-39 52.28 51.62-30.692-12.62-21.588"/><path fill="#65C3D5" d="M-100.505-81.498l-.014 31.48 38.366-31.48h-38.35"/><path fill="#35A9BE" d="M536.814 52.492L425.794-15.71l57.37 100.19 53.65-31.988M466.932 93.215L387.867-42.02l-10.18 6.046-5.3 5.974L183.31 223.46l16.65 28.474 266.972-158.72M171.56 239.924l-39 52.28 51.62-30.692-12.62-21.588M-100.505-81.498l-.014 31.48 38.366-31.48h-38.35M46.99-247.978l-147.424-91.038-.085 239.208h57.893l89.55-71.32.066-76.85"/></g></svg>