<svg width="130" height="130" viewBox="0 0 130 130" xmlns="http://www.w3.org/2000/svg"><title>callout-warning</title><g fill="none" fill-rule="evenodd"><path d="M77.567 76.583l-6.32-1.694 8.02-37.477 10.06 2.696-11.76 36.473zm-11.747 9.27c.48-1.793 1.317-3.028 2.51-3.707 1.195-.68 2.663-.786 4.407-.318 1.72.46 2.908 1.298 3.57 2.513.66 1.216.76 2.683.3 4.402-.462 1.72-1.293 2.956-2.494 3.71-1.202.756-2.65.906-4.344.452-1.72-.46-2.928-1.303-3.625-2.528-.697-1.225-.805-2.733-.325-4.524z" fill="#B0580B"/><path stroke="#B0580A" stroke-width="8" d="M88.038 16.2l26.486 98.2L16 88z"/></g></svg>