<svg width="182" height="75" viewBox="0 0 182 75" xmlns="http://www.w3.org/2000/svg" xmlns:xlink="http://www.w3.org/1999/xlink"><defs><path id="a" d="M0 .176h180.545v73.542H0V.176z"/><path id="c" d="M0 .176h180.545v73.542H0V.176z"/></defs><g transform="translate(.533 .622)" fill="none" fill-rule="evenodd"><mask id="b" fill="#fff"><use xlink:href="#a"/></mask><path d="M36.193 35.454c-5.302 0-10.726-1.518-13.834-3.926l3.9-5.76c2.193 1.676 6.886 3.404 10.36 3.404 2.802 0 3.96-.68 3.96-1.78 0-3.142-17.124.105-17.124-10.157 0-4.45 4.51-8.324 12.615-8.324 4.998 0 9.142 1.362 12.31 3.35l-3.595 5.708c-1.767-1.466-5.118-2.775-8.653-2.775-2.194 0-3.657.733-3.657 1.728 0 2.776 17.063-.104 17.063 10.262 0 4.817-4.935 8.272-13.345 8.272zm35.26 2.934C71.452 15.092 56.677.176 36.364.176 14.915.176 0 16.228 0 36.116c0 22.3 16.194 37.603 37.36 37.603 10.51 0 21.875-5.014 28.693-11.123l-9.517-15.36c-3.977 3.692-11.932 5.823-16.762 5.823-9.943 0-15.625-3.592-17.188-9.7h48.866v-4.972z" fill="#FFF" mask="url(#b)"/><path d="M83.374 23.98V6.327h9.686v2.567h-6.775v4.79h6.59v2.566h-6.59v5.162h6.775v2.567h-9.686zM102.586 20.22v-5.265c-.45-.953-1.482-1.747-2.514-1.747-1.852 0-2.752 1.905-2.752 4.393 0 2.462.9 4.367 2.752 4.367 1.032 0 2.064-.794 2.514-1.746zm0 3.76v-1.695c-.768 1.27-2.01 2.01-3.308 2.01-2.884 0-4.683-2.566-4.683-6.694 0-4.048 1.8-6.72 4.683-6.72 1.27 0 2.54.66 3.308 2.037v-6.59h2.62V23.98h-2.62zM114.89 23.98v-1.67c-.713 1.034-2.116 1.986-3.73 1.986-2.302 0-3.36-1.217-3.36-3.44v-9.66h2.618v8.734c0 1.508.716 2.037 1.853 2.037 1.14 0 2.118-.846 2.62-1.72v-9.05h2.62V23.98h-2.62zM119.496 17.575c0-3.837 2.196-6.695 5.61-6.695 1.905 0 3.15.767 3.916 1.72l-1.323 1.8c-.636-.82-1.377-1.192-2.303-1.192-2.01 0-3.176 1.932-3.176 4.367 0 2.434 1.166 4.393 3.177 4.393.926 0 1.667-.397 2.302-1.19l1.322 1.798c-.767.98-2.01 1.72-3.917 1.72-3.413 0-5.61-2.858-5.61-6.72M137.808 21.147v-2.09c-.503-.953-1.455-1.35-2.434-1.35-1.35 0-2.224 1.005-2.224 2.38 0 1.378.873 2.383 2.224 2.383.98 0 1.93-.397 2.434-1.323zm0 2.832v-1.35c-.768 1.11-2.064 1.666-3.387 1.666-2.037 0-3.916-1.535-3.916-4.234 0-2.78 1.88-4.18 3.917-4.18 1.324 0 2.647.502 3.388 1.587v-1.907c0-1.534-.9-2.434-2.488-2.434-1.138 0-2.196.45-3.202 1.48l-1.032-1.852c1.297-1.323 3.043-1.88 4.71-1.88 2.673 0 4.658 1.245 4.658 4.34v8.76h-2.646zM144.053 21.12V13.5h-1.667v-2.303h1.667V7.704h2.62v3.493h2.116V13.5h-2.118v7.065c0 .873.32 1.402.98 1.402.423 0 .82-.185 1.005-.423l.636 2.01c-.477.425-1.218.742-2.302.742-2.01 0-2.937-1.085-2.937-3.175" fill="#FFF"/><mask id="d" fill="#fff"><use xlink:href="#c"/></mask><path d="M152.097 11.197h2.62V23.98h-2.62V11.196zm-.343-3.255c0-.926.767-1.64 1.667-1.64s1.642.714 1.642 1.64c0 .9-.74 1.64-1.64 1.64-.9 0-1.668-.74-1.668-1.64zM166.097 17.575c0-2.303-.848-4.367-2.806-4.367-1.957 0-2.83 2.064-2.83 4.367 0 2.328.873 4.393 2.83 4.393 1.96 0 2.807-2.065 2.807-4.393m-8.363 0c0-3.6 1.932-6.695 5.557-6.695 3.626 0 5.558 3.096 5.558 6.695 0 3.6-1.932 6.72-5.557 6.72-3.624 0-5.556-3.12-5.556-6.72M177.9 23.98V15.27c0-1.508-.69-2.064-1.827-2.064-1.138 0-2.144.9-2.647 1.773v9h-2.62V11.196h2.62v1.72c.715-1.032 2.17-2.038 3.758-2.038 2.302 0 3.36 1.27 3.36 3.493v9.606H177.9zM82.263 43.312l1.482-2.276c.952 1.085 2.46 1.932 4.207 1.932 1.88 0 2.78-1.112 2.78-2.382 0-3.625-7.94-2.487-7.94-8.336 0-2.752 2.17-4.948 5.504-4.948 2.09 0 3.838.688 5.08 1.93l-1.4 2.224c-1.033-1.058-2.356-1.534-3.76-1.534-1.428 0-2.434.846-2.434 2.143 0 3.202 7.94 2.382 7.94 8.31 0 2.857-1.933 5.186-5.743 5.186-2.516 0-4.394-.872-5.717-2.248M95.52 38.84c0-3.838 2.197-6.696 5.61-6.696 1.906 0 3.15.768 3.917 1.72l-1.323 1.8c-.634-.82-1.376-1.19-2.303-1.19-2.01 0-3.173 1.93-3.173 4.366 0 2.434 1.163 4.392 3.174 4.392.928 0 1.67-.396 2.304-1.19l1.323 1.8c-.767.978-2.01 1.72-3.916 1.72-3.413 0-5.61-2.86-5.61-6.722M114.918 38.84c0-2.303-.847-4.367-2.805-4.367-1.958 0-2.832 2.064-2.832 4.367 0 2.328.875 4.392 2.833 4.392 1.958 0 2.805-2.064 2.805-4.392m-8.362 0c0-3.6 1.932-6.696 5.557-6.696 3.625 0 5.557 3.097 5.557 6.696 0 3.6-1.932 6.72-5.557 6.72-3.625 0-5.557-3.12-5.557-6.72M121.163 42.386v-7.622h-1.667v-2.302h1.667V28.97h2.62v3.492h2.117v2.302h-2.117v7.066c0 .873.318 1.402.98 1.402.423 0 .82-.185 1.004-.423l.636 2.01c-.477.424-1.217.74-2.302.74-2.01 0-2.937-1.084-2.937-3.174M129.737 27.593h2.62v17.65h-2.62v-17.65zM142.122 42.412v-2.09c-.503-.953-1.455-1.35-2.435-1.35-1.35 0-2.223 1.005-2.223 2.38 0 1.377.873 2.383 2.223 2.383.98 0 1.932-.397 2.435-1.323zm0 2.83v-1.348c-.768 1.11-2.065 1.667-3.387 1.667-2.038 0-3.917-1.534-3.917-4.233 0-2.78 1.88-4.18 3.917-4.18 1.322 0 2.646.502 3.387 1.587v-1.906c0-1.534-.9-2.434-2.488-2.434-1.138 0-2.196.45-3.202 1.482l-1.032-1.853c1.297-1.323 3.043-1.88 4.71-1.88 2.673 0 4.658 1.245 4.658 4.34v8.76h-2.646zM154.453 45.244v-8.707c0-1.508-.688-2.064-1.826-2.064-1.138 0-2.143.9-2.646 1.773v8.998h-2.62V32.462h2.62v1.72c.715-1.032 2.17-2.038 3.758-2.038 2.303 0 3.362 1.27 3.362 3.493v9.607h-2.647zM168.108 41.486V36.22c-.45-.953-1.482-1.747-2.514-1.747-1.852 0-2.753 1.905-2.753 4.393 0 2.46.902 4.366 2.754 4.366 1.032 0 2.064-.794 2.514-1.746zm0 3.757V43.55c-.767 1.27-2.01 2.01-3.308 2.01-2.884 0-4.684-2.566-4.684-6.694 0-4.05 1.8-6.722 4.684-6.722 1.27 0 2.54.662 3.308 2.038v-6.59h2.62v17.65h-2.62zM82.77 66.508V55.163h6.225v1.65H84.64v3.08h4.236v1.65H84.64v4.965h-1.87zM95.204 62.392c0-1.48-.544-2.807-1.803-2.807-1.258 0-1.82 1.327-1.82 2.807 0 1.497.562 2.824 1.82 2.824 1.26 0 1.804-1.327 1.804-2.824m-5.375 0c0-2.313 1.24-4.303 3.57-4.303s3.573 1.99 3.573 4.302c0 2.313-1.242 4.32-3.572 4.32s-3.57-2.007-3.57-4.32M103.302 63.89v-3.18c-.29-.614-.97-1.125-1.617-1.125-1.19 0-1.768 1.14-1.768 2.722s.578 2.704 1.768 2.704c.647 0 1.328-.508 1.617-1.12m-4.797 4.898l.714-1.327c.544.613 1.258.92 2.126.92 1.037 0 1.956-.562 1.956-2.007v-1.19c-.494.832-1.293 1.325-2.127 1.325-1.854 0-3.01-1.547-3.01-4.2 0-2.604 1.156-4.22 3.01-4.22.817 0 1.616.426 2.127 1.31v-1.105h1.683v8.08c0 2.67-1.768 3.47-3.554 3.47-1.173 0-2.092-.273-2.925-1.055M111.57 66.508v-5.613c0-.97-.46-1.31-1.19-1.31-.733 0-1.38.58-1.686 1.14v5.783h-1.7V55.163h1.7V59.4c.443-.665 1.378-1.31 2.4-1.31 1.48 0 2.16.78 2.16 2.21v6.208h-1.685zM115.262 55.163h1.684v11.345h-1.684V55.163zM122.542 64.688v-1.344c-.324-.612-.936-.867-1.565-.867-.867 0-1.43.646-1.43 1.53 0 .885.563 1.532 1.43 1.532.63 0 1.24-.256 1.565-.852zm0 1.82v-.867c-.493.715-1.327 1.072-2.177 1.072-1.31 0-2.518-.987-2.518-2.72 0-1.787 1.208-2.688 2.518-2.688.85 0 1.7.322 2.177 1.02V61.1c0-.987-.578-1.566-1.6-1.566-.73 0-1.41.29-2.057.953l-.664-1.19c.835-.85 1.958-1.21 3.03-1.21 1.717 0 2.993.8 2.993 2.79v5.63h-1.7zM134.858 66.508V60.81c0-.782-.324-1.225-1.038-1.225-.68 0-1.292.58-1.582 1.14v5.783h-1.683V60.81c0-.765-.307-1.225-1.038-1.225-.68 0-1.276.596-1.582 1.14v5.783h-1.684v-8.215h1.685V59.4c.34-.563 1.276-1.31 2.297-1.31 1.053 0 1.734.543 1.92 1.444.41-.73 1.362-1.445 2.382-1.445 1.243 0 2.008.662 2.008 2.16v6.258h-1.684zM146.052 57.17l-1.497 5.426h2.994l-1.498-5.426zm2.5 9.338l-.63-2.244h-3.74l-.63 2.244h-2.024l3.4-11.345h2.246l3.402 11.345h-2.024zM152.313 55.163h1.684v11.345h-1.684V55.163zM159.66 65.216c1.175 0 1.77-1.225 1.77-2.806 0-1.6-.595-2.825-1.77-2.825-.662 0-1.325.528-1.632 1.14v3.368c.307.63.97 1.123 1.633 1.123zm-3.315 1.292V55.163h1.683v4.235c.51-.885 1.328-1.31 2.127-1.31 1.87 0 3.01 1.72 3.01 4.322 0 2.653-1.156 4.302-3.01 4.302-.834 0-1.633-.476-2.127-1.292v1.088h-1.683zM169.035 64.688v-1.344c-.324-.612-.936-.867-1.566-.867-.867 0-1.43.646-1.43 1.53 0 .885.563 1.532 1.43 1.532.63 0 1.24-.256 1.565-.852zm0 1.82v-.867c-.494.715-1.328 1.072-2.178 1.072-1.31 0-2.518-.987-2.518-2.72 0-1.787 1.208-2.688 2.517-2.688.85 0 1.7.322 2.178 1.02V61.1c0-.987-.58-1.566-1.6-1.566-.73 0-1.41.29-2.057.953l-.664-1.19c.834-.85 1.956-1.21 3.028-1.21 1.718 0 2.994.8 2.994 2.79v5.63h-1.7z" fill="#FFF" mask="url(#d)"/></g></svg>