<svg width="37" height="30" viewBox="0 0 37 30" xmlns="http://www.w3.org/2000/svg"><title>footer-twitter</title><path d="M36.344 3.496c-1.337.593-2.774.994-4.282 1.174 1.54-.922 2.72-2.384 3.278-4.125-1.44.855-3.037 1.475-4.735 1.81C29.245.905 27.307 0 25.162 0c-4.117 0-7.456 3.338-7.456 7.456 0 .585.066 1.154.193 1.7-6.198-.312-11.692-3.28-15.37-7.79-.642 1.1-1.01 2.38-1.01 3.747 0 2.587 1.317 4.87 3.318 6.207-1.223-.04-2.372-.374-3.378-.933v.094c0 3.613 2.57 6.627 5.98 7.312-.625.17-1.283.262-1.963.262-.48 0-.948-.047-1.403-.134.95 2.962 3.702 5.118 6.965 5.178-2.553 2-5.768 3.192-9.26 3.192-.603 0-1.197-.035-1.78-.104 3.3 2.115 7.22 3.35 11.43 3.35 13.715 0 21.215-11.362 21.215-21.215 0-.323-.007-.644-.022-.964 1.457-1.05 2.72-2.364 3.72-3.86L13.86 12.014" fill="#FFF" fill-rule="evenodd"/></svg>