<svg width="197" height="111" viewBox="0 0 197 111" xmlns="http://www.w3.org/2000/svg" xmlns:xlink="http://www.w3.org/1999/xlink"><defs><path id="a" d="M.144.365H196.84v110.147H.145"/></defs><g fill="none" fill-rule="evenodd"><path d="M56.21 26.314l-6.655-9.105v9.104h-2.972v-13.96h3.056l6.467 8.768v-8.77h2.97v13.962H56.21M68.52 23.05v-3.56c-.44-.67-1.403-1.17-2.282-1.17-1.528 0-2.573 1.19-2.573 2.93 0 1.756 1.045 2.95 2.573 2.95.88 0 1.842-.48 2.282-1.15zm0 3.264v-1.297c-.795 1.004-1.884 1.55-3.118 1.55-2.535 0-4.48-1.928-4.48-5.317 0-3.287 1.904-5.295 4.48-5.295 1.194 0 2.3.502 3.118 1.547v-1.298h2.68v10.11h-2.68zM74.17 23.78v-5.252H72.5v-2.324h1.672v-2.762h2.66v2.762h2.052v2.324H76.83v4.543c0 .65.334 1.13.92 1.13.4 0 .776-.147.923-.315l.564 2.03c-.4.358-1.11.65-2.22.65-1.86 0-2.846-.962-2.846-2.786M80.494 16.204h2.657v10.11h-2.656v-10.11zm-.253-2.678c0-.88.715-1.57 1.573-1.57.88 0 1.59.69 1.59 1.57 0 .877-.71 1.59-1.59 1.59-.858 0-1.572-.713-1.572-1.59zM92.864 21.25c0-1.572-.92-2.93-2.595-2.93-1.654 0-2.576 1.358-2.576 2.93 0 1.59.922 2.95 2.575 2.95 1.674 0 2.594-1.36 2.594-2.95zm-7.933 0c0-2.87 2.01-5.295 5.34-5.295 3.348 0 5.357 2.426 5.357 5.295 0 2.866-2.01 5.316-5.358 5.316-3.33 0-5.34-2.45-5.34-5.316zM104.232 26.314v-6.112c0-1.403-.733-1.883-1.864-1.883-1.045 0-1.84.585-2.302 1.17v6.824h-2.66v-10.11h2.66v1.298c.65-.752 1.906-1.547 3.537-1.547 2.24 0 3.308 1.254 3.308 3.22v7.14h-2.678M116.266 23.05v-3.56c-.437-.67-1.4-1.17-2.28-1.17-1.528 0-2.575 1.19-2.575 2.93 0 1.756 1.048 2.95 2.576 2.95.88 0 1.843-.48 2.28-1.15zm0 3.264v-1.297c-.795 1.004-1.883 1.55-3.116 1.55-2.535 0-4.48-1.928-4.48-5.317 0-3.287 1.905-5.295 4.48-5.295 1.192 0 2.302.502 3.116 1.547v-1.298h2.68v10.11h-2.68zM121.376 23.78V12.352h2.657V23.07c0 .65.336 1.13.923 1.13.396 0 .773-.147.92-.315l.564 2.03c-.396.358-1.13.65-2.217.65-1.864 0-2.847-.962-2.847-2.786M132.514 26.314v-13.96h2.99v11.344h5.904v2.616h-8.894M143.147 16.204h2.657v10.11h-2.657v-10.11zm-.252-2.678c0-.88.713-1.57 1.57-1.57.88 0 1.59.69 1.59 1.57 0 .877-.71 1.59-1.59 1.59-.857 0-1.57-.713-1.57-1.59zM153.194 24.2c1.528 0 2.554-1.194 2.554-2.95 0-1.74-1.026-2.93-2.554-2.93-.88 0-1.843.5-2.304 1.17v3.58c.46.65 1.425 1.13 2.304 1.13zm-4.96 2.114v-13.96h2.656V17.5c.798-1.045 1.927-1.547 3.12-1.547 2.576 0 4.48 2.008 4.48 5.295 0 3.39-1.925 5.316-4.48 5.316-1.215 0-2.322-.545-3.12-1.55v1.298h-2.657zM160.29 26.314v-10.11h2.66v1.36c.733-.88 1.968-1.61 3.222-1.61v2.595c-.187-.044-.418-.066-.73-.066-.882 0-2.052.502-2.492 1.154v6.676h-2.66M174.566 23.05v-3.56c-.44-.67-1.403-1.17-2.282-1.17-1.528 0-2.573 1.19-2.573 2.93 0 1.756 1.046 2.95 2.574 2.95.88 0 1.842-.48 2.282-1.15zm0 3.264v-1.297c-.795 1.004-1.883 1.55-3.118 1.55-2.535 0-4.48-1.928-4.48-5.317 0-3.287 1.904-5.295 4.48-5.295 1.194 0 2.3.502 3.118 1.547v-1.298h2.68v10.11h-2.68zM179.674 26.314v-10.11h2.66v1.36c.732-.88 1.967-1.61 3.223-1.61v2.595c-.187-.044-.42-.066-.733-.066-.88 0-2.05.502-2.49 1.154v6.676h-2.66M186.874 28.91l1.194-1.907c.732.88 1.967 1.238 3.036 1.238 1.716 0 2.72-1.172 2.72-2.596v-1.048c-.69.757-1.905 1.53-3.558 1.53-2.22 0-3.265-1.215-3.265-3.18v-6.742h2.658v5.692c0 1.403.733 1.867 1.864 1.867 1.026 0 1.843-.567 2.302-1.154v-6.406h2.66v9.44c0 3.036-2.158 4.773-5.38 4.773-1.696 0-3.058-.483-4.23-1.508M53.803 40.793c0-1.57-.92-2.93-2.595-2.93-1.653 0-2.575 1.36-2.575 2.93 0 1.59.922 2.95 2.575 2.95 1.674 0 2.595-1.36 2.595-2.95zm-7.933 0c0-2.868 2.01-5.297 5.338-5.297 3.35 0 5.357 2.43 5.357 5.297 0 2.867-2.008 5.315-5.357 5.315-3.327 0-5.338-2.448-5.338-5.315zM59.06 45.858V38.07h-1.675V35.75h1.674v-.42c0-2.364 1.443-3.642 3.39-3.642.775 0 1.445.168 1.926.418l-.546 1.97c-.21-.147-.502-.21-.857-.21-.755 0-1.257.48-1.257 1.464v.42h2.052v2.323h-2.052v7.788H59.06M69.565 43.888l1.634-2.32c.98 1.025 2.512 1.904 4.436 1.904 1.653 0 2.426-.733 2.426-1.55 0-2.428-8.036-.732-8.036-5.986 0-2.323 2.01-4.25 5.295-4.25 2.22 0 4.064.67 5.445 1.948l-1.653 2.218c-1.13-1.048-2.64-1.528-4.062-1.528-1.257 0-1.968.545-1.968 1.38 0 2.2 8.017.712 8.017 5.925 0 2.553-1.84 4.478-5.59 4.478-2.7 0-4.626-.9-5.945-2.22M82.272 40.793c0-3.1 2.26-5.297 5.36-5.297 2.073 0 3.327.9 3.997 1.82l-1.738 1.635c-.48-.713-1.213-1.088-2.136-1.088-1.612 0-2.74 1.17-2.74 2.93 0 1.758 1.128 2.952 2.74 2.952.923 0 1.656-.42 2.136-1.11l1.737 1.633c-.67.92-1.925 1.84-4 1.84-3.098 0-5.358-2.198-5.358-5.314M100.547 40.793c0-1.57-.92-2.93-2.597-2.93-1.653 0-2.573 1.36-2.573 2.93 0 1.59.92 2.95 2.573 2.95 1.677 0 2.597-1.36 2.597-2.95zm-7.933 0c0-2.868 2.008-5.297 5.336-5.297 3.35 0 5.36 2.43 5.36 5.297 0 2.867-2.01 5.315-5.36 5.315-3.328 0-5.336-2.448-5.336-5.315zM105.74 43.323V38.07h-1.676V35.75h1.675v-2.765h2.658v2.765h2.052v2.323h-2.052v4.542c0 .65.334 1.132.92 1.132.397 0 .776-.15.923-.315l.563 2.03c-.397.355-1.108.648-2.218.648-1.86 0-2.846-.96-2.846-2.785M112.163 43.323V31.895h2.66v10.717c0 .65.333 1.132.92 1.132.398 0 .775-.15.922-.315l.564 2.03c-.4.355-1.13.648-2.22.648-1.862 0-2.847-.96-2.847-2.785M125.246 42.593v-3.56c-.44-.668-1.403-1.17-2.282-1.17-1.528 0-2.573 1.19-2.573 2.93 0 1.757 1.046 2.95 2.574 2.95.88 0 1.843-.48 2.282-1.15zm0 3.265V44.56c-.795 1.005-1.883 1.548-3.118 1.548-2.535 0-4.48-1.925-4.48-5.315 0-3.29 1.905-5.297 4.48-5.297 1.192 0 2.302.502 3.118 1.55v-1.298h2.68v10.11h-2.68zM137.283 45.858v-6.112c0-1.403-.733-1.884-1.862-1.884-1.047 0-1.842.587-2.303 1.17v6.826h-2.657v-10.11h2.657v1.298c.648-.755 1.905-1.55 3.54-1.55 2.238 0 3.304 1.257 3.304 3.224v7.138h-2.677M149.424 42.593v-3.58c-.44-.67-1.403-1.15-2.282-1.15-1.528 0-2.573 1.19-2.573 2.93 0 1.757 1.044 2.95 2.572 2.95.88 0 1.843-.48 2.282-1.15zm0 3.265V44.56c-.795 1.005-1.885 1.548-3.118 1.548-2.534 0-4.48-1.925-4.48-5.315 0-3.29 1.905-5.297 4.48-5.297 1.192 0 2.323.502 3.118 1.55v-5.15h2.68v13.962h-2.68zM46.182 63.083v-9.78H47.4V62h4.546v1.083h-5.764M56.287 56.734c-1.51 0-2.26 1.275-2.32 2.347h4.65c-.014-1.042-.718-2.346-2.33-2.346zm-3.477 2.8c0-2.053 1.468-3.71 3.49-3.71 2.142 0 3.4 1.674 3.4 3.797v.282h-5.715c.087 1.33 1.01 2.448 2.535 2.448.82 0 1.63-.324 2.2-.91l.53.718c-.722.704-1.673 1.1-2.817 1.1-2.11 0-3.623-1.51-3.623-3.723zM66.603 61.147V57.95c-.382-.616-1.247-1.142-2.112-1.142-1.436 0-2.288 1.172-2.288 2.74 0 1.568.852 2.728 2.29 2.728.864 0 1.73-.512 2.11-1.13zm0 1.936v-1.057c-.53.718-1.394 1.233-2.39 1.233-1.848 0-3.153-1.41-3.153-3.71 0-2.273 1.305-3.727 3.152-3.727.954 0 1.82.47 2.39 1.25V56h1.1v7.083h-1.1zM73.12 62.276c1.423 0 2.273-1.16 2.273-2.727 0-1.57-.85-2.742-2.272-2.742-.88 0-1.744.526-2.126 1.14v3.213c.382.62 1.247 1.116 2.127 1.116zm-3.223.807v-9.78h1.097v3.77c.572-.78 1.437-1.25 2.39-1.25 1.863 0 3.153 1.454 3.153 3.726 0 2.3-1.305 3.71-3.152 3.71-.997 0-1.862-.515-2.39-1.234v1.057h-1.098zM83.115 63.083v-4.665c0-1.26-.63-1.61-1.598-1.61-.85 0-1.672.526-2.083 1.1v5.175h-1.1v-9.78h1.1v3.724c.486-.603 1.45-1.204 2.523-1.204 1.48 0 2.258.718 2.258 2.26v5h-1.1M91.54 61.147V57.95c-.382-.616-1.247-1.142-2.112-1.142-1.436 0-2.287 1.172-2.287 2.74 0 1.568.852 2.728 2.288 2.728.865 0 1.73-.512 2.112-1.13zm0 1.936v-1.057c-.526.718-1.393 1.233-2.39 1.233-1.848 0-3.152-1.41-3.152-3.71 0-2.273 1.304-3.727 3.152-3.727.953 0 1.818.47 2.39 1.25V56h1.1v7.083h-1.1zM94.83 63.083V56h1.102v1.128c.574-.73 1.396-1.29 2.36-1.29v1.13c-.13-.013-.26-.03-.424-.03-.69 0-1.612.56-1.936 1.13v5.015h-1.1M99.668 61.603v-8.3h1.1v8.065c0 .528.235.908.718.908.308 0 .603-.147.735-.307l.338.835c-.293.264-.675.454-1.322.454-1.04 0-1.568-.602-1.568-1.657M108.744 61.147V57.95c-.384-.616-1.247-1.142-2.112-1.142-1.44 0-2.29 1.172-2.29 2.74 0 1.568.85 2.728 2.29 2.728.865 0 1.728-.512 2.112-1.13zm0 1.936v-1.057c-.53.718-1.396 1.233-2.393 1.233-1.846 0-3.15-1.41-3.15-3.71 0-2.273 1.304-3.727 3.15-3.727.955 0 1.82.47 2.394 1.25V56h1.098v7.083h-1.098zM116.83 63.083V58.45c0-1.26-.646-1.642-1.597-1.642-.867 0-1.675.526-2.097 1.1v5.175h-1.1V56h1.1v1.027c.497-.603 1.465-1.204 2.534-1.204 1.468 0 2.244.75 2.244 2.287v4.973h-1.083M124.917 63.083V58.45c0-1.26-.644-1.642-1.597-1.642-.865 0-1.67.526-2.098 1.1v5.175h-1.098V56h1.098v1.027c.5-.603 1.468-1.204 2.537-1.204 1.467 0 2.243.75 2.243 2.287v4.973h-1.086M138.983 63.083l-5.705-7.8v7.8h-1.216v-9.78h1.247l5.63 7.64v-7.64h1.216v9.78h-1.173M145.737 54.93l-2.477-2.112h1.14l2.173 2.11h-.836zm1.773 6.217V57.95c-.38-.616-1.245-1.142-2.112-1.142-1.434 0-2.287 1.172-2.287 2.74 0 1.568.854 2.728 2.288 2.728.867 0 1.732-.512 2.112-1.13zm0 1.936v-1.057c-.526.718-1.39 1.233-2.388 1.233-1.848 0-3.152-1.41-3.152-3.71 0-2.273 1.304-3.727 3.152-3.727.953 0 1.816.47 2.388 1.25V56h1.1v7.083h-1.1zM150.806 56h1.1v7.083h-1.1V56zm-.19-1.743c0-.414.336-.75.747-.75.41 0 .733.336.733.75 0 .408-.322.732-.733.732-.41 0-.747-.325-.747-.733zM153.5 62.144l.56-.793c.467.546 1.36 1.015 2.33 1.015 1.085 0 1.686-.514 1.686-1.218 0-1.715-4.382-.658-4.382-3.284 0-1.115.937-2.04 2.623-2.04 1.216 0 2.07.457 2.624 1.028l-.51.763c-.43-.512-1.19-.894-2.113-.894-.968 0-1.57.484-1.57 1.112 0 1.542 4.386.53 4.386 3.284 0 1.19-.954 2.143-2.773 2.143-1.174 0-2.14-.367-2.86-1.116M163.98 56.734c-1.51 0-2.257 1.275-2.317 2.347h4.648c-.013-1.042-.717-2.346-2.33-2.346zm-3.475 2.8c0-2.053 1.467-3.71 3.49-3.71 2.14 0 3.402 1.674 3.402 3.797v.282h-5.718c.086 1.33 1.01 2.448 2.534 2.448.822 0 1.63-.324 2.2-.91l.53.718c-.722.704-1.673 1.1-2.817 1.1-2.11 0-3.622-1.51-3.622-3.723zM174.297 61.147V57.95c-.382-.616-1.247-1.142-2.112-1.142-1.436 0-2.287 1.172-2.287 2.74 0 1.568.85 2.728 2.287 2.728.865 0 1.73-.512 2.112-1.13zm0 1.936v-1.057c-.53.718-1.393 1.233-2.39 1.233-1.848 0-3.152-1.41-3.152-3.71 0-2.273 1.304-3.727 3.152-3.727.953 0 1.818.47 2.39 1.25V56h1.1v7.083h-1.1zM182.384 63.083V58.45c0-1.26-.644-1.642-1.598-1.642-.865 0-1.672.526-2.097 1.1v5.175h-1.1V56h1.1v1.027c.498-.603 1.466-1.204 2.536-1.204 1.467 0 2.243.75 2.243 2.287v4.973h-1.086M185.898 61.603V56.97h-1.172V56h1.172v-1.936h1.115V56h1.437v.97h-1.437v4.398c0 .528.233.908.704.908.322 0 .6-.147.747-.307l.322.835c-.28.264-.673.454-1.304.454-1.055 0-1.584-.602-1.584-1.657M195.12 61.147V57.95c-.386-.616-1.248-1.142-2.113-1.142-1.44 0-2.287 1.172-2.287 2.74 0 1.568.848 2.728 2.287 2.728.865 0 1.727-.512 2.112-1.13zm0 1.936v-1.057c-.53.718-1.395 1.233-2.394 1.233-1.847 0-3.152-1.41-3.152-3.71 0-2.273 1.305-3.727 3.152-3.727.954 0 1.82.47 2.393 1.25V56h1.097v7.083h-1.098zM51.095 78.418v-4.634c0-1.26-.646-1.644-1.6-1.644-.862 0-1.67.53-2.095 1.1v5.178h-1.1v-7.085h1.1v1.028c.497-.602 1.466-1.202 2.537-1.202 1.466 0 2.244.75 2.244 2.287v4.973h-1.085M59.52 76.482v-3.198c-.382-.615-1.246-1.144-2.11-1.144-1.438 0-2.288 1.175-2.288 2.744 0 1.566.85 2.727 2.287 2.727.864 0 1.728-.51 2.11-1.128zm0 1.936V77.36c-.526.72-1.393 1.233-2.39 1.233-1.847 0-3.152-1.407-3.152-3.71 0-2.272 1.305-3.725 3.152-3.725.954 0 1.82.468 2.39 1.25v-1.075h1.1v7.085h-1.1zM71.403 78.418v-4.666c0-1.258-.63-1.612-1.598-1.612-.85 0-1.672.53-2.083 1.1v5.178h-1.1v-9.783h1.1v3.726c.483-.602 1.45-1.202 2.523-1.202 1.48 0 2.258.718 2.258 2.26v5h-1.1M74.036 74.384h3.52v.97h-3.52v-.97zM82.817 69.882l-2.07 5.278H84.9l-2.083-5.278zm3.298 8.536l-.864-2.186h-4.867l-.865 2.186h-1.395l3.944-9.783h1.51l3.932 9.783h-1.395zM88.732 76.936v-8.3h1.1v8.067c0 .526.235.908.718.908.31 0 .603-.146.735-.307l.337.834c-.293.267-.675.456-1.32.456-1.042 0-1.57-.6-1.57-1.657M95.9 77.61c1.423 0 2.273-1.16 2.273-2.726 0-1.57-.85-2.744-2.272-2.744-.88 0-1.744.53-2.126 1.144v3.212c.382.617 1.247 1.115 2.127 1.115zm-3.226.808v-9.783h1.1v3.772c.572-.78 1.437-1.25 2.39-1.25 1.863 0 3.153 1.454 3.153 3.727 0 2.302-1.305 3.71-3.152 3.71-.997 0-1.862-.515-2.39-1.233v1.058h-1.1zM106.233 76.482v-3.198c-.384-.615-1.246-1.144-2.11-1.144-1.44 0-2.288 1.175-2.288 2.744 0 1.566.848 2.727 2.287 2.727.865 0 1.727-.51 2.11-1.128zm0 1.936V77.36c-.528.72-1.393 1.233-2.392 1.233-1.847 0-3.15-1.407-3.15-3.71 0-2.272 1.303-3.725 3.15-3.725.954 0 1.82.468 2.393 1.25v-1.075h1.098v7.085h-1.097z" fill="#FFF"/><g><mask id="b" fill="#fff"><use xlink:href="#a"/></mask><path d="M20.615 22.417l20.05 11.575V11.938L20.614.365v22.052M20.137 46.58l20.05-11.574-20.14-11.625L0 34.954 20.137 46.58" fill="#FFF" mask="url(#b)"/></g><path d="M54.235 107.564v-7.226l-2.828 7.226h-.93l-2.827-7.226v7.226h-2.133V97.54h2.99l2.434 6.267 2.437-6.268h3.006v10.024h-2.148M63.547 103.93c0-1.13-.66-2.105-1.862-2.105-1.187 0-1.85.975-1.85 2.105 0 1.14.663 2.118 1.85 2.118 1.2 0 1.862-.977 1.862-2.118zm-5.696 0c0-2.062 1.445-3.804 3.835-3.804 2.405 0 3.846 1.742 3.846 3.804 0 2.056-1.44 3.817-3.845 3.817-2.39 0-3.834-1.76-3.834-3.817zM68.837 107.564l-2.916-7.257h2.045l1.893 5.05 1.908-5.05h2.044l-2.914 7.257h-2.06M74.663 100.307h1.908v7.257h-1.907v-7.257zm-.18-1.925c0-.632.512-1.13 1.127-1.13.63 0 1.143.498 1.143 1.13 0 .632-.512 1.144-1.143 1.144-.615 0-1.127-.512-1.127-1.144zM83.365 107.564v-4.39c0-1.005-.526-1.35-1.34-1.35-.75 0-1.32.42-1.65.842v4.898h-1.91v-7.257h1.91v.932c.465-.544 1.366-1.114 2.54-1.114 1.608 0 2.374.9 2.374 2.314v5.124h-1.925M92.155 104.996v-2.36c-.33-.467-1.023-.81-1.638-.81-1.098 0-1.85.75-1.85 1.998 0 1.247.752 2 1.85 2 .615 0 1.307-.364 1.638-.828zm-5.14 4.433l.857-1.368c.586.63 1.367.886 2.268.886.917 0 2.015-.39 2.015-1.864v-.706c-.572.72-1.352 1.126-2.256 1.126-1.803 0-3.2-1.26-3.2-3.68 0-2.374 1.366-3.698 3.2-3.698.87 0 1.67.36 2.255 1.113v-.933h1.908v6.777c0 2.75-2.134 3.428-3.923 3.428-1.233 0-2.208-.286-3.126-1.083zM99.86 97.54h2.133v10.024H99.86V97.54zM112.934 107.564v-4.583c0-.675-.3-1.155-1.084-1.155-.675 0-1.23.45-1.5.84v4.9h-1.926v-4.584c0-.675-.3-1.155-1.08-1.155-.66 0-1.22.45-1.505.84v4.9h-1.908v-7.258h1.907v.932c.314-.422 1.263-1.114 2.375-1.114 1.067 0 1.76.495 2.014 1.307.42-.646 1.38-1.307 2.495-1.307 1.336 0 2.133.707 2.133 2.194v5.244h-1.924M121.736 105.222v-2.556c-.314-.48-1.006-.84-1.638-.84-1.096 0-1.848.854-1.848 2.104 0 1.26.752 2.118 1.848 2.118.632 0 1.324-.345 1.638-.826zm0 2.342v-.93c-.57.72-1.352 1.113-2.24 1.113-1.817 0-3.216-1.384-3.216-3.817 0-2.362 1.37-3.804 3.217-3.804.858 0 1.653.36 2.24 1.113v-.933h1.924v7.257h-1.924zM130.54 104.996v-2.36c-.33-.467-1.02-.81-1.637-.81-1.098 0-1.85.75-1.85 1.998 0 1.247.752 2 1.85 2 .617 0 1.307-.364 1.638-.828zm-5.14 4.433l.858-1.368c.586.63 1.367.886 2.268.886.917 0 2.015-.39 2.015-1.864v-.706c-.57.72-1.35 1.126-2.255 1.126-1.8 0-3.2-1.26-3.2-3.68 0-2.374 1.367-3.698 3.2-3.698.873 0 1.67.36 2.256 1.113v-.933h1.91v6.777c0 2.75-2.135 3.428-3.924 3.428-1.233 0-2.208-.286-3.126-1.083zM137.63 101.688c-1.186 0-1.698.83-1.772 1.55h3.577c-.06-.692-.54-1.55-1.804-1.55zm-3.756 2.242c0-2.105 1.564-3.804 3.757-3.804 2.182 0 3.64 1.624 3.64 3.984v.45h-5.398c.137.888.858 1.623 2.09 1.623.615 0 1.46-.255 1.925-.706l.855 1.263c-.72.66-1.862 1.007-2.99 1.007-2.21 0-3.878-1.487-3.878-3.817zM150.703 99.675l-1.564 4.312h3.127l-1.564-4.312zm2.782 7.89l-.632-1.7h-4.298l-.632 1.7h-2.42l3.864-10.026h2.674l3.864 10.024h-2.42zM156.786 107.564v-7.257h1.907v.975c.53-.63 1.415-1.156 2.316-1.156v1.862c-.135-.03-.3-.043-.527-.043-.632 0-1.473.36-1.79.824v4.794h-1.907M161.73 103.93c0-2.225 1.62-3.804 3.846-3.804 1.487 0 2.39.644 2.87 1.307l-1.246 1.173c-.346-.512-.872-.78-1.533-.78-1.158 0-1.97.84-1.97 2.104 0 1.26.812 2.118 1.97 2.118.66 0 1.187-.3 1.533-.797l1.247 1.173c-.48.66-1.384 1.324-2.87 1.324-2.226 0-3.847-1.58-3.847-3.817M174.607 107.564v-4.415c0-1.01-.526-1.325-1.338-1.325-.753 0-1.34.42-1.654.84v4.9h-1.925V97.538h1.926v3.7c.466-.544 1.352-1.114 2.54-1.114 1.594 0 2.36.87 2.36 2.285v5.154h-1.91M178.405 100.307h1.908v7.257h-1.908v-7.257zm-.18-1.925c0-.632.512-1.13 1.127-1.13.632 0 1.143.498 1.143 1.13 0 .632-.51 1.144-1.143 1.144-.615 0-1.127-.512-1.127-1.144zM184.084 107.564l-2.916-7.257h2.047l1.893 5.05 1.907-5.05h2.045l-2.917 7.257h-2.06M193.204 101.688c-1.187 0-1.698.83-1.773 1.55h3.578c-.06-.692-.54-1.55-1.804-1.55zm-3.757 2.242c0-2.105 1.564-3.804 3.757-3.804 2.18 0 3.637 1.624 3.637 3.984v.45h-5.394c.137.888.857 1.623 2.09 1.623.615 0 1.458-.255 1.924-.706l.855 1.263c-.72.66-1.862 1.007-2.988 1.007-2.21 0-3.88-1.487-3.88-3.817zM45 88h151v.967H45V88z" fill="#FFF"/></g></svg>