<svg width="133" height="84" viewBox="0 0 133 84" xmlns="http://www.w3.org/2000/svg"><g fill="#FFF" fill-rule="evenodd"><path d="M59.85 33.244h2.947c.032-.486.053-.976.063-1.47h-3.01v1.47zM122.7 17.96c-1.24 0-2.1.978-2.1 2.178v.02c0 1.2.88 2.198 2.12 2.198 1.24 0 2.098-.98 2.098-2.18v-.02c0-1.197-.88-2.197-2.118-2.197zM59.85 30.406h3.008c-.012-.476-.035-.95-.068-1.42h-2.94v1.42zm66.577-10.27c0-1.988-1.55-3.596-3.707-3.596-2.16 0-3.728 1.63-3.728 3.617v.02c0 1.99 1.55 3.598 3.708 3.598 2.158 0 3.727-1.63 3.727-3.618v-.02zm-7.505 2.39l-.98-.99c-.55.5-1.04.82-1.838.82-1.2 0-2.03-1-2.03-2.2v-.02c0-1.2.85-2.178 2.03-2.178.7 0 1.248.3 1.788.788l.98-1.13c-.65-.638-1.44-1.077-2.758-1.077-2.148 0-3.648 1.63-3.648 3.617v.02c0 2.01 1.53 3.598 3.588 3.598 1.35 0 2.148-.48 2.868-1.25zm-6.88-.96c0-1.22-.798-1.73-2.216-2.1-1.21-.31-1.51-.458-1.51-.918v-.02c0-.34.31-.61.9-.61.59 0 1.2.26 1.818.69l.8-1.16c-.71-.57-1.58-.89-2.598-.89-1.43 0-2.45.84-2.45 2.11v.018c0 1.39.91 1.78 2.32 2.14 1.17.3 1.41.5 1.41.888v.02c0 .41-.38.66-1.01.66-.8 0-1.46-.33-2.09-.85l-.91 1.09c.84.75 1.91 1.12 2.97 1.12 1.508 0 2.567-.78 2.567-2.17v-.02zM99.998 41.773c0-1.968-1.52-3.478-3.718-3.478h-2.73v6.996h2.73c2.198 0 3.717-1.53 3.717-3.498v-.02zm-7.263-3.478h-1.52v4.307l-3.276-4.307h-1.42v6.995h1.52v-4.445l3.387 4.446h1.31v-6.994zm-6.66 6.995l-3-7.044h-1.418l-2.998 7.045h1.57l.638-1.568h2.958l.64 1.57h1.61zm46.207-27.21V60.59H73.24v-15.3h4.97v-1.4h-3.486v-5.596h-1.484V1.548h59.043V16.66h-5.74v1.42h2.13v5.575h1.538V18.08h2.073zM38.926 31.685h1.86l-.93-2.27-.93 2.27zM57.88 27.62h-1.658l-1.828 4.925-1.83-4.926h-1.697l2.827 7.043h1.36l2.827-7.044zm-9.07 6.994h1.54V27.62h-1.54v6.994zm-.67-6.995h-5.795v1.417h2.128v5.577h1.538v-5.577h2.13V27.62zm-4.558 6.994l-3-7.045h-1.418l-2.997 7.044h1.57l.638-1.57h2.958l.64 1.57h1.61zm-7.89-1.37h-3.797v-1.47h3.297v-1.367h-3.297v-1.42h3.747V27.62h-5.276v6.994h5.326v-1.37zm-5.872 1.37l-1.71-2.5c.89-.328 1.5-1.037 1.5-2.167v-.02c0-.66-.21-1.21-.6-1.6-.46-.458-1.15-.708-2.038-.708h-3.198v6.994h1.54v-2.24h1.208l1.5 2.24h1.798zm-6.73-1.13l-.98-.99c-.55.5-1.04.82-1.84.82-1.198 0-2.027-1-2.027-2.198v-.02c0-1.2.85-2.178 2.028-2.178.7 0 1.25.3 1.79.79l.98-1.13c-.65-.64-1.44-1.08-2.758-1.08-2.148 0-3.648 1.63-3.648 3.618v.02c0 2.01 1.53 3.598 3.588 3.598 1.35 0 2.148-.48 2.867-1.25zm39.587 1.13c-1.716 15.59-14.93 27.72-30.976 27.72C14.49 62.333.534 48.38.534 31.166S14.488 0 31.7 0c16.014 0 29.203 12.077 30.965 27.62H58.32v6.994h4.357zm18.74 7.75h1.858l-.93-2.27-.93 2.27zM26.84 29.008h-1.53v2.008h1.56c.75 0 1.18-.4 1.18-.99v-.02c0-.66-.46-.998-1.21-.998zm71.546 12.786v.02c0 1.24-.85 2.088-2.11 2.088H95.09v-4.217h1.19c1.258 0 2.108.87 2.108 2.11zM6.537 80.127L5.31 77.285l-1.22 2.842h2.447zM4.75 75.794h1.157l3.126 7.154h-1.32l-.72-1.715h-3.36l-.73 1.715H1.625l3.126-7.154zM10.526 75.845h1.25v5.967h3.733v1.136h-4.984v-7.103M20.382 81.842c.852 0 1.37-.335 1.37-.974v-.02c0-.6-.477-.954-1.46-.954h-1.98v1.948h2.07zm-.366-3.004c.802 0 1.34-.314 1.34-.964v-.02c0-.558-.447-.903-1.248-.903H18.31v1.888h1.706zm-2.933-2.993h3.187c.812 0 1.45.222 1.857.628.315.315.477.7.477 1.178v.02c0 .854-.487 1.31-1.015 1.584.832.284 1.41.76 1.41 1.726V81c0 1.268-1.045 1.948-2.628 1.948h-3.29v-7.103zM28.99 80.127l-1.23-2.842-1.217 2.842h2.446zm-1.787-4.333h1.157l3.125 7.154h-1.32l-.72-1.715h-3.36l-.73 1.715h-1.278l3.126-7.154zM37.923 74.85h.446v9.397h-.447V74.85zM45.43 79.417v-.02c0-2.02 1.51-3.675 3.663-3.675 1.31 0 2.1.457 2.78 1.107l-.8.922c-.57-.527-1.18-.883-1.99-.883-1.36 0-2.345 1.116-2.345 2.506v.02c0 1.39.985 2.528 2.345 2.528.873 0 1.43-.356 2.04-.924l.8.812c-.74.77-1.55 1.258-2.88 1.258-2.07 0-3.614-1.614-3.614-3.653M53.51 75.845h1.247v2.953h3.39v-2.953h1.248v7.103h-1.25v-2.994h-3.388v2.994H53.51v-7.103M64.572 79.366c.893 0 1.46-.467 1.46-1.187v-.022c0-.76-.547-1.177-1.47-1.177h-1.817v2.386h1.827zm-3.075-3.52h3.166c.893 0 1.594.262 2.05.71.376.384.59.912.59 1.53v.022c0 1.167-.7 1.867-1.696 2.15l1.918 2.69h-1.47l-1.747-2.476h-1.563v2.476h-1.248v-7.103zM68.998 79.934v-4.09h1.248v4.04c0 1.32.68 2.03 1.797 2.03 1.106 0 1.786-.67 1.786-1.98v-4.09h1.247v4.03c0 2.12-1.198 3.186-3.055 3.186-1.847 0-3.024-1.065-3.024-3.126M78.813 77H76.56v-1.155h5.764V77H80.07v5.948h-1.257V77M83.92 75.845h1.247v2.953h3.39v-2.953h1.248v7.103h-1.248v-2.994h-3.39v2.994H83.92v-7.103M96.21 80.127l-1.228-2.842-1.218 2.842h2.446zm-1.786-4.333h1.157l3.127 7.154h-1.32l-.72-1.715h-3.36l-.73 1.715h-1.28l3.127-7.154zM99.448 79.417v-.02c0-2.02 1.513-3.675 3.664-3.675 1.31 0 2.1.457 2.78 1.107l-.8.922c-.57-.527-1.178-.883-1.99-.883-1.36 0-2.344 1.116-2.344 2.506v.02c0 1.39.984 2.528 2.344 2.528.873 0 1.43-.356 2.04-.924l.802.812c-.74.77-1.553 1.258-2.883 1.258-2.07 0-3.612-1.614-3.612-3.653M107.528 75.845h1.25v2.953h3.388v-2.953h1.25v7.103h-1.25v-2.994h-3.39v2.994h-1.248v-7.103M119.82 80.127l-1.23-2.842-1.216 2.842h2.445zm-1.787-4.333h1.157l3.126 7.154h-1.32l-.72-1.715h-3.36l-.73 1.715h-1.28l3.127-7.154zM123.88 75.845h1.248v7.103h-1.248v-7.103zM127.302 75.845h1.248v5.967h3.735v1.136h-4.983v-7.103"/></g></svg>