<svg width="220" height="93" viewBox="0 0 220 93" xmlns="http://www.w3.org/2000/svg"><g fill="none" fill-rule="evenodd"><path d="M56.183 51.37L28.335 67.925l6.768 11.58" fill="#65C3D5"/><path d="M.068 75.707c.154 1.137.846 2.057 1.724 2.692.618.53 1.567.847 2.537.847.665 0 1.3-.15 1.838-.437l.006-.004.004.007L55.355 49.59l-2.6-1.485-30.31 18.08-2.407 1.362-12.445 7.418-2.26 1.332-.017.01c-.23.123-.49.188-.75.188-.58 0-1.117-.318-1.398-.828-.126-.23-.194-.487-.196-.746v-.025l.004-2.262.007-.008L2.97 22.06l.02.01-.01-4.666v-.036c.003-.256.07-.513.196-.74.277-.51.81-.823 1.39-.823.258 0 .515.063.71.164l.262.174.015-.012 1.98 1.168 12.643 7.804 2.288 1.378 51.17 31.45 2.295 1.44c.17.11.314.262.416.44.33.586.12 1.27-.497 1.627L24.003 91.95l.905.298c.2.066.416.123.638.166.274.054.55.085.82.095.064.004.13.006.193.006.8 0 1.572-.18 2.292-.53.057-.027.132-.054.21-.083.162-.06.33-.12.443-.194l1.364-.78 46.543-27.413.04-.022c1.165-.674 1.865-2.104 1.706-3.457-.084-1.166-.826-2.266-2.038-3.02l-.138-.076-70.49-43.264-.094-.046c-.076-.046-.152-.09-.23-.13l-.01-.004c-1.37-.73-3.152-.555-4.33.386-1.175.852-1.823 2.187-1.823 3.76l.006.125.003.034L0 74.722s0 .495.068.985" fill="#FFF"/><path d="M21.832 63.685l2.442-1.373-.033-31.745-2.428-1.62.02 34.738M78.972 33.317c-.01-.09-.267-2.278-2.862-3.92C73.255 27.595 30.11 1.05 29.687.79 29.64.758 28.477 0 26.87 0c-.515 0-1.023.08-1.51.233l-.898.285 54.6 33.674-.09-.875" fill="#FFF"/><path d="M4.287 32.35L4.28 44.16h15.985l.013-11.952M4.31 74.198l15.977-9.454-.02-18.47H4.282l.03 27.924" fill="#5CC1D4"/><path d="M4.28 49.687l.002-3.414h4.16l-4.16 3.414" fill="#A2D9EA"/><path d="M7.542 75.45l.002-.026-.002.026" fill="#262927"/><path d="M29.15 36.896V56.02l16.1-9.572-16.1-9.552" fill="#FFF"/><path d="M66.658 48.332l12.404 7.97-.004-3.52-9.227-9.676-3.172 5.226M64.955 47.07l3.464-5.755-23.926-25.21-8.21 13.304 28.67 17.66M34.348 28.308l8.5-13.775-1.82-1.916-18.23-11.394-16.48 9.49 28.03 17.595" fill="#5CC1D4"/><path d="M69.766 43.136l9.31 9.7.105-16.867-3.745-2.282-5.67 9.448zM68.365 41.343l5.233-8.693-28.514-17.565-.645 1.046 23.925 25.213M40.6 12.38l2.25 2.195.407-.664" fill="#97D5EA"/><path d="M22.564 91.028l12.442-7.462L26.432 68.9 6.115 81.023l16.45 10.006" fill="#65C3D5"/><path d="M50.45 74.406l-5.126-8.767-10.262 13.754 1.805 3.09 13.583-8.078M33.787 81.132l-4.23 5.668 5.6-3.328-1.37-2.34" fill="#5CC1D4"/><path d="M4.282 46.273v3.414l4.16-3.414h-4.16" fill="#65C3D5"/><path d="M73.398 60.805l-12.04-7.397 6.222 10.866 5.818-3.47M65.82 65.22l-8.575-14.666-1.104.657-.573.648-20.505 27.487 1.805 3.09L65.82 65.22M33.787 81.132l-4.23 5.668 5.6-3.328-1.37-2.34M4.282 46.273v3.414l4.16-3.414h-4.16" fill="#35A9BE"/><path d="M89.082 27.937l1.567-2.16c1.068 1.163 2.802 2.207 5.01 2.207 2.28 0 3.16-1.116 3.16-2.186 0-3.324-9.215-1.257-9.215-7.077 0-2.635 2.28-4.654 5.77-4.654 2.447 0 4.466.807 5.915 2.233l-1.567 2.065c-1.26-1.26-2.945-1.83-4.608-1.83-1.616 0-2.66.808-2.66 1.973 0 2.97 9.215 1.14 9.215 7.03 0 2.637-1.876 4.917-6.128 4.917-2.922 0-5.035-1.045-6.46-2.518M103.555 22.26c0-4.892 3.634-8.194 8.313-8.194 3.182 0 5.178 1.64 6.34 3.54l-2.35 1.234c-.76-1.33-2.304-2.305-3.99-2.305-3.136 0-5.463 2.377-5.463 5.726 0 3.302 2.327 5.724 5.463 5.724 1.686 0 3.23-.998 3.99-2.303l2.375 1.188c-1.21 1.9-3.183 3.587-6.365 3.587-4.68 0-8.313-3.326-8.313-8.194M133.212 22.26c0-3.277-2.066-5.725-5.25-5.725-3.205 0-5.25 2.448-5.25 5.726 0 3.254 2.045 5.724 5.25 5.724 3.184 0 5.25-2.47 5.25-5.723zm-13.35 0c0-4.726 3.35-8.194 8.1-8.194 4.727 0 8.1 3.468 8.1 8.195 0 4.726-3.373 8.195-8.1 8.195-4.75 0-8.1-3.47-8.1-8.194zM141.784 30.11V16.716h-4.798V14.27h12.375v2.445h-4.798V30.11h-2.778M155.645 30.11V16.716h-4.797V14.27h12.374v2.445h-4.798V30.11h-2.78M165.525 14.27h2.78v15.84h-2.78V14.27zM170.62 27.937l1.568-2.16c1.068 1.163 2.802 2.207 5.012 2.207 2.28 0 3.158-1.116 3.158-2.186 0-3.324-9.215-1.257-9.215-7.077 0-2.635 2.28-4.654 5.772-4.654 2.446 0 4.465.807 5.913 2.233l-1.567 2.065c-1.26-1.26-2.944-1.83-4.607-1.83-1.615 0-2.66.808-2.66 1.973 0 2.97 9.216 1.14 9.216 7.03 0 2.637-1.878 4.917-6.13 4.917-2.92 0-5.035-1.045-6.46-2.518M196.726 30.11v-6.934h-8.242v6.935h-2.778V14.27h2.778v6.46h8.242v-6.46h2.78v15.84h-2.78" fill="#97D4EA"/><path d="M89.693 53.554V37.712h10.855v2.447h-8.076v4.083h7.91v2.446h-7.91v6.864h-2.78M103.555 37.712h2.78v15.842h-2.78V37.712zM109.466 53.554V37.712h2.78v13.396h6.982v2.446h-9.762M135.378 53.554V41.322l-4.845 12.232h-1.188l-4.87-12.232v12.232h-2.778V37.712h3.92l4.323 10.878 4.298-10.878h3.92v15.842h-2.78" fill="#5CC1D4"/><path d="M89.693 76.792v-15.84h10.855v2.445h-8.076v4.085h7.91v2.447h-7.91v4.416h8.076v2.446H89.693M114.68 68.86c0-3.04-1.9-5.463-5.415-5.463h-3.135v10.95h3.11c3.445 0 5.44-2.472 5.44-5.487zm-11.33 7.932v-15.84h5.89c4.965 0 8.29 3.277 8.29 7.908 0 4.678-3.325 7.932-8.265 7.932h-5.914zM120.27 70.522v-9.57h2.826v9.5c0 2.518 1.402 4.155 4.038 4.155s4.038-1.637 4.038-4.156v-9.5h2.826v9.572c0 3.92-2.256 6.556-6.864 6.556-4.584 0-6.864-2.637-6.864-6.556M136.782 68.94c0-4.892 3.634-8.193 8.313-8.193 3.183 0 5.178 1.64 6.342 3.54l-2.35 1.234c-.762-1.33-2.305-2.303-3.992-2.303-3.136 0-5.462 2.375-5.462 5.724 0 3.303 2.326 5.725 5.462 5.725 1.687 0 3.23-.998 3.99-2.304l2.376 1.19c-1.21 1.9-3.182 3.585-6.365 3.585-4.68 0-8.313-3.325-8.313-8.194M159.824 63.73l-2.85 7.552h5.7l-2.85-7.553zm4.796 13.062l-1.163-3.063h-7.267l-1.165 3.062h-3.158l6.222-15.84h3.467l6.223 15.84h-3.16zM171.75 76.792V63.397h-4.798V60.95h12.374v2.447h-4.798v13.395h-2.78M181.63 60.95h2.777v15.842h-2.778v-15.84zM200.482 68.94c0-3.277-2.066-5.723-5.25-5.723-3.206 0-5.248 2.446-5.248 5.724 0 3.255 2.042 5.725 5.248 5.725 3.184 0 5.25-2.47 5.25-5.724zm-13.35 0c0-4.725 3.35-8.193 8.1-8.193 4.727 0 8.1 3.468 8.1 8.194 0 4.727-3.373 8.195-8.1 8.195-4.75 0-8.1-3.468-8.1-8.194zM216.93 76.792l-8.264-11.33v11.33h-2.78v-15.84h2.85l8.1 10.972V60.95h2.78v15.842h-2.685" fill="#FFF"/><path d="M20.278 28.22L4.29 18.345l-.01 25.942h6.28l9.71-7.735.008-8.334" fill="#35A9BE"/></g></svg>