<svg width="271" height="104" viewBox="0 0 271 104" xmlns="http://www.w3.org/2000/svg" xmlns:xlink="http://www.w3.org/1999/xlink"><title>mie-logo</title><defs><path id="a" d="M0 116.012h290.57V.494H0v115.518z"/><path id="c" d="M.37 10.29c0 14.068 11.405 25.466 25.47 25.466 8.14 0 15.383-3.823 20.045-9.763-.985.115-1.99.18-3.007.18-8.317 0-15.415-4.123-20.065-10.292C13.655 14.688 5.738 8.775 2.313.526 1.063 3.532.37 6.83.37 10.29z"/><path id="e" d="M25.368 55.093c3.464-8.334 11.224-14.435 20.52-15.527 4.662-5.94 13.85-6.54 21.99-8.93 1.053-.31.287-.755 1.373-.613-4.647-6.17-12.034-10.16-20.355-10.16-14.065 0-25.76 11.403-25.76 25.468 0 3.46.983 6.755 2.233 9.763z"/><path id="f" d="M71.153 55.88c.004.005 2.748 5.437 2.748 8.854 0 5.926-1.563 11.498-4.96 15.826 12.65-1.488 23.148-12.22 23.148-25.268 0-12.942-10.336-23.64-22.837-25.27 3.212 4.263 5.117 9.567 5.117 15.31 0 3.458-1.963 7.542-3.214 10.55z"/><path id="g" d="M48.895 39.39c10.61 0 19.75 6.982 23.586 15.787 1.25-3.007 2.248-6.13 2.248-9.59 0-7.475-1.265-10.658-5.477-15.564-1.085-.142-2.19-.223-3.317-.223-10.624 0-16.548 4.48-21.21 10.42.987-.112 3.154-.83 4.172-.83z"/><path id="h" d="M46.05 70.555c.185.138-.056.458 0 .524.05.063-.042.113 0 .17 4.65 5.97 11.733 9.49 19.883 9.49 1.02 0 2.022-.065 3.007-.18 3.397-4.328 5.418-7.848 5.427-15.704.005-4.33-.674-6.72-1.894-9.7-3.87 9.13-13.97 15.688-24.513 15.688-1.123 0-.82-.15-1.91-.29z"/><path id="i" d="M40.465 55.274c0 5.742 2.22 11.563 5.436 15.823 12.355 1.166 23.8-6.2 25.94-15.107L45.896 70.47V39.573l23.497 14.87c.815.514 2.445 1.546 2.445 1.546 0-.4.42 6.278.42 0S59.738 37.6 46.433 39.566c-1.008.15.457-.11-.532 0-3.4 4.333-5.435 9.782-5.435 15.708z"/><path id="j" d="M45.888 70.78c.548.33-.183-.328 0-.31-3.207-4.258-5.423-9.454-5.423-15.2 0-5.922 2.625-11.755 6.017-16.088-13.44 1.543-17.65 7.577-21.114 15.91 2.987 8.364 11.595 14.335 20.52 15.687z"/></defs><g transform="translate(-2 -3)" fill="none" fill-rule="evenodd"><path d="M46.146 37.35l-2.806-1.646v39.033l2.726-1.567 30.87-17.775-30.79-18.046z" fill="#FEFEFE"/><path d="M136.398 37.246V22.944l-5.666 14.302h-1.39l-5.69-14.302v14.302H120.4V18.72h4.585l5.053 12.722 5.028-12.72h4.58v18.524H136.4z" fill="#CCA3CC"/><g transform="translate(0 .573)"><path d="M158.393 27.425c0-3.834-2.415-6.694-6.14-6.694-3.748 0-6.135 2.86-6.135 6.695 0 3.805 2.387 6.693 6.136 6.693 3.724 0 6.14-2.888 6.14-6.693zm-15.607 0c0-5.528 3.915-9.58 9.468-9.58 5.53 0 9.47 4.052 9.47 9.58 0 5.525-3.94 9.58-9.47 9.58-5.553 0-9.468-4.055-9.468-9.58zM169.642 36.672l-7.276-18.525h3.693l5.61 14.973 5.608-14.973h3.696l-7.278 18.525h-4.054z" fill="#CCA3CC"/><mask id="b" fill="#fff"><use xlink:href="#a"/></mask><path d="M182.97 36.674h3.25V18.15h-3.25v18.524zM203.08 36.672l-9.668-13.248v13.248h-3.248V18.147h3.335l9.465 12.832V18.146h3.25v18.525h-3.135zM209.355 27.425c0-5.832 4.33-9.58 9.72-9.58 3.61 0 5.97 1.72 7.443 3.83l-2.64 1.528c-.997-1.388-2.75-2.472-4.804-2.472-3.665 0-6.387 2.78-6.387 6.695 0 3.86 2.722 6.693 6.387 6.693 1.888 0 3.555-.86 4.388-1.664v-2.862h-5.554V26.73h8.776v6.915c-1.806 2.03-4.416 3.39-7.61 3.39-5.388 0-9.72-3.807-9.72-9.61" fill="#CCA3CC" mask="url(#b)"/><path d="M120.4 64.042h3.25V45.517h-3.25v18.525zM143.59 64.042v-14.3l-5.666 14.3h-1.388l-5.693-14.3v14.3h-3.25V45.517h4.583l5.055 12.723 5.028-12.723h4.582v18.525h-3.25zM158.172 48.767l-3.335 8.832h6.667l-3.332-8.833zm5.61 15.275l-1.36-3.58h-8.5l-1.362 3.58h-3.695l7.28-18.526h4.05l7.28 18.526h-3.694zM167.697 54.795c0-5.834 4.33-9.58 9.72-9.58 3.612 0 5.973 1.72 7.443 3.83l-2.64 1.528c-.997-1.39-2.747-2.473-4.802-2.473-3.667 0-6.39 2.78-6.39 6.695 0 3.86 2.723 6.693 6.39 6.693 1.886 0 3.552-.863 4.386-1.668v-2.858h-5.554V54.1h8.776v6.916c-1.807 2.026-4.416 3.386-7.608 3.386-5.39 0-9.72-3.803-9.72-9.607M188.414 64.042V45.517h12.693v2.862h-9.443v4.775h9.25v2.86h-9.25v5.167h9.443v2.86h-12.693z" fill="#6381C0" mask="url(#b)"/><path d="M120.4 91.41V72.89h12.694v2.86h-9.443v4.776h9.25v2.86h-9.25v5.167h9.444v2.86H120.4zM149.673 82.137c0-3.555-2.22-6.39-6.333-6.39h-3.665v12.805h3.64c4.025 0 6.358-2.89 6.358-6.415zm-13.248 9.274V72.89h6.89c5.8 0 9.69 3.832 9.69 9.25 0 5.468-3.89 9.273-9.665 9.273h-6.915zM156.144 84.08V72.887h3.304v11.11c0 2.943 1.64 4.86 4.72 4.86 3.083 0 4.72-1.917 4.72-4.86v-11.11h3.308V84.08c0 4.583-2.638 7.665-8.027 7.665-5.36 0-8.026-3.082-8.026-7.665M175.333 82.162c0-5.72 4.25-9.578 9.72-9.578 3.722 0 6.056 1.914 7.415 4.137l-2.75 1.443c-.887-1.552-2.693-2.694-4.664-2.694-3.665 0-6.388 2.78-6.388 6.692 0 3.862 2.723 6.696 6.388 6.696 1.97 0 3.777-1.168 4.665-2.694l2.776 1.388c-1.416 2.22-3.72 4.19-7.442 4.19-5.47 0-9.72-3.884-9.72-9.58M202.884 76.138l-3.333 8.832h6.666l-3.332-8.832zm5.61 15.273l-1.363-3.582h-8.496l-1.362 3.583h-3.693l7.277-18.522h4.05l7.28 18.523h-3.694zM216.797 91.41V75.75h-5.612v-2.86h14.47v2.86h-5.607V91.41h-3.25zM228.406 91.41h3.25V72.887h-3.25V91.41zM250.4 82.162c0-3.83-2.416-6.693-6.137-6.693-3.75 0-6.138 2.86-6.138 6.692 0 3.808 2.39 6.696 6.138 6.696 3.72 0 6.136-2.888 6.136-6.696m-15.606 0c0-5.527 3.916-9.578 9.47-9.578 5.527 0 9.47 4.05 9.47 9.578s-3.943 9.58-9.47 9.58c-5.554 0-9.47-4.052-9.47-9.58M269.757 91.41l-9.665-13.247V91.41h-3.248V72.89h3.332l9.47 12.83v-12.83h3.25V91.41h-3.14z" fill="#FEFEFE" mask="url(#b)"/><path d="M104.51 54.738c0-27.76-22.504-50.263-50.265-50.263-27.76 0-50.263 22.504-50.263 50.263 0 27.76 22.504 50.267 50.263 50.267 27.76 0 50.265-22.507 50.265-50.267z" stroke="#FEFEFE" stroke-width="2.692" mask="url(#b)"/></g><g transform="translate(23.055 54.567)"><mask id="d" fill="#fff"><use xlink:href="#c"/></mask><path d="M-3.47 39.602h53.2v-42.92h-53.2V39.6z" fill="#412773" mask="url(#d)"/></g><use fill="#B088BC" xlink:href="#e"/><use fill="#6381BF" xlink:href="#f"/><use fill="#525FA8" xlink:href="#g"/><use fill="#594393" xlink:href="#h"/><use fill="#412773" xlink:href="#i"/><use fill="#8F4D97" xlink:href="#j"/></g></svg>