<svg xmlns="http://www.w3.org/2000/svg" width="155" height="186" viewBox="0 0 155 186"><title>pattern</title><path fill="#FFF" d="M0 0h155v187H0z"/><path fill="#F3F3F3" d="M25.325 77.39v31.24l25.792-15.635L25.325 77.39"/><path fill="#F3F3F3" d="M25.325 46.357v31.24L51.117 61.96 25.325 46.358"/><path fill="#F3F3F3" d="M25.325 15.324v31.24l25.792-15.636-25.792-15.604"/><path fill="#F3F3F3" d="M25.325 15.948l25.85-16.64h-25.85v16.64zM25.325 139.457v31.24l25.792-15.636-25.792-15.603"/><path fill="#F3F3F3" d="M25.325 186.095h25.792L25.325 170.49v15.605zM25.325 108.424v31.24l25.792-15.637-25.792-15.603M0 62v31.206l26.105-15.62L0 62"/><path fill="#F3F3F3" d="M0 31v31.206l26.105-15.62L0 31"/><path fill="#F3F3F3" d="M0 0v31.206l26.105-15.62L0 0M0 93v31.206l26.105-15.62L0 93"/><path fill="#F3F3F3" d="M0 124v31.206l26.105-15.62L0 124"/><path fill="#F3F3F3" d="M0 155v31.206l26.105-15.62L0 155M51 62v31.206l26.105-15.62L51 62"/><path fill="#F3F3F3" d="M51 31v31.206l26.105-15.62L51 31"/><path fill="#F3F3F3" d="M51 0v31.5l26.105-15.766L51 0M51 93v31.206l26.105-15.62L51 93"/><path fill="#F3F3F3" d="M51 124v31.206l26.105-15.62L51 124"/><path fill="#F3F3F3" d="M51 155v31.206l26.105-15.62L51 155"/><g fill="#F3F3F3"><path d="M103 61.667v31.54l26.105-15.787L103 61.667"/><path d="M103 30.336v31.54l26.105-15.787L103 30.335"/><path d="M103-.995v31.54l26.105-15.787L103-.995M103 92.998v31.54l26.105-15.787L103 93"/><path d="M103 124.328v31.54l26.105-15.787L103 124.33"/><path d="M103 155.658v31.54l26.105-15.786L103 155.658M77 77.415v31.405l26.105-15.72L77 77.416"/><path d="M77 46.25v31.406l26.105-15.72L77 46.25"/><path d="M77 15.085V46.49l26.105-15.718L77 15.085"/><path d="M77 15.73L103.105-1H77v16.73zM77 139.744v31.406l26.105-15.72L77 139.745"/><path d="M77 186.596h26.105L77 170.91v15.686zM77 108.58v31.406l26.105-15.72L77 108.58M129 77.415v31.405l26.105-15.72L129 77.416"/><path d="M129 46.25v31.406l26.105-15.72L129 46.25"/><path d="M129 15.085V46.49l26.105-15.718L129 15.085"/><path d="M129 15.73L155.105-1H129v16.73zM129 139.744v31.406l26.105-15.72L129 139.745"/><path d="M129 186.596h26.105L129 170.91v15.686zM129 108.58v31.406l26.105-15.72L129 108.58"/></g></svg>