<svg width="28" height="28" viewBox="0 0 28 28" xmlns="http://www.w3.org/2000/svg" xmlns:xlink="http://www.w3.org/1999/xlink"><defs><path id="a" d="M0 .112h23.903V30H0"/></defs><g fill="none" fill-rule="evenodd"><g transform="rotate(-11 12.5 9.807)"><mask id="b" fill="#fff"><use xlink:href="#a"/></mask><path d="M19.144 19.944c-1.114 1.015-2.442 1.804-3.91 2.3l4.483 6.742c.687 1.033 2.098 1.325 3.152.65 1.054-.673 1.35-2.057.663-3.09l-4.39-6.602z" fill="#FFF" mask="url(#b)"/></g><path d="M12.83 19.147c-4.767.926-9.353-2.052-10.247-6.65C1.69 7.897 4.826 3.42 9.59 2.493c4.766-.926 9.353 2.05 10.247 6.65.894 4.598-2.244 9.077-7.008 10.004M9.155.467C3.193 1.626-.744 7.18.362 12.872c1.106 5.692 6.838 9.367 12.8 8.208 5.964-1.16 9.902-6.713 8.796-12.405C20.85 2.982 15.118-.693 9.156.465" fill="#FFF"/></g></svg>