<svg width="258" height="109" viewBox="0 0 258 109" xmlns="http://www.w3.org/2000/svg"><title>logo-scottishfilm</title><g fill="none" fill-rule="evenodd"><path fill="#65C3D5" d="M65.887 60.33L33.23 79.77l7.937 13.598"/><path d="M.08 88.912c.18 1.335.992 2.415 2.022 3.16.725.625 1.837.997 2.974.997.78 0 1.528-.178 2.157-.515l.008-.004.005.01 57.67-34.32-3.048-1.745L26.32 77.728l-2.82 1.6L8.904 88.04l-2.65 1.565-.02.012c-.27.144-.574.22-.88.22-.682 0-1.31-.374-1.64-.973-.147-.27-.227-.572-.23-.876v-.03L3.49 85.3l.008-.008-.015-59.384.023.012-.01-5.48v-.043c.002-.3.08-.602.228-.87.325-.596.95-.966 1.63-.966.303 0 .605.076.833.195l.308.205.017-.014 2.32 1.372 14.83 9.164 2.682 1.62 60.01 36.933 2.69 1.693c.2.128.37.307.49.517.385.687.14 1.49-.583 1.91l-60.8 35.835 1.06.35c.237.077.49.143.75.194.322.064.646.1.962.112.076.003.152.005.226.005.938 0 1.843-.21 2.688-.62.066-.032.154-.064.247-.098.19-.07.386-.142.518-.228l1.6-.916 54.584-32.193.048-.026c1.365-.792 2.186-2.472 2-4.06-.097-1.37-.968-2.662-2.39-3.547l-.16-.09-82.665-50.81-.11-.054h-.003c-.088-.055-.177-.107-.268-.153l-.01-.005c-1.61-.858-3.698-.652-5.08.453-1.378 1-2.138 2.57-2.138 4.415l.007.148.003.04L0 87.755s0 .58.08 1.158" fill="#262927"/><path fill="#262927" d="M25.603 74.792l2.864-1.612-.04-37.28-2.848-1.905.023 40.797M92.613 39.128c-.01-.107-.314-2.675-3.357-4.602-3.348-2.12-53.944-33.293-54.44-33.598C34.758.89 33.395 0 31.51 0c-.603 0-1.198.093-1.77.273L28.687.61 92.72 40.155l-.107-1.028"/><path fill="#5CC1D4" d="M5.027 37.99L5.02 51.86h18.745l.015-14.035M5.053 87.14L23.79 76.035l-.02-21.692H5.02l.033 32.795"/><path fill="#A2D9EA" d="M5.02 58.353l.002-4.01H9.9l-4.88 4.01"/><path fill="#262927" d="M8.845 88.61l.002-.032-.002.032"/><path fill="#2D3030" d="M34.185 43.332v22.46l18.882-11.243L34.185 43.33"/><path fill="#5CC1D4" d="M78.172 56.695l14.65 9.425-.005-4.162L81.92 50.514l-3.748 6.18M76.174 55.278l4.063-6.757L52.18 18.914 42.55 34.54l33.622 20.738M40.28 33.245l9.968-16.178-2.133-2.25-21.378-13.38L7.41 12.58l32.87 20.665"/><path fill="#30A2CF" d="M50.422 17.092l-2.132-2.25 2.55 1.573-.418.677"/><path fill="#97D5EA" d="M88.513 39.74l-6.516 10.75 10.897 11.444.012-19.514-4.393-2.68M80.173 48.554l6.138-10.21-33.438-20.628-.757 1.23 28.058 29.608M48.29 14.843l2.132 2.25.417-.678-2.55-1.572"/><path fill="#65C3D5" d="M26.462 106.904l14.59-8.763L30.998 80.92 7.172 95.154l19.29 11.75"/><path fill="#5CC1D4" d="M59.164 87.384l-6.01-10.297L41.117 93.24l2.117 3.63 15.93-9.486M39.623 95.282l-4.96 6.657 6.565-3.91-1.605-2.748"/><path fill="#65C3D5" d="M5.022 54.344l-.002 4.01 4.88-4.01H5.022"/><path fill="#35A9BE" d="M86.076 71.41l-14.12-8.687 7.297 12.76 6.823-4.073M77.188 76.595L67.133 59.372l-1.295.77-.673.76-24.047 32.282 2.117 3.628 33.953-20.217M39.623 95.282l-4.96 6.657 6.565-3.91-1.605-2.748M5.022 54.344l-.002 4.01 4.88-4.01H5.022"/><path d="M104.468 32.81l1.84-2.54c1.252 1.368 3.286 2.594 5.875 2.594 2.675 0 3.705-1.31 3.705-2.566 0-3.904-10.806-1.477-10.806-8.312 0-3.096 2.673-5.467 6.768-5.467 2.87 0 5.236.947 6.935 2.62l-1.838 2.428c-1.476-1.478-3.453-2.15-5.403-2.15-1.895 0-3.12.95-3.12 2.318 0 3.486 10.807 1.337 10.807 8.256 0 3.097-2.2 5.775-7.185 5.775-3.427 0-5.905-1.228-7.577-2.957M121.442 26.143c0-5.746 4.26-9.624 9.748-9.624 3.732 0 6.073 1.924 7.437 4.156l-2.758 1.45c-.892-1.562-2.703-2.707-4.68-2.707-3.677 0-6.406 2.79-6.406 6.723 0 3.877 2.73 6.72 6.406 6.72 1.977 0 3.788-1.17 4.68-2.703l2.786 1.395c-1.42 2.23-3.734 4.212-7.466 4.212-5.487 0-9.748-3.906-9.748-9.624M156.22 26.143c0-3.85-2.422-6.724-6.155-6.724-3.76 0-6.156 2.874-6.156 6.723 0 3.82 2.396 6.72 6.155 6.72 3.733 0 6.156-2.9 6.156-6.72zm-15.654 0c0-5.55 3.928-9.624 9.5-9.624 5.542 0 9.497 4.072 9.497 9.623 0 5.55-3.955 9.624-9.498 9.624-5.57 0-9.5-4.074-9.5-9.624zM166.274 35.363V19.63h-5.627v-2.872h14.513v2.872h-5.628v15.733h-3.258M182.53 35.363V19.63h-5.627v-2.872h14.512v2.872h-5.627v15.733h-3.26M194.115 16.758h3.26v18.605h-3.26M200.092 32.81l1.837-2.54c1.252 1.368 3.286 2.594 5.877 2.594 2.673 0 3.704-1.31 3.704-2.566 0-3.904-10.806-1.477-10.806-8.312 0-3.096 2.674-5.467 6.77-5.467 2.867 0 5.235.947 6.933 2.62l-1.837 2.428c-1.477-1.478-3.454-2.15-5.404-2.15-1.895 0-3.12.95-3.12 2.318 0 3.486 10.808 1.337 10.808 8.256 0 3.097-2.2 5.775-7.187 5.775-3.426 0-5.905-1.228-7.575-2.957M230.706 35.363v-8.145h-9.665v8.145h-3.258V16.758h3.26v7.587h9.664v-7.587h3.26v18.605h-3.26" fill="#24A8BF"/><path fill="#007990" d="M105.186 62.894V44.29h12.73v2.873h-9.472v4.797h9.276v2.872h-9.276v8.062h-3.258M121.442 44.29h3.26v18.604h-3.26M128.374 62.894V44.29h3.26v15.73h8.188v2.874h-11.448M158.762 62.894V48.53l-5.682 14.364h-1.393l-5.71-14.365v14.364h-3.26V44.29h4.597l5.07 12.774 5.04-12.775h4.597v18.604h-3.258"/><path fill="#2D3030" d="M105.186 90.186V71.58h12.73v2.874h-9.472v4.798h9.276v2.874h-9.276v5.187h9.47v2.873h-12.728M134.49 80.87c0-3.57-2.23-6.416-6.352-6.416h-3.677v12.86h3.65c4.04 0 6.38-2.903 6.38-6.444zM121.2 90.186V71.58h6.908c5.82 0 9.72 3.85 9.72 9.29 0 5.494-3.9 9.316-9.692 9.316h-6.936zM141.044 82.822v-11.24h3.314v11.156c0 2.958 1.644 4.88 4.735 4.88 3.092 0 4.736-1.922 4.736-4.88V71.58h3.313v11.242c0 4.603-2.646 7.7-8.05 7.7-5.375 0-8.05-3.097-8.05-7.7M160.408 80.965c0-5.746 4.262-9.623 9.75-9.623 3.732 0 6.07 1.924 7.436 4.157l-2.757 1.448c-.892-1.562-2.7-2.706-4.68-2.706-3.677 0-6.406 2.79-6.406 6.723 0 3.878 2.73 6.722 6.407 6.722 1.98 0 3.788-1.17 4.68-2.705l2.785 1.395c-1.42 2.23-3.732 4.212-7.465 4.212-5.487 0-9.75-3.907-9.75-9.625M187.43 74.844l-3.343 8.87h6.685l-3.343-8.87zm5.625 15.342l-1.364-3.598h-8.522l-1.365 3.598h-3.705l7.297-18.605h4.067l7.3 18.606h-3.707zM201.415 90.186V74.454h-5.626V71.58h14.51v2.874h-5.627v15.732h-3.258M213 71.58h3.26v18.606H213M235.11 80.965c0-3.85-2.423-6.723-6.156-6.723-3.76 0-6.155 2.874-6.155 6.723 0 3.82 2.394 6.722 6.154 6.722 3.733 0 6.156-2.9 6.156-6.722zm-15.655 0c0-5.55 3.93-9.623 9.5-9.623 5.543 0 9.497 4.072 9.497 9.623 0 5.55-3.954 9.624-9.498 9.624-5.57 0-9.5-4.074-9.5-9.625zM254.4 90.186L244.71 76.88v13.306h-3.26V71.58h3.344l9.5 12.888V71.58h3.257v18.606h-3.15"/><path fill="#35A9BE" d="M23.78 33.14L5.03 21.547l-.01 30.467h7.363l11.39-9.085.007-9.787"/></g></svg>