<svg width="304" height="92" viewBox="0 0 304 92" xmlns="http://www.w3.org/2000/svg"><title>ss-logo</title><g fill="none" fill-rule="evenodd"><path d="M40.48 59.09l22.793-13.162-22.794-13.16v26.32" fill="#FFF"/><path d="M90.973 42.126C88.99 18.802 68.24 3.083 45.56.424c-5.975-.7-11.758 1.182-17.022 3.31v10.313l55.37 32.056 7.065-3.977" fill="#00A3DB"/><path d="M28.672 14.09l-9.12-5.278C7.906 17.022.276 30.565.276 45.865c0 15.01 7.34 28.333 18.617 36.585l9.78-5.507V14.09" fill="#C8412A"/><path d="M28.638 87.835c5.255 2.123 10.99 3.303 16.994 3.303 23.696 0 43.21-18.202 45.32-41.358l-7.03-4.07-55.284 31.127v10.998" fill="#83BF52"/><path d="M90.77 41.855l-7.255 4.085 7.232 4.187c.13-1.41.205-2.835.205-4.278 0-1.348-.072-2.677-.183-3.995" fill="#00A480"/><path d="M28.67 3.855c-3.242 1.31-6.298 2.985-9.12 4.974l9.12 5.278V3.855" fill="#0075B1"/><path d="M19.068 82.215c2.938 2.15 6.15 3.944 9.57 5.327V76.827l-9.57 5.388" fill="#67A039"/><path d="M109.595 36.497l2.35-3.24c1.604 1.745 4.203 3.31 7.516 3.31 3.42 0 4.74-1.673 4.74-3.276 0-4.985-13.82-1.887-13.82-10.613 0-3.954 3.418-6.98 8.654-6.98 3.668 0 6.695 1.21 8.87 3.347l-2.352 3.1c-1.888-1.89-4.417-2.744-6.91-2.744-2.422 0-3.99 1.212-3.99 2.956 0 4.453 13.82 1.71 13.82 10.544 0 3.953-2.814 7.373-9.19 7.373-4.38 0-7.55-1.568-9.687-3.776M131.35 27.984c0-7.337 5.448-12.288 12.465-12.288 4.774 0 7.766 2.458 9.51 5.307l-3.525 1.852c-1.14-1.994-3.455-3.455-5.985-3.455-4.702 0-8.19 3.563-8.19 8.584 0 4.95 3.488 8.584 8.19 8.584 2.53 0 4.845-1.496 5.985-3.455l3.56 1.78c-1.815 2.85-4.77 5.38-9.545 5.38-7.017 0-12.466-4.987-12.466-12.29M170.645 23.655c0-2.28-1.71-3.74-4.06-3.74h-5.736v7.552h5.734c2.35 0 4.06-1.496 4.06-3.812zm-.392 16.35l-5.237-8.87h-4.167v8.87h-4.168V16.246h10.437c4.7 0 7.798 3.027 7.798 7.444 0 4.204-2.777 6.52-5.662 6.982l5.842 9.332h-4.845zM178.987 40.004V16.247h16.278v3.668h-12.11v6.127h11.86v3.668h-11.86v6.626h12.11v3.668h-16.278M199.64 40.004V16.247h16.277v3.668h-12.11v6.127h11.86v3.668h-11.86v6.626h12.11v3.668H199.64M236.853 40.004l-12.394-16.99v16.99h-4.168V16.247h4.275l12.145 16.455V16.247h4.167v23.757h-4.027M245.9 16.247h4.167v23.757H245.9V16.247zM271.55 40.004l-12.395-16.99v16.99h-4.167V16.247h4.275l12.147 16.455V16.247h4.166v23.757h-4.025M279.77 27.984c0-7.48 5.56-12.288 12.47-12.288 4.626 0 7.655 2.208 9.542 4.916l-3.38 1.958c-1.288-1.78-3.532-3.17-6.162-3.17-4.702 0-8.192 3.563-8.192 8.584 0 4.95 3.49 8.584 8.192 8.584 2.417 0 4.557-1.104 5.625-2.137v-3.668h-7.126v-3.668h11.255v8.87c-2.313 2.6-5.66 4.345-9.755 4.345-6.91 0-12.47-4.88-12.47-12.326" fill="#FBD3C8"/><path d="M109.595 72.02l2.35-3.242c1.604 1.746 4.203 3.312 7.516 3.312 3.42 0 4.74-1.674 4.74-3.277 0-4.986-13.82-1.888-13.82-10.613 0-3.954 3.418-6.982 8.654-6.982 3.668 0 6.695 1.21 8.87 3.348l-2.352 3.1c-1.888-1.89-4.417-2.744-6.91-2.744-2.422 0-3.99 1.212-3.99 2.956 0 4.453 13.82 1.71 13.82 10.544 0 3.953-2.814 7.373-9.19 7.373-4.38 0-7.55-1.568-9.687-3.776M148.978 75.526v-10.4h-12.36v10.4h-4.168V51.77h4.167v9.687h12.36V51.77h4.167v23.756h-4.166M177.25 63.506c0-4.915-3.1-8.584-7.87-8.584-4.81 0-7.873 3.67-7.873 8.584 0 4.88 3.063 8.584 7.872 8.584 4.77 0 7.87-3.704 7.87-8.584zm-20.017 0c0-7.088 5.022-12.288 12.146-12.288 7.087 0 12.144 5.2 12.144 12.288 0 7.09-5.057 12.29-12.145 12.29-7.125 0-12.147-5.2-12.147-12.29zM199.283 59.177c0-2.28-1.71-3.74-4.06-3.74h-5.735v7.552h5.734c2.35 0 4.06-1.498 4.06-3.813zm-.392 16.35l-5.236-8.87h-4.166v8.87h-4.168V51.768h10.435c4.702 0 7.8 3.026 7.8 7.443 0 4.203-2.776 6.52-5.662 6.98l5.84 9.333h-4.842zM213.168 75.526V55.438h-7.195v-3.67h18.557v3.67h-7.194v20.088h-4.168M226.35 72.02l2.35-3.242c1.604 1.746 4.203 3.312 7.516 3.312 3.42 0 4.738-1.674 4.738-3.277 0-4.986-13.82-1.888-13.82-10.613 0-3.954 3.42-6.982 8.654-6.982 3.668 0 6.697 1.21 8.87 3.348l-2.35 3.1c-1.89-1.89-4.418-2.744-6.91-2.744-2.422 0-3.99 1.212-3.99 2.956 0 4.453 13.82 1.71 13.82 10.544 0 3.953-2.814 7.373-9.19 7.373-4.38 0-7.55-1.568-9.688-3.776" fill="#FFF"/><path d="M89.42 52.595C86.4 75.453 66.096 92.745 43.722 90.92c-4.225-.344-9.408-1.915-13.157-3.44L89.42 52.596" fill="#5AA741"/><path d="M32.493 3.822c19.63-7.95 42.65.43 51.338 19.13 1.64 3.533 2.736 8.386 3.22 12.073L32.492 3.822" fill="#008FBC"/><path d="M19.35 81.875C.03 66.713-4.813 39.913 8.99 20.387c2.607-3.688 6.856-7.588 10.287-10.2l.072 71.688" fill="#8A2C1E"/><path d="M45.752 3.843c-23.108 0-41.91 18.802-41.91 41.91 0 23.11 18.802 41.91 41.91 41.91 23.11 0 41.912-18.8 41.912-41.91 0-23.108-18.802-41.91-41.912-41.91zm0 87.665C20.524 91.508 0 70.983 0 45.754 0 20.524 20.524 0 45.752 0c25.23 0 45.755 20.525 45.755 45.754 0 25.23-20.526 45.754-45.755 45.754z" fill="#FFF"/></g></svg>