<?xml version="1.0" encoding="utf-8"?>
<!-- Generator: Adobe Illustrator 16.0.4, SVG Export Plug-In . SVG Version: 6.00 Build 0)  -->
<!DOCTYPE svg PUBLIC "-//W3C//DTD SVG 1.1//EN" "http://www.w3.org/Graphics/SVG/1.1/DTD/svg11.dtd">
<svg version="1.1" id="Layer_1" xmlns="http://www.w3.org/2000/svg" xmlns:xlink="http://www.w3.org/1999/xlink" x="0px" y="0px"
	 width="593px" height="348px" viewBox="0 0 593 348" enable-background="new 0 0 593 348" xml:space="preserve">
<title>body-background</title>
<desc>Created with Sketch.</desc>
<g id="Page-1" opacity="0.08">
	<g id="_x31_-MIE-Home" transform="translate(0.000000, -280.000000)">
		<g id="body" transform="translate(-2.000000, 279.000000)">
			<g id="body-background" transform="translate(0.000000, 1.000000)">
				<g id="body-bg">
					<g id="Mask">
						<path id="path-1_1_" fill="none" d="M-88.826-270.785l840.04,4.269v479.633l-840.04,25.087V-270.785z"/>
					</g>
				</g>
			</g>
		</g>
	</g>
</g>
<g id="Page-1_1_" opacity="0.08">
	<g id="_x34_-1366x768" transform="translate(-591.000000, -621.000000)">
		<g id="footer-partner-sfe" transform="translate(591.000000, 621.000000)">
			<path id="Fill-2" fill="#65C3D5" d="M378.069-34.513l-256.784,152.67l62.413,106.761"/>
			<path id="Fill-4" fill="#126472" d="M-139.367,189.904c1.418,10.487,7.803,18.969,15.898,24.818
				c5.7,4.902,14.454,7.836,23.39,7.836c6.141,0,12.008-1.387,16.961-4.032l0.054-0.037l0.041,0.074L370.434-50.917L346.46-64.609
				l-279.493,166.7l-22.188,12.571l-114.758,68.4l-20.828,12.288l-0.171,0.098c-2.118,1.123-4.504,1.737-6.898,1.737
				c-5.377,0-10.312-2.946-12.904-7.656c-1.162-2.107-1.783-4.48-1.802-6.872l-0.019-0.229l0.047-20.867l0.061-0.073l-0.117-466.257
				l0.181,0.099l-0.084-43.034l0.004-0.333c0.017-2.356,0.647-4.73,1.8-6.832c2.558-4.672,7.475-7.581,12.823-7.581
				c2.376,0,4.745,0.584,6.537,1.523l2.422,1.603l0.135-0.104l18.243,10.769l116.606,71.952l21.089,12.718L538.995,25.998
				l21.163,13.296c1.575,1.006,2.897,2.411,3.835,4.051c3.033,5.4,1.116,11.707-4.573,15.004L81.348,339.703l8.347,2.75
				c1.855,0.609,3.836,1.133,5.89,1.527c2.529,0.499,5.069,0.795,7.555,0.875c0.594,0.024,1.198,0.043,1.783,0.043
				c7.375,0,14.488-1.658,21.13-4.881c0.526-0.248,1.219-0.5,1.94-0.772c1.495-0.542,3.035-1.097,4.08-1.78l12.575-7.188
				L573.838,77.508l0.367-0.216c10.735-6.213,17.202-19.395,15.723-31.859c-0.756-10.768-7.604-20.909-18.773-27.85l-1.271-0.715
				L-80.101-382.054l-0.874-0.434h-0.017c-0.686-0.425-1.387-0.831-2.109-1.193l-0.089-0.044
				c-12.648-6.733-29.069-5.111-39.928,3.561c-10.834,7.86-16.812,20.166-16.812,34.658l0.053,1.166l0.027,0.326l-0.144,524.834
				C-139.992,180.82-139.985,185.387-139.367,189.904"/>
			<path id="Fill-6" fill="#126472" d="M61.322,79.055l22.52-12.662l-0.305-292.721L61.132-241.27L61.322,79.055"/>
			<path id="Fill-7" fill="#126472" d="M588.214-200.968c-0.088-0.851-2.47-21.009-26.392-36.137
				c-26.328-16.643-424.163-261.398-428.071-263.802c-0.441-0.296-11.17-7.281-25.988-7.281c-4.741,0-9.415,0.735-13.912,2.146
				l-8.281,2.634l503.484,310.51L588.214-200.968"/>
			<path id="Fill-8" fill="#5CC1D4" d="M-100.461-209.898l-0.059,108.9H46.868l0.121-110.201"/>
			<path id="Fill-9" fill="#5CC1D4" d="M-100.264,175.986L47.075,88.818l-0.17-170.316H-100.52L-100.264,175.986"/>
			<path id="Fill-10" fill="#A2D9EA" d="M-100.52-50.017l0.014-31.481h38.351L-100.52-50.017"/>
			<path id="Fill-11" fill="#262927" d="M-70.447,187.551L-70.447,187.551l0.016-0.254L-70.447,187.551"/>
			<path id="Fill-12" fill="#126472" d="M128.804-167.962V8.367L277.27-79.891L128.804-167.962"/>
			<path id="Fill-13" fill="#5CC1D4" d="M474.662-62.519l114.383,73.481l-0.042-32.456l-85.081-89.22L474.662-62.519"/>
			<path id="Fill-14" fill="#5CC1D4" d="M458.963-74.17l31.945-53.051L270.286-359.696l-75.693,122.69L458.963-74.17"/>
			<path id="Fill-15" fill="#5CC1D4" d="M176.737-247.163l78.36-127.014l-16.768-17.667L70.235-496.912l-151.958,87.506
				L176.737-247.163"/>
			<path id="Fill-17" fill="#97D5EA" d="M503.328-110.43l85.835,89.441l0.975-155.525l-34.54-21.044L503.328-110.43z"/>
			<path id="Fill-18" fill="#97D5EA" d="M490.401-126.969l48.253-80.155L275.729-369.097l-5.942,9.653L490.401-126.969"/>
			<path id="Fill-19" fill="#97D5EA" d="M234.387-394.027l20.741,20.231l3.753-6.113"/>
			<path id="Fill-20" fill="#65C3D5" d="M68.075,331.178l114.723-68.797l-79.063-135.236L-83.604,238.919L68.075,331.178"/>
			<path id="Fill-21" fill="#5CC1D4" d="M325.199,177.914l-47.257-80.846l-94.631,126.84l16.65,28.473L325.199,177.914"/>
			<path id="Fill-22" fill="#5CC1D4" d="M171.56,239.924l-39.001,52.281l51.621-30.693L171.56,239.924"/>
			<path id="Fill-23" fill="#65C3D5" d="M-100.505-81.498l-0.014,31.481l38.365-31.481H-100.505"/>
			<path id="Fill-24" fill="#35A9BE" d="M536.814,52.492l-111.02-68.203l57.37,100.191L536.814,52.492"/>
			<path id="Fill-25" fill="#35A9BE" d="M466.932,93.215L387.867-42.021l-10.18,6.047l-5.301,5.974l-189.076,253.46l16.65,28.474
				L466.932,93.215"/>
			<path id="Fill-26" fill="#35A9BE" d="M171.56,239.924l-39.001,52.281l51.621-30.693L171.56,239.924"/>
			<path id="Fill-27_1_" fill="#35A9BE" d="M-100.505-81.498l-0.014,31.481l38.365-31.481H-100.505"/>
			<path id="Fill-49" fill="#35A9BE" d="M46.989-247.978l-147.423-91.038l-0.085,239.208h57.892l89.551-71.319L46.989-247.978"/>
		</g>
	</g>
</g>
</svg>
