<?xml version="1.0" encoding="UTF-8" standalone="no"?>
<svg width="130px" height="130px" viewBox="0 0 130 130" version="1.1" xmlns="http://www.w3.org/2000/svg" xmlns:xlink="http://www.w3.org/1999/xlink">
    <!-- Generator: Sketch 3.6.1 (26313) - http://www.bohemiancoding.com/sketch -->
    <title>callout-warning</title>
    <desc>Created with Sketch.</desc>
    <defs></defs>
    <g id="Page-1" stroke="none" stroke-width="1" fill="none" fill-rule="evenodd">
        <g id="callout-warning">
            <path d="M80.2470999,76.7177084 L73.7051077,76.7177084 L71.7500295,38.4432943 L82.1645803,38.4432943 L80.2470999,76.7177084 Z M71.2988577,88.7113607 C71.2988577,86.8565337 71.7876223,85.4466357 72.7651663,84.4816244 C73.7427102,83.5166131 75.1338096,83.0341146 76.9385061,83.0341146 C78.7181374,83.0341146 80.0841719,83.5354117 81.0366506,84.5380209 C81.9891294,85.5406301 82.4653616,86.9317294 82.4653616,88.7113607 C82.4653616,90.490992 81.9828631,91.90089 81.0178518,92.9410971 C80.0528405,93.9813041 78.6930722,94.5013998 76.9385061,94.5013998 C75.1588748,94.5013998 73.7740417,94.0001027 72.7839651,92.9974935 C71.7938885,91.9948844 71.2988577,90.5661877 71.2988577,88.7113607 L71.2988577,88.7113607 Z" id="!" fill="#B0580B" transform="translate(79.419951, 66.472347) rotate(15.000000) translate(-79.419951, -66.472347) "></path>
            <polygon id="Triangle-22" stroke="#B0580A" stroke-width="8" transform="translate(76.650255, 58.700508) rotate(15.000000) translate(-76.650255, -58.700508) " points="76.6502551 14.7005077 127.650255 102.700508 25.6502551 102.700508 "></polygon>
        </g>
    </g>
</svg>