<?xml version="1.0" encoding="UTF-8" standalone="no"?>
<svg width="220px" height="93px" viewBox="0 0 220 93" version="1.1" xmlns="http://www.w3.org/2000/svg" xmlns:xlink="http://www.w3.org/1999/xlink">
    <defs></defs>
    <g id="Page-1" stroke="none" stroke-width="1" fill="none" fill-rule="evenodd">
        <g id="4-1366x768" transform="translate(-591.000000, -621.000000)">
            <g id="footer-partner-sfe" transform="translate(591.000000, 621.000000)">
                <path d="M56.1826043,51.3696996 L28.334874,67.9254043 L35.1032437,79.5035813" id="Fill-2" fill="#65C3D5"></path>
                <path d="M0.0677726912,75.7073565 C0.221801535,76.8444317 0.913904472,77.7638127 1.79221117,78.3990962 C2.41038026,78.9303245 3.35919794,79.2472817 4.32855279,79.2472817 C4.99464197,79.2472817 5.63129452,79.0966757 6.16799947,78.8098397 L6.17416062,78.8064169 L6.17826806,78.8132626 L55.3545435,49.5902258 L52.7552212,48.1053878 L22.4443985,66.1842666 L20.0381257,67.5465661 L7.5932797,74.9652798 L5.33419,76.2974582 L5.31570653,76.3077267 C5.08569013,76.4302652 4.82692167,76.4952996 4.56746864,76.4952996 C3.98489733,76.4952996 3.44887695,76.1769734 3.16820217,75.6669668 C3.0422408,75.4376349 2.97446811,75.1802356 2.97241439,74.9207826 L2.97104525,74.8954534 L2.97583726,72.6329408 L2.98268298,72.6254105 L2.9696761,22.0601372 L2.98952871,22.0704058 L2.97994469,17.4043587 L2.98062927,17.3680763 C2.98268298,17.1120462 3.05045568,16.8553314 3.17573247,16.6273687 C3.45298439,16.1194158 3.98626647,15.8045124 4.5660995,15.8045124 C4.82418338,15.8045124 5.08089812,15.8681777 5.27531675,15.9694944 L5.53819264,16.1440604 L5.55256867,16.1324227 L7.53166816,17.3003036 L20.1764094,25.1037471 L22.4635665,26.4824764 L73.6346867,57.9310588 L75.9293742,59.3727688 C76.1005173,59.4816159 76.2442776,59.6342756 76.3455943,59.812949 C76.6748738,60.3982586 76.4667637,61.0828313 75.8492792,61.4394936 L24.003855,91.9522652 L24.90886,92.2500543 C25.1101244,92.3164579 25.3257647,92.3725928 25.5475663,92.4157209 C25.8220799,92.4698022 26.0979627,92.5012925 26.3676843,92.5108765 C26.4320341,92.5136148 26.4970685,92.5156685 26.5607338,92.5156685 C27.3603146,92.5156685 28.131828,92.3363105 28.8519984,91.9864939 C28.9088179,91.959111 28.9841209,91.9317281 29.0628468,91.902976 C29.2244059,91.8441028 29.3921262,91.7824912 29.5050807,91.7085574 L30.8687494,90.9288291 L77.4128431,63.5171716 L77.4532328,63.4945807 C78.6176909,62.8209612 79.3180087,61.390889 79.1585033,60.0381734 C79.0763546,58.8716617 78.3335933,57.7715534 77.1218997,57.0185235 L76.9843006,56.9418514 L6.49522519,13.6782298 L6.40006959,13.6316789 L6.39870045,13.6316789 C6.32408203,13.5858125 6.24809447,13.5413153 6.17005319,13.5022946 L6.16046917,13.4975026 C4.7885856,12.7670636 3.00801217,12.9429988 1.82986266,13.8836016 C0.655136015,14.7358945 0.00684572638,16.0708112 0.00684572638,17.6425899 L0.0130068801,17.7685513 L0.0157451707,17.8041491 L0,74.7215719 C0,74.7215719 0.000684572638,75.216518 0.0677726912,75.7073565" id="Fill-4" fill="#FFFFFF"></path>
                <path d="M21.8322747,63.6850566 L24.2741453,62.3118039 L24.2412858,30.5674861 L21.8117375,28.946418 L21.8322747,63.6850566" id="Fill-6" fill="#FFFFFF"></path>
                <path d="M78.9722272,33.3174657 C78.9626432,33.225733 78.7045593,31.039208 76.110029,29.3982874 C73.2546765,27.5937539 30.1108551,1.05013443 29.6871047,0.789996824 C29.6391846,0.75782191 28.4760957,0 26.8687191,0 C26.3546051,0 25.8473367,0.079410426 25.359921,0.232754697 L24.4617617,0.518221487 L79.0632753,34.1923496 L78.9722272,33.3174657" id="Fill-7" fill="#FFFFFF"></path>
                <path d="M4.28696946,32.3490082 L4.2808083,44.1592554 L20.2648948,44.1592554 L20.2779017,32.2079863" id="Fill-8" fill="#5CC1D4"></path>
                <path d="M4.30887578,74.1979018 L20.2868012,64.7439536 L20.2683177,46.2734993 L4.2808083,46.2734993 L4.30887578,74.1979018" id="Fill-9" fill="#5CC1D4"></path>
                <path d="M4.2808083,49.687463 L4.28217745,46.2734993 L8.4416408,46.2734993 L4.2808083,49.687463" id="Fill-10" fill="#A2D9EA"></path>
                <path d="M7.54237653,75.4504637 L7.54237653,75.4504637 L7.54374568,75.4237653 L7.54237653,75.4504637" id="Fill-11" fill="#262927"></path>
                <path d="M29.1502661,36.8964906 L29.1502661,56.0200273 L45.2507299,46.4483326 L29.1502661,36.8964906" id="Fill-12" fill="#FFFFFF"></path>
                <path d="M66.6583007,48.3318249 L79.0625,56.3008551 L79.057742,52.7819478 L69.8312309,43.1061421 L66.6583007,48.3318249" id="Fill-13" fill="#5CC1D4"></path>
                <path d="M64.9548486,47.0685827 L68.4194708,41.3154343 L44.4936571,16.1039931 L36.2849466,29.4093469 L64.9548486,47.0685827" id="Fill-14" fill="#5CC1D4"></path>
                <path d="M34.3484305,28.3075199 L42.8467153,14.5325493 L41.0284903,12.6171151 L22.7990056,1.22308809 L6.31928845,10.712634 L34.3484305,28.3075199" id="Fill-15" fill="#5CC1D4"></path>
                <path d="M69.7662964,43.1363134 L79.0755615,52.8360596 L79.1810219,35.9691806 L75.4350405,33.6875 L69.7662964,43.1363134 Z" id="Fill-17" fill="#97D5EA"></path>
                <path d="M68.3646808,41.3429057 L73.5982387,32.6495178 L45.0844191,15.0847531 L44.4388671,16.1314646 L68.3646808,41.3429057" id="Fill-18" fill="#97D5EA"></path>
                <path d="M40.6008301,12.3806763 L42.8493652,14.5748291 L43.256958,13.9110718" id="Fill-19" fill="#97D5EA"></path>
                <path d="M22.5643518,91.0280703 L35.0057749,83.5662285 L26.4321872,68.9006289 L6.11544043,81.0223566 L22.5643518,91.0280703" id="Fill-20" fill="#65C3D5"></path>
                <path d="M50.4496822,74.4063824 L45.3242869,65.6390606 L35.0618585,79.3941787 L36.8670765,82.4829704 L50.4496822,74.4063824" id="Fill-21" fill="#5CC1D4"></path>
                <path d="M33.7872518,81.1315097 L29.5579621,86.8004558 L35.1557126,83.4720636 L33.7872518,81.1315097" id="Fill-22" fill="#5CC1D4"></path>
                <path d="M4.28217745,46.2734993 L4.2808083,49.687463 L8.4416408,46.2734993 L4.28217745,46.2734993" id="Fill-23" fill="#65C3D5"></path>
                <path d="M73.3978313,60.8049871 L61.3582523,53.4081798 L67.580333,64.2737167 L73.3978313,60.8049871" id="Fill-24" fill="#35A9BE"></path>
                <path d="M65.8190225,65.2199072 L57.2454348,50.5543076 L56.1412192,51.2114973 L55.5668627,51.8584185 L35.0618585,79.345379 L36.8670765,82.4341708 L65.8190225,65.2199072" id="Fill-25" fill="#35A9BE"></path>
                <path d="M33.7872518,81.1315097 L29.5579621,86.8004558 L35.1557126,83.4720636 L33.7872518,81.1315097" id="Fill-26" fill="#35A9BE"></path>
                <path d="M4.28217745,46.2734993 L4.2808083,49.687463 L8.4416408,46.2734993 L4.28217745,46.2734993" id="Fill-27" fill="#35A9BE"></path>
                <path d="M89.0815823,27.9370084 L90.6492536,25.7758125 C91.7178715,26.939586 93.451894,27.9835593 95.6603254,27.9835593 C97.9406368,27.9835593 98.8196281,26.8683905 98.8196281,25.7984034 C98.8196281,22.4741187 89.6045958,24.5408435 89.6045958,18.7206069 C89.6045958,16.0850023 91.8842227,14.065513 95.3755431,14.065513 C97.8222057,14.065513 99.8410105,14.8733087 101.289566,16.2985889 L99.7225794,18.3653137 C98.4636503,17.1063847 96.7775479,16.5354511 95.114721,16.5354511 C93.4991295,16.5354511 92.4544717,17.3432468 92.4544717,18.5077048 C92.4544717,21.4766964 101.669504,19.6468337 101.669504,25.5382658 C101.669504,28.1745551 99.7937749,30.4548665 95.5418943,30.4548665 C92.6201383,30.4548665 90.5068625,29.4095241 89.0815823,27.9370084" id="Fill-28" fill="#97D4EA"></path>
                <path d="M103.554791,22.260532 C103.554791,17.3678914 107.188503,14.065513 111.867557,14.065513 C115.050135,14.065513 117.045664,15.7050645 118.208753,17.6054381 L115.857246,18.8404071 C115.097371,17.5102825 113.553659,16.5354511 111.867557,16.5354511 C108.732214,16.5354511 106.404667,18.9116027 106.404667,22.260532 C106.404667,25.5615413 108.732214,27.9835593 111.867557,27.9835593 C113.553659,27.9835593 115.097371,26.986137 115.857246,25.6806569 L118.233398,26.8683905 C117.021704,28.767395 115.050135,30.4548665 111.867557,30.4548665 C107.188503,30.4548665 103.554791,27.1292126 103.554791,22.260532" id="Fill-29" fill="#97D4EA"></path>
                <path d="M133.211799,22.260532 C133.211799,18.9827983 131.145759,16.5354511 127.962496,16.5354511 C124.756642,16.5354511 122.713193,18.9827983 122.713193,22.260532 C122.713193,25.5143058 124.756642,27.9835593 127.962496,27.9835593 C131.145759,27.9835593 133.211799,25.5143058 133.211799,22.260532 L133.211799,22.260532 Z M119.862632,22.260532 C119.862632,17.533558 123.212246,14.065513 127.962496,14.065513 C132.688785,14.065513 136.061675,17.533558 136.061675,22.260532 C136.061675,26.986137 132.688785,30.4548665 127.962496,30.4548665 C123.212246,30.4548665 119.862632,26.986137 119.862632,22.260532 L119.862632,22.260532 Z" id="Fill-30" fill="#97D4EA"></path>
                <path d="M141.784035,30.1110564 L141.784035,16.7146545 L136.985866,16.7146545 L136.985866,14.269361 L149.360885,14.269361 L149.360885,16.7146545 L144.562031,16.7146545 L144.562031,30.1110564 L141.784035,30.1110564" id="Fill-31" fill="#97D4EA"></path>
                <path d="M155.645016,30.1110564 L155.645016,16.7146545 L150.847531,16.7146545 L150.847531,14.269361 L163.221866,14.269361 L163.221866,16.7146545 L158.423696,16.7146545 L158.423696,30.1110564 L155.645016,30.1110564" id="Fill-32" fill="#97D4EA"></path>
                <path d="M165.524588,14.269361 L168.303953,14.269361 L168.303953,30.1110564 L165.524588,30.1110564 L165.524588,14.269361 Z" id="Fill-33" fill="#97D4EA"></path>
                <path d="M170.620788,27.9370084 L172.187775,25.7758125 C173.256393,26.939586 174.990415,27.9835593 177.199531,27.9835593 C179.479158,27.9835593 180.358149,26.8683905 180.358149,25.7984034 C180.358149,22.4741187 171.143117,24.5408435 171.143117,18.7206069 C171.143117,16.0850023 173.422744,14.065513 176.914749,14.065513 C179.360727,14.065513 181.379532,14.8733087 182.828087,16.2985889 L181.261101,18.3653137 C180.001487,17.1063847 178.316069,16.5354511 176.653242,16.5354511 C175.037651,16.5354511 173.992993,17.3432468 173.992993,18.5077048 C173.992993,21.4766964 183.20871,19.6468337 183.20871,25.5382658 C183.20871,28.1745551 181.332296,30.4548665 177.080415,30.4548665 C174.159344,30.4548665 172.044699,29.4095241 170.620788,27.9370084" id="Fill-34" fill="#97D4EA"></path>
                <path d="M196.725791,30.1110564 L196.725791,23.175651 L188.484221,23.175651 L188.484221,30.1110564 L185.705541,30.1110564 L185.705541,14.269361 L188.484221,14.269361 L188.484221,20.729673 L196.725791,20.729673 L196.725791,14.269361 L199.505156,14.269361 L199.505156,30.1110564 L196.725791,30.1110564" id="Fill-35" fill="#97D4EA"></path>
                <path d="M89.6931263,53.5535781 L89.6931263,37.7118827 L100.54771,37.7118827 L100.54771,40.1585453 L92.4718067,40.1585453 L92.4718067,44.2433902 L100.381359,44.2433902 L100.381359,46.6893682 L92.4718067,46.6893682 L92.4718067,53.5535781 L89.6931263,53.5535781" id="Fill-36" fill="#5CC1D4"></path>
                <path d="M103.554791,37.7118827 L106.334156,37.7118827 L106.334156,53.5535781 L103.554791,53.5535781 L103.554791,37.7118827 Z" id="Fill-37" fill="#5CC1D4"></path>
                <path d="M109.466384,53.5535781 L109.466384,37.7118827 L112.245064,37.7118827 L112.245064,51.1076 L119.22839,51.1076 L119.22839,53.5535781 L109.466384,53.5535781" id="Fill-38" fill="#5CC1D4"></path>
                <path d="M135.378449,53.5535781 L135.378449,41.3216342 L130.533044,53.5535781 L129.34531,53.5535781 L124.475945,41.3216342 L124.475945,53.5535781 L121.697265,53.5535781 L121.697265,37.7118827 L125.616443,37.7118827 L129.939519,48.5897419 L134.237951,37.7118827 L138.157129,37.7118827 L138.157129,53.5535781 L135.378449,53.5535781" id="Fill-39" fill="#5CC1D4"></path>
                <path d="M89.6931263,76.7922517 L89.6931263,60.9505563 L100.54771,60.9505563 L100.54771,63.3965343 L92.4718067,63.3965343 L92.4718067,67.4820638 L100.381359,67.4820638 L100.381359,69.929411 L92.4718067,69.929411 L92.4718067,74.3462737 L100.54771,74.3462737 L100.54771,76.7922517 L89.6931263,76.7922517" id="Fill-40" fill="#FFFFFF"></path>
                <path d="M114.68062,68.8601086 C114.68062,65.8199215 112.780247,63.3965343 109.264966,63.3965343 L106.129624,63.3965343 L106.129624,74.3462737 L109.241006,74.3462737 C112.685091,74.3462737 114.68062,71.8749665 114.68062,68.8601086 L114.68062,68.8601086 Z M103.350943,76.7922517 L103.350943,60.9505563 L109.241006,60.9505563 C114.204842,60.9505563 117.530496,64.2289747 117.530496,68.8601086 C117.530496,73.538478 114.204842,76.7922517 109.264966,76.7922517 L103.350943,76.7922517 L103.350943,76.7922517 Z" id="Fill-41" fill="#FFFFFF"></path>
                <path d="M120.270329,70.5222509 L120.270329,60.9505563 L123.096244,60.9505563 L123.096244,70.4510554 C123.096244,72.9695981 124.497565,74.6070959 127.133854,74.6070959 C129.770143,74.6070959 131.172148,72.9695981 131.172148,70.4510554 L131.172148,60.9505563 L133.998064,60.9505563 L133.998064,70.5222509 C133.998064,74.4414293 131.741712,77.0777185 127.133854,77.0777185 C122.549955,77.0777185 120.270329,74.4414293 120.270329,70.5222509" id="Fill-42" fill="#FFFFFF"></path>
                <path d="M136.782018,68.9410428 C136.782018,64.0484021 140.416414,60.7467083 145.095468,60.7467083 C148.278046,60.7467083 150.272891,62.3855752 151.436664,64.2866334 L149.085842,65.5209179 C148.325281,64.1901087 146.782255,63.2166464 145.095468,63.2166464 C141.959441,63.2166464 139.632578,65.5921134 139.632578,68.9410428 C139.632578,72.2427366 141.959441,74.6647546 145.095468,74.6647546 C146.782255,74.6647546 148.325281,73.6673323 149.085842,72.3611677 L151.460624,73.5489012 C150.248931,75.4492748 148.278046,77.1353773 145.095468,77.1353773 C140.416414,77.1353773 136.782018,73.8097234 136.782018,68.9410428" id="Fill-43" fill="#FFFFFF"></path>
                <path d="M159.823559,63.7292366 L156.972998,71.2821266 L162.673434,71.2821266 L159.823559,63.7292366 L159.823559,63.7292366 Z M164.620359,76.7922517 L163.45727,73.7287892 L156.189847,73.7287892 L155.025389,76.7922517 L151.866771,76.7922517 L158.088851,60.9505563 L161.556896,60.9505563 L167.780346,76.7922517 L164.620359,76.7922517 L164.620359,76.7922517 Z" id="Fill-44" fill="#FFFFFF"></path>
                <path d="M171.749009,76.7922517 L171.749009,63.3965343 L166.951524,63.3965343 L166.951524,60.9505563 L179.325859,60.9505563 L179.325859,63.3965343 L174.527689,63.3965343 L174.527689,76.7922517 L171.749009,76.7922517" id="Fill-45" fill="#FFFFFF"></path>
                <path d="M181.628581,60.9505563 L184.407261,60.9505563 L184.407261,76.7922517 L181.628581,76.7922517 L181.628581,60.9505563 Z" id="Fill-46" fill="#FFFFFF"></path>
                <path d="M200.481644,68.9410428 C200.481644,65.663309 198.415603,63.2166464 195.232341,63.2166464 C192.025802,63.2166464 189.983722,65.663309 189.983722,68.9410428 C189.983722,72.1948165 192.025802,74.6647546 195.232341,74.6647546 C198.415603,74.6647546 200.481644,72.1948165 200.481644,68.9410428 L200.481644,68.9410428 Z M187.132477,68.9410428 C187.132477,64.2147533 190.482091,60.7467083 195.232341,60.7467083 C199.959315,60.7467083 203.33152,64.2147533 203.33152,68.9410428 C203.33152,73.6673323 199.959315,77.1353773 195.232341,77.1353773 C190.482091,77.1353773 187.132477,73.6673323 187.132477,68.9410428 L187.132477,68.9410428 Z" id="Fill-47" fill="#FFFFFF"></path>
                <path d="M216.93139,76.7922517 L208.665859,65.4632591 L208.665859,76.7922517 L205.886495,76.7922517 L205.886495,60.9505563 L208.737055,60.9505563 L216.836918,71.9235711 L216.836918,60.9505563 L219.615599,60.9505563 L219.615599,76.7922517 L216.93139,76.7922517" id="Fill-48" fill="#FFFFFF"></path>
                <path d="M20.2779017,28.2192279 L4.29039232,18.3463213 L4.2808083,44.2882014 L10.559024,44.2882014 L20.2703714,36.5532152 L20.2779017,28.2192279" id="Fill-49" fill="#35A9BE"></path>
            </g>
        </g>
    </g>
</svg>