<?xml version="1.0" encoding="UTF-8" standalone="no"?>
<svg width="182px" height="75px" viewBox="0 0 182 75" version="1.1" xmlns="http://www.w3.org/2000/svg" xmlns:xlink="http://www.w3.org/1999/xlink">
    <defs>
        <path id="path-1" d="M0,0.176262418 L180.544697,0.176262418 L180.544697,73.7183302 L0,73.7183302 L0,0.176262418 Z"></path>
        <path id="path-3" d="M0,0.176262418 L180.544697,0.176262418 L180.544697,73.7183302 L0,73.7183302 L0,0.176262418 Z"></path>
    </defs>
    <g id="Page-1" stroke="none" stroke-width="1" fill="none" fill-rule="evenodd">
        <g id="3-1366x768" transform="translate(-136.000000, -533.000000)">
            <g id="footer-partner-es" transform="translate(136.533343, 533.622007)">
                <g id="Group-3">
                    <mask id="mask-2"  fill="white">
                        <use xlink:href="#path-1"></use>
                    </mask>
                    <g id="Clip-2"></g>
                    <path d="M36.1925813,35.4539803 C30.8910047,35.4539803 25.4670368,33.9361388 22.3585805,31.5275341 L26.2590363,25.7685259 C28.4531017,27.4437277 33.145557,29.1718554 36.6188245,29.1718554 C39.4224838,29.1718554 40.5802396,28.490906 40.5802396,27.3917468 C40.5802396,24.2502118 23.4558495,27.4966536 23.4558495,17.2351566 C23.4558495,12.7846487 27.9654266,8.91065591 36.0706625,8.91065591 C41.0679147,8.91065591 45.2117355,10.2716097 48.3811511,12.2610595 L44.7854923,17.9680869 C43.0181426,16.5022263 39.6667939,15.1932534 36.1316219,15.1932534 C33.938029,15.1932534 32.4750037,15.9261837 32.4750037,16.9209086 C32.4750037,19.6957421 49.5384344,16.8160017 49.5384344,27.1824056 C49.5384344,31.9986699 44.6026141,35.4539803 36.1925813,35.4539803 L36.1925813,35.4539803 Z M71.4516806,38.3880644 C71.4516806,15.0916544 56.6782437,0.175978886 36.3650633,0.175978886 C14.915392,0.175978886 0.00018902136,16.2276727 0.00018902136,36.1150825 C0.00018902136,58.4172402 16.1936489,73.7185193 37.3593156,73.7185193 C47.8707934,73.7185193 59.2352301,68.7056728 66.0532306,62.5974476 L56.5360051,47.2356817 C52.5585232,50.929159 44.6035592,53.0599023 39.7740635,53.0599023 C29.8305949,53.0599023 24.1486128,49.4680239 22.5858787,43.3597987 L71.4516806,43.3597987 L71.4516806,38.3880644 Z" id="Fill-1" fill="#FFFFFF" mask="url(#mask-2)"></path>
                </g>
                <path d="M83.3740611,23.9786354 L83.3740611,6.3278208 L93.0595156,6.3278208 L93.0595156,8.89473086 L86.28499,8.89473086 L86.28499,13.6845321 L92.8742746,13.6845321 L92.8742746,16.2514422 L86.28499,16.2514422 L86.28499,21.4117253 L93.0595156,21.4117253 L93.0595156,23.9786354 L83.3740611,23.9786354 Z" id="Fill-4" fill="#FFFFFF"></path>
                <path d="M102.586334,20.2207962 L102.586334,14.9546611 C102.13599,14.0019935 101.103934,13.2081038 100.07235,13.2081038 C98.2199404,13.2081038 97.3197262,15.1134391 97.3197262,17.6009602 C97.3197262,20.0620183 98.2199404,21.9673536 100.07235,21.9673536 C101.103934,21.9673536 102.13599,21.1734639 102.586334,20.2207962 L102.586334,20.2207962 Z M102.586334,23.9785408 L102.586334,22.2849095 C101.818435,23.555133 100.574674,24.2960967 99.2784601,24.2960967 C96.3939941,24.2960967 94.5945108,21.7291867 94.5945108,17.6009602 C94.5945108,13.5521227 96.3939941,10.8793606 99.2784601,10.8793606 C100.548684,10.8793606 101.818435,11.5409354 102.586334,12.9170109 L102.586334,6.32772629 L105.205697,6.32772629 L105.205697,23.9785408 L102.586334,23.9785408 Z" id="Fill-6" fill="#FFFFFF"></path>
                <path d="M114.891152,23.9786354 L114.891152,22.311467 C114.176651,23.3435236 112.774113,24.2961912 111.15987,24.2961912 C108.85759,24.2961912 107.79907,23.0788937 107.79907,20.8560025 L107.79907,11.197011 L110.418434,11.197011 L110.418434,19.9297978 C110.418434,21.4381883 111.13388,21.9674481 112.270843,21.9674481 C113.408752,21.9674481 114.388355,21.1206324 114.891152,20.2473537 L114.891152,11.197011 L117.510515,11.197011 L117.510515,23.9786354 L114.891152,23.9786354 Z" id="Fill-8" fill="#FFFFFF"></path>
                <path d="M119.495807,17.5746862 C119.495807,13.7375526 121.692235,10.8795496 125.105488,10.8795496 C127.011296,10.8795496 128.254584,11.6469764 129.022483,12.599644 L127.698861,14.3991274 C127.064222,13.5787747 126.322786,13.2082928 125.397053,13.2082928 C123.385866,13.2082928 122.221495,15.1400911 122.221495,17.5746862 C122.221495,20.0092813 123.385866,21.9675426 125.397053,21.9675426 C126.322786,21.9675426 127.064222,21.5705977 127.698861,20.776708 L129.022483,22.5761914 C128.254584,23.555322 127.011296,24.2962858 125.105488,24.2962858 C121.692235,24.2962858 119.495807,21.4382828 119.495807,17.5746862" id="Fill-10" fill="#FFFFFF"></path>
                <path d="M137.808149,21.1470009 L137.808149,19.0564246 C137.305352,18.103757 136.352684,17.7068121 135.373554,17.7068121 C134.022996,17.7068121 133.15019,18.7124058 133.15019,20.0884813 C133.15019,21.4645568 134.022996,22.4701504 135.373554,22.4701504 C136.352684,22.4701504 137.305352,22.0732055 137.808149,21.1470009 L137.808149,21.1470009 Z M137.808149,23.9785408 L137.808149,22.6289283 C137.040249,23.7403739 135.743563,24.2960967 134.420886,24.2960967 C132.383236,24.2960967 130.503891,22.7612433 130.503891,20.0620183 C130.503891,17.2834043 132.383236,15.8808658 134.420886,15.8808658 C135.743563,15.8808658 137.067185,16.3836626 137.808149,17.4686452 L137.808149,15.5633099 C137.808149,14.028929 136.908407,13.1287148 135.319683,13.1287148 C134.181774,13.1287148 133.124199,13.5785856 132.118133,14.6106423 L131.086077,12.7582329 C132.383236,11.4350834 134.12932,10.8793606 135.796016,10.8793606 C138.468778,10.8793606 140.454448,12.1231212 140.454448,15.219291 L140.454448,23.9785408 L137.808149,23.9785408 Z" id="Fill-12" fill="#FFFFFF"></path>
                <path d="M144.052895,21.1206797 L144.052895,13.4993384 L142.386199,13.4993384 L142.386199,11.1970583 L144.052895,11.1970583 L144.052895,7.70394355 L146.672258,7.70394355 L146.672258,11.1970583 L148.789297,11.1970583 L148.789297,13.4993384 L146.672258,13.4993384 L146.672258,20.5649569 C146.672258,21.4382355 146.990759,21.9674953 147.651389,21.9674953 C148.075269,21.9674953 148.472214,21.7822544 148.657455,21.5440875 L149.292567,23.5552748 C148.816233,23.9786826 148.075269,24.2962385 146.990759,24.2962385 C144.978627,24.2962385 144.052895,23.2112559 144.052895,21.1206797" id="Fill-14" fill="#FFFFFF"></path>
                <mask id="mask-4"  fill="white">
                    <use xlink:href="#path-3"></use>
                </mask>
                <g id="Clip-17"></g>
                <path d="M152.097455,11.1971528 L154.717763,11.1971528 L154.717763,23.9787771 L152.097455,23.9787771 L152.097455,11.1971528 Z M151.753908,7.94220498 C151.753908,7.01600031 152.520862,6.30149958 153.421077,6.30149958 C154.320818,6.30149958 155.061782,7.01600031 155.061782,7.94220498 C155.061782,8.84194665 154.320818,9.58291038 153.421077,9.58291038 C152.520862,9.58291038 151.753908,8.84194665 151.753908,7.94220498 L151.753908,7.94220498 Z" id="Fill-16" fill="#FFFFFF" mask="url(#mask-4)"></path>
                <path d="M166.096755,17.5746862 C166.096755,15.272406 165.249466,13.2082928 163.291205,13.2082928 C161.333416,13.2082928 160.459193,15.272406 160.459193,17.5746862 C160.459193,19.9034294 161.333416,21.9675426 163.291205,21.9675426 C165.249466,21.9675426 166.096755,19.9034294 166.096755,17.5746862 M157.733977,17.5746862 C157.733977,13.9757195 159.665775,10.8795496 163.291205,10.8795496 C166.916162,10.8795496 168.84796,13.9757195 168.84796,17.5746862 C168.84796,21.1736529 166.916162,24.2962858 163.291205,24.2962858 C159.665775,24.2962858 157.733977,21.1736529 157.733977,17.5746862" id="Fill-18" fill="#FFFFFF" mask="url(#mask-4)"></path>
                <path d="M177.898587,23.9786354 L177.898587,15.2723115 C177.898587,13.7639211 177.210076,13.2081983 176.073113,13.2081983 C174.935204,13.2081983 173.929138,14.10794 173.425869,14.9812186 L173.425869,23.9786354 L170.806505,23.9786354 L170.806505,11.197011 L173.425869,11.197011 L173.425869,12.9171054 C174.141315,11.8850488 175.595834,10.8794551 177.184086,10.8794551 C179.485894,10.8794551 180.544886,12.1496787 180.544886,14.3725699 L180.544886,23.9786354 L177.898587,23.9786354 Z" id="Fill-19" fill="#FFFFFF" mask="url(#mask-4)"></path>
                <path d="M82.2628045,43.3117873 L83.7452045,41.0359701 C84.6973996,42.1209527 86.2057901,42.9677684 87.9523474,42.9677684 C89.8312198,42.9677684 90.7309614,41.8563228 90.7309614,40.5860993 C90.7309614,36.9606696 82.7920643,38.0985782 82.7920643,32.2502573 C82.7920643,29.4981063 84.9620295,27.3016781 88.2963663,27.3016781 C90.38647,27.3016781 92.1339725,27.9897159 93.3772605,29.2334764 L91.974722,31.4563676 C90.9426654,30.397848 89.6195158,29.9215142 88.2169774,29.9215142 C86.7879759,29.9215142 85.7823822,30.7683298 85.7823822,32.0650164 C85.7823822,35.2670382 93.7212793,34.4466855 93.7212793,40.3743953 C93.7212793,43.2323983 91.789481,45.5611415 87.9788104,45.5611415 C85.4643538,45.5611415 83.5864266,44.6878628 82.2628045,43.3117873" id="Fill-20" fill="#FFFFFF" mask="url(#mask-4)"></path>
                <path d="M95.5206209,38.8395892 C95.5206209,35.0024556 97.7165766,32.1444526 101.130775,32.1444526 C103.035638,32.1444526 104.279871,32.9118793 105.047297,33.864547 L103.724148,35.6640303 C103.089509,34.8436776 102.348072,34.4731958 101.421395,34.4731958 C99.4102079,34.4731958 98.2467815,36.404994 98.2467815,38.8395892 C98.2467815,41.2741843 99.4102079,43.2324456 101.421395,43.2324456 C102.348072,43.2324456 103.089509,42.8355007 103.724148,42.041611 L105.047297,43.8410943 C104.279871,44.820225 103.035638,45.5611887 101.130775,45.5611887 C97.7165766,45.5611887 95.5206209,42.7031857 95.5206209,38.8395892" id="Fill-21" fill="#FFFFFF" mask="url(#mask-4)"></path>
                <path d="M114.917946,38.8395892 C114.917946,36.537309 114.070657,34.4731958 112.112869,34.4731958 C110.154607,34.4731958 109.281329,36.537309 109.281329,38.8395892 C109.281329,41.1683323 110.154607,43.2324456 112.112869,43.2324456 C114.070657,43.2324456 114.917946,41.1683323 114.917946,38.8395892 M106.555641,38.8395892 C106.555641,35.2406225 108.487911,32.1444526 112.112869,32.1444526 C115.738298,32.1444526 117.670097,35.2406225 117.670097,38.8395892 C117.670097,42.4385558 115.738298,45.5611887 112.112869,45.5611887 C108.487911,45.5611887 106.555641,42.4385558 106.555641,38.8395892" id="Fill-22" fill="#FFFFFF" mask="url(#mask-4)"></path>
                <path d="M121.162644,42.3855826 L121.162644,34.7642414 L119.495948,34.7642414 L119.495948,32.4619612 L121.162644,32.4619612 L121.162644,28.9688465 L123.782953,28.9688465 L123.782953,32.4619612 L125.899992,32.4619612 L125.899992,34.7642414 L123.782953,34.7642414 L123.782953,41.8298598 C123.782953,42.7031385 124.100509,43.2323983 124.762083,43.2323983 C125.185964,43.2323983 125.582909,43.0471574 125.767205,42.8089905 L126.403261,44.8201777 C125.925983,45.2435856 125.185964,45.5611415 124.100509,45.5611415 C122.089321,45.5611415 121.162644,44.4761588 121.162644,42.3855826" id="Fill-23" fill="#FFFFFF" mask="url(#mask-4)"></path>
                <path d="M129.7367,27.5928655 L132.357009,27.5928655 L132.357009,45.2436801 L129.7367,45.2436801 L129.7367,27.5928655 Z" id="Fill-24" fill="#FFFFFF" mask="url(#mask-4)"></path>
                <path d="M142.122041,42.4119038 L142.122041,40.3213276 C141.619245,39.3686599 140.666577,38.9717151 139.687446,38.9717151 C138.336889,38.9717151 137.464083,39.9773087 137.464083,41.3533842 C137.464083,42.7294597 138.336889,43.7350534 139.687446,43.7350534 C140.666577,43.7350534 141.619245,43.3381085 142.122041,42.4119038 L142.122041,42.4119038 Z M142.122041,45.2434438 L142.122041,43.8938313 C141.354142,45.0052769 140.057456,45.5609997 138.734779,45.5609997 C136.697128,45.5609997 134.817784,44.0261462 134.817784,41.3269212 C134.817784,38.5483072 136.697128,37.1457688 138.734779,37.1457688 C140.057456,37.1457688 141.381078,37.6485656 142.122041,38.7335482 L142.122041,36.8282129 C142.122041,35.293832 141.2223,34.3936178 139.633575,34.3936178 C138.495667,34.3936178 137.438092,34.8434886 136.432026,35.8755452 L135.399969,34.0231359 C136.697128,32.6999864 138.443213,32.1442636 140.109909,32.1442636 C142.782671,32.1442636 144.76834,33.3880241 144.76834,36.484194 L144.76834,45.2434438 L142.122041,45.2434438 Z" id="Fill-25" fill="#FFFFFF" mask="url(#mask-4)"></path>
                <path d="M154.452755,45.2435383 L154.452755,36.5372145 C154.452755,35.028824 153.76519,34.4731012 152.627282,34.4731012 C151.489373,34.4731012 150.484252,35.3728429 149.980982,36.2461216 L149.980982,45.2435383 L147.360674,45.2435383 L147.360674,32.461914 L149.980982,32.461914 L149.980982,34.1820083 C150.695483,33.1499517 152.150948,32.1443581 153.738255,32.1443581 C156.041007,32.1443581 157.099999,33.4145816 157.099999,35.6374728 L157.099999,45.2435383 L154.452755,45.2435383 Z" id="Fill-26" fill="#FFFFFF" mask="url(#mask-4)"></path>
                <path d="M168.107895,41.4856992 L168.107895,36.2195641 C167.658496,35.2668964 166.62644,34.4730067 165.593911,34.4730067 C163.741501,34.4730067 162.841287,36.378342 162.841287,38.8658631 C162.841287,41.3269212 163.741501,43.2322565 165.593911,43.2322565 C166.62644,43.2322565 167.658496,42.4383668 168.107895,41.4856992 L168.107895,41.4856992 Z M168.107895,45.2434438 L168.107895,43.5498124 C167.34094,44.820036 166.096707,45.5609997 164.800021,45.5609997 C161.915555,45.5609997 160.116072,42.9940896 160.116072,38.8658631 C160.116072,34.8170256 161.915555,32.1442636 164.800021,32.1442636 C166.070244,32.1442636 167.34094,32.8058383 168.107895,34.1819138 L168.107895,27.5926292 L170.728203,27.5926292 L170.728203,45.2434438 L168.107895,45.2434438 Z" id="Fill-27" fill="#FFFFFF" mask="url(#mask-4)"></path>
                <path d="M82.7695235,66.508205 L82.7695235,55.163143 L88.994942,55.163143 L88.994942,56.8123543 L84.6403624,56.8123543 L84.6403624,59.8915123 L88.8758586,59.8915123 L88.8758586,61.5416688 L84.6403624,61.5416688 L84.6403624,66.508205 L82.7695235,66.508205 Z" id="Fill-28" fill="#FFFFFF" mask="url(#mask-4)"></path>
                <path d="M95.2040574,62.3917923 C95.2040574,60.9122276 94.6601484,59.5852977 93.4012662,59.5852977 C92.1423839,59.5852977 91.5809905,60.9122276 91.5809905,62.3917923 C91.5809905,63.8888415 92.1423839,65.216244 93.4012662,65.216244 C94.6601484,65.216244 95.2040574,63.8888415 95.2040574,62.3917923 M89.829235,62.3917923 C89.829235,60.0786434 91.0706328,58.0887211 93.4012662,58.0887211 C95.731427,58.0887211 96.9728248,60.0786434 96.9728248,62.3917923 C96.9728248,64.7054138 95.731427,66.7123481 93.4012662,66.7123481 C91.0706328,66.7123481 89.829235,64.7054138 89.829235,62.3917923" id="Fill-29" fill="#FFFFFF" mask="url(#mask-4)"></path>
                <path d="M103.301591,63.8888415 L103.301591,60.7085571 C103.012861,60.0956554 102.331911,59.5852977 101.685458,59.5852977 C100.495096,59.5852977 99.9166907,60.7250965 99.9166907,62.3067327 C99.9166907,63.8888415 100.495096,65.0111558 101.685458,65.0111558 C102.331911,65.0111558 103.012861,64.5017433 103.301591,63.8888415 M98.5051737,68.7878026 L99.2192019,67.4608726 C99.7640559,68.0733018 100.478084,68.379989 101.345692,68.379989 C102.383419,68.379989 103.301591,67.8176505 103.301591,66.3725822 L103.301591,65.1817476 C102.808245,66.0153318 102.009157,66.508205 101.1751,66.508205 C99.3212734,66.508205 98.1644627,64.9605926 98.1644627,62.3067327 C98.1644627,59.7043812 99.3212734,58.0887211 101.1751,58.0887211 C101.992145,58.0887211 102.791233,58.5135466 103.301591,59.3986391 L103.301591,58.2928641 L104.985298,58.2928641 L104.985298,66.3725822 C104.985298,69.0425089 103.216531,69.8420692 101.430752,69.8420692 C100.256929,69.8420692 99.3382853,69.570351 98.5051737,68.7878026" id="Fill-30" fill="#FFFFFF" mask="url(#mask-4)"></path>
                <path d="M111.569432,66.508205 L111.569432,60.8952157 C111.569432,59.9255361 111.109638,59.5852977 110.378598,59.5852977 C109.647085,59.5852977 109.000632,60.1637031 108.694417,60.7250965 L108.694417,66.508205 L106.993225,66.508205 L106.993225,55.163143 L108.694417,55.163143 L108.694417,59.3986391 C109.136727,58.7351741 110.072383,58.0887211 111.093098,58.0887211 C112.572663,58.0887211 113.25314,58.870797 113.25314,60.2997984 L113.25314,66.508205 L111.569432,66.508205 Z" id="Fill-31" fill="#FFFFFF" mask="url(#mask-4)"></path>
                <path d="M115.26239,55.1630485 L116.946098,55.1630485 L116.946098,66.5081105 L115.26239,66.5081105 L115.26239,55.1630485 Z" id="Fill-32" fill="#FFFFFF" mask="url(#mask-4)"></path>
                <path d="M122.541555,64.6881183 L122.541555,63.3441765 C122.218329,62.7322198 121.606372,62.477041 120.976931,62.477041 C120.109795,62.477041 119.548402,63.123494 119.548402,64.008114 C119.548402,64.8922614 120.109795,65.539187 120.976931,65.539187 C121.606372,65.539187 122.218329,65.2835356 122.541555,64.6881183 L122.541555,64.6881183 Z M122.541555,66.508394 L122.541555,65.640786 C122.048682,66.3548142 121.215098,66.7120645 120.364502,66.7120645 C119.054584,66.7120645 117.84721,65.725373 117.84721,63.9911021 C117.84721,62.2048502 119.054584,61.3036909 120.364502,61.3036909 C121.215098,61.3036909 122.065221,61.6264448 122.541555,62.3239337 L122.541555,61.0990753 C122.541555,60.1128563 121.963622,59.5344509 120.942907,59.5344509 C120.211867,59.5344509 119.530917,59.8236536 118.884937,60.486646 L118.220999,59.296284 C119.054584,58.4456879 120.177843,58.0884375 121.249594,58.0884375 C122.966853,58.0884375 124.242747,58.8884705 124.242747,60.8779203 L124.242747,66.508394 L122.541555,66.508394 Z" id="Fill-33" fill="#FFFFFF" mask="url(#mask-4)"></path>
                <path d="M134.858376,66.508205 L134.858376,60.8096836 C134.858376,60.0276077 134.534204,59.5852977 133.820176,59.5852977 C133.139699,59.5852977 132.527743,60.1637031 132.238067,60.7250965 L132.238067,66.508205 L130.554832,66.508205 L130.554832,60.8096836 C130.554832,60.0446196 130.248145,59.5852977 129.517105,59.5852977 C128.836155,59.5852977 128.240738,60.180715 127.935469,60.7250965 L127.935469,66.508205 L126.250816,66.508205 L126.250816,58.2928641 L127.935469,58.2928641 L127.935469,59.3986391 C128.274762,58.8372457 129.21089,58.0887211 130.231606,58.0887211 C131.2854,58.0887211 131.965877,58.63263 132.153008,59.5342619 C132.562239,58.8027493 133.514434,58.0887211 134.534204,58.0887211 C135.776547,58.0887211 136.542084,58.7517135 136.542084,60.2487627 L136.542084,66.508205 L134.858376,66.508205 Z" id="Fill-34" fill="#FFFFFF" mask="url(#mask-4)"></path>
                <path d="M146.051985,57.1697465 L144.554935,62.5960772 L147.549034,62.5960772 L146.051985,57.1697465 Z M148.552265,66.5083468 L147.922823,64.2637181 L144.181146,64.2637181 L143.551704,66.5083468 L141.527758,66.5083468 L144.928725,55.1632848 L147.174299,55.1632848 L150.576211,66.5083468 L148.552265,66.5083468 Z" id="Fill-35" fill="#FFFFFF" mask="url(#mask-4)"></path>
                <path d="M152.313412,55.1630485 L153.997119,55.1630485 L153.997119,66.5081105 L152.313412,66.5081105 L152.313412,55.1630485 Z" id="Fill-36" fill="#FFFFFF" mask="url(#mask-4)"></path>
                <path d="M159.661003,65.216055 C160.834825,65.216055 161.430243,63.9911966 161.430243,62.4095603 C161.430243,60.8099671 160.834825,59.5851087 159.661003,59.5851087 C158.998483,59.5851087 158.334545,60.1129508 158.028331,60.7249075 L158.028331,64.0927955 C158.334545,64.7222367 158.998483,65.216055 159.661003,65.216055 L159.661003,65.216055 Z M156.344623,66.508016 L156.344623,55.1634265 L158.028331,55.1634265 L158.028331,59.3984501 C158.538688,58.5133576 159.355733,58.0885321 160.154821,58.0885321 C162.02566,58.0885321 163.165459,59.8067362 163.165459,62.4095603 C163.165459,65.0629477 162.00912,66.712159 160.154821,66.712159 C159.321237,66.712159 158.522149,66.2358252 158.028331,65.420198 L158.028331,66.508016 L156.344623,66.508016 Z" id="Fill-37" fill="#FFFFFF" mask="url(#mask-4)"></path>
                <path d="M169.034525,64.6881183 L169.034525,63.3441765 C168.711298,62.7322198 168.098869,62.477041 167.468955,62.477041 C166.602765,62.477041 166.040426,63.123494 166.040426,64.008114 C166.040426,64.8922614 166.602765,65.539187 167.468955,65.539187 C168.098869,65.539187 168.711298,65.2835356 169.034525,64.6881183 L169.034525,64.6881183 Z M169.034525,66.508394 L169.034525,65.640786 C168.540706,66.3548142 167.707122,66.7120645 166.857471,66.7120645 C165.547553,66.7120645 164.339234,65.725373 164.339234,63.9911021 C164.339234,62.2048502 165.547553,61.3036909 166.857471,61.3036909 C167.707122,61.3036909 168.558191,61.6264448 169.034525,62.3239337 L169.034525,61.0990753 C169.034525,60.1128563 168.455647,59.5344509 167.435876,59.5344509 C166.703891,59.5344509 166.023887,59.8236536 165.377906,60.486646 L164.713969,59.296284 C165.547553,58.4456879 166.669867,58.0884375 167.741618,58.0884375 C169.459823,58.0884375 170.735717,58.8884705 170.735717,60.8779203 L170.735717,66.508394 L169.034525,66.508394 Z" id="Fill-38" fill="#FFFFFF" mask="url(#mask-4)"></path>
            </g>
        </g>
    </g>
</svg>