<?xml version="1.0" encoding="UTF-8" standalone="no"?>
<svg width="133px" height="84px" viewBox="0 0 133 84" version="1.1" xmlns="http://www.w3.org/2000/svg" xmlns:xlink="http://www.w3.org/1999/xlink">
    <defs></defs>
    <g id="Page-1" stroke="none" stroke-width="1" fill="none" fill-rule="evenodd">
        <g id="3-1366x768" transform="translate(-708.000000, -527.000000)" fill="#FFFFFF">
            <g id="footer-partner-cs" transform="translate(708.533343, 527.000000)">
                <path d="M59.3170041,33.2443079 L62.263599,33.2443079 C62.2951879,32.7579316 62.3170215,32.2683035 62.3265446,31.7754236 L59.3170041,31.7754236 L59.3170041,33.2443079 L59.3170041,33.2443079 Z M122.166392,17.9589919 C120.926759,17.9589919 120.06782,18.9384804 120.06782,20.1376976 L120.06782,20.1574407 C120.06782,21.3568902 120.947431,22.3558894 122.186599,22.3558894 C123.425535,22.3558894 124.284939,21.3766332 124.284939,20.1771838 L124.284939,20.1574407 C124.284939,18.958688 123.406024,17.9589919 122.166392,17.9589919 L122.166392,17.9589919 Z M59.3170041,30.4068805 L62.3246864,30.4068805 C62.3128406,29.9309564 62.2896134,29.4578196 62.2568632,28.9877023 L59.3170041,28.9877023 L59.3170041,30.4068805 L59.3170041,30.4068805 Z M125.893883,20.1376976 C125.893883,18.1494545 124.344633,16.5407428 122.186599,16.5407428 C120.027637,16.5407428 118.458643,18.1694298 118.458643,20.1574407 L118.458643,20.1771838 C118.458643,22.1658914 120.007894,23.7752999 122.166392,23.7752999 C124.324657,23.7752999 125.893883,22.1459161 125.893883,20.1574407 L125.893883,20.1376976 L125.893883,20.1376976 Z M118.388265,22.5259121 L117.409009,21.5366682 C116.859687,22.0360517 116.369594,22.3558894 115.570581,22.3558894 C114.370899,22.3558894 113.541458,21.3568902 113.541458,20.1574407 L113.541458,20.1376976 C113.541458,18.9384804 114.391339,17.9589919 115.570581,17.9589919 C116.26995,17.9589919 116.81904,18.2593188 117.359071,18.7484824 L118.338095,17.6194112 C117.688664,16.9802003 116.899405,16.5407428 115.580336,16.5407428 C113.43229,16.5407428 111.932979,18.1694298 111.932979,20.1574407 L111.932979,20.1771838 C111.932979,22.1858668 113.462021,23.7752999 115.52041,23.7752999 C116.869442,23.7752999 117.668456,23.2954272 118.388265,22.5259121 L118.388265,22.5259121 Z M111.510012,21.566399 C111.510012,20.347671 110.710766,19.8378352 109.292285,19.4682915 C108.082848,19.1582091 107.782986,19.0086264 107.782986,18.5489613 L107.782986,18.5292182 C107.782986,18.1889406 108.092371,17.9192735 108.681876,17.9192735 C109.271845,17.9192735 109.88179,18.1791852 110.500561,18.6088873 L111.300504,17.4493885 C110.590914,16.8800913 109.721523,16.5604859 108.702316,16.5604859 C107.273614,16.5604859 106.253943,17.400147 106.253943,18.6692779 L106.253943,18.6883241 C106.253943,20.0775393 107.163982,20.4668262 108.572244,20.8268468 C109.741266,21.1271738 109.981202,21.3273917 109.981202,21.716214 L109.981202,21.7364216 C109.981202,22.1459161 109.601903,22.3958401 108.971983,22.3958401 C108.172737,22.3958401 107.513318,22.0667115 106.883166,21.5466559 L105.974056,22.6360087 C106.813717,23.3855485 107.883095,23.7553246 108.942252,23.7553246 C110.450623,23.7553246 111.510012,22.9758218 111.510012,21.586142 L111.510012,21.566399 L111.510012,21.566399 Z M99.4632565,41.773778 C99.4632565,39.8055102 97.9444338,38.2964429 95.7459851,38.2964429 L93.0179575,38.2964429 L93.0179575,45.2917605 L95.7459851,45.2917605 C97.9444338,45.2917605 99.4632565,43.7622534 99.4632565,41.7937533 L99.4632565,41.773778 L99.4632565,41.773778 Z M92.2003622,38.2964429 L90.6813073,38.2964429 L90.6813073,42.6032191 L87.4044225,38.2964429 L85.9847797,38.2964429 L85.9847797,45.2910637 L87.5040669,45.2910637 L87.5040669,40.8446924 L90.8912807,45.2910637 L92.2003622,45.2910637 L92.2003622,38.2964429 L92.2003622,38.2964429 Z M85.5395155,45.2910637 L82.5408918,38.2462723 L81.1224104,38.2462723 L78.124948,45.2910637 L79.693709,45.2910637 L80.3326876,43.7223027 L83.2906638,43.7223027 L83.9305715,45.2910637 L85.5395155,45.2910637 L85.5395155,45.2910637 Z M131.747819,18.0790762 L131.747819,60.5917095 L72.7046628,60.5917095 L72.7046628,45.2910637 L77.6757351,45.2910637 L77.6757351,43.8925577 L74.1881802,43.8925577 L74.1881802,38.2964429 L72.7046628,38.2964429 L72.7046628,1.54832111 L131.747819,1.54832111 L131.747819,16.659898 L126.007696,16.659898 L126.007696,18.0790762 L128.136231,18.0790762 L128.136231,23.6549833 L129.674797,23.6549833 L129.674797,18.0790762 L131.747819,18.0790762 L131.747819,18.0790762 Z M38.3916742,31.6855345 L40.2503099,31.6855345 L39.3207598,29.4169398 L38.3916742,31.6855345 L38.3916742,31.6855345 Z M57.3478073,27.6186947 L55.688925,27.6186947 L53.8604845,32.5449387 L52.0318119,27.6186947 L50.3332111,27.6186947 L53.1608831,34.6632538 L54.519903,34.6632538 L57.3478073,27.6186947 L57.3478073,27.6186947 Z M48.2778416,34.6135477 L49.8171041,34.6135477 L49.8171041,27.6186947 L48.2778416,27.6186947 L48.2778416,34.6135477 Z M47.6065772,27.6186947 L41.8111737,27.6186947 L41.8111737,29.0374084 L43.9397087,29.0374084 L43.9397087,34.6135477 L45.4780422,34.6135477 L45.4780422,29.0374084 L47.6065772,29.0374084 L47.6065772,27.6186947 L47.6065772,27.6186947 Z M43.0482511,34.6135477 L40.050092,27.5687563 L38.631146,27.5687563 L35.6334514,34.6135477 L37.2024447,34.6135477 L37.8421201,33.0447867 L40.7996318,33.0447867 L41.4393072,34.6135477 L43.0482511,34.6135477 L43.0482511,34.6135477 Z M35.1582241,33.2443079 L31.3612837,33.2443079 L31.3612837,31.7754236 L34.6590729,31.7754236 L34.6590729,30.4068805 L31.3612837,30.4068805 L31.3612837,28.9877023 L35.1087503,28.9877023 L35.1087503,27.6186947 L29.8324733,27.6186947 L29.8324733,34.6135477 L35.1582241,34.6135477 L35.1582241,33.2443079 L35.1582241,33.2443079 Z M29.2864033,34.6135477 L27.5780472,32.1152366 C28.4669498,31.7856435 29.07643,31.0765189 29.07643,29.9465186 L29.07643,29.9272401 C29.07643,29.267357 28.8666889,28.7180352 28.4769375,28.3282838 C28.0172724,27.868851 27.3276586,27.6186947 26.438756,27.6186947 L23.2410757,27.6186947 L23.2410757,34.6135477 L24.7798737,34.6135477 L24.7798737,32.3753806 L25.9890786,32.3753806 L27.4874613,34.6135477 L29.2864033,34.6135477 L29.2864033,34.6135477 Z M22.5558751,33.4840119 L21.5770834,32.4950003 C21.0275293,32.9950806 20.5374367,33.3144538 19.7379585,33.3144538 C18.5389736,33.3144538 17.7097647,32.3152223 17.7097647,31.1162373 L17.7097647,31.0960297 C17.7097647,29.8970448 18.5591812,28.9182531 19.7379585,28.9182531 C20.4377923,28.9182531 20.9873464,29.2174187 21.5266806,29.7070468 L22.5064013,28.577511 C21.8567382,27.9385324 21.0670155,27.4990749 19.7481785,27.4990749 C17.6003649,27.4990749 16.1010531,29.1272974 16.1010531,31.1162373 L16.1010531,31.1359804 C16.1010531,33.1448957 17.6298634,34.7338643 19.6884847,34.7338643 C21.0372847,34.7338643 21.8367629,34.2537593 22.5558751,33.4840119 L22.5558751,33.4840119 Z M62.143747,34.6135477 C60.4279582,50.2040682 47.2149677,62.3332805 31.167337,62.3332805 C13.9544008,62.3332805 0,48.3795764 0,31.1666402 C0,13.953704 13.9544008,0 31.167337,0 C47.1803592,0 60.3701226,12.0767189 62.1319012,27.6186947 L57.7879615,27.6186947 L57.7879615,34.6135477 L62.143747,34.6135477 L62.143747,34.6135477 Z M80.8822417,42.3637473 L82.741342,42.3637473 L81.8115596,40.0949204 L80.8822417,42.3637473 L80.8822417,42.3637473 Z M26.308684,29.0081422 L24.7798737,29.0081422 L24.7798737,31.0158961 L26.338647,31.0158961 C27.0879545,31.0158961 27.5178889,30.616157 27.5178889,30.0268845 L27.5178889,30.0069092 C27.5178889,29.3474907 27.0584561,29.0081422 26.308684,29.0081422 L26.308684,29.0081422 Z M97.8543125,41.7937533 L97.8543125,41.8132641 C97.8543125,43.0526643 97.004896,43.9020808 95.7459851,43.9020808 L94.5567555,43.9020808 L94.5567555,39.6854259 L95.7459851,39.6854259 C97.004896,39.6854259 97.8543125,40.5548177 97.8543125,41.7937533 L97.8543125,41.7937533 Z" id="Fill-1"></path>
                <path d="M6.00351873,80.1271274 L4.77549987,77.2852869 L3.55770095,80.1271274 L6.00351873,80.1271274 L6.00351873,80.1271274 Z M4.21735171,75.79364 L5.37406325,75.79364 L8.49997167,82.9482958 L7.18043788,82.9482958 L6.45993202,81.2332038 L3.10082311,81.2332038 L2.37009731,82.9482958 L1.09121101,82.9482958 L4.21735171,75.79364 L4.21735171,75.79364 Z" id="Fill-2"></path>
                <path d="M9.99277993,75.8445075 L11.2412387,75.8445075 L11.2412387,81.8115596 L14.9759304,81.8115596 L14.9759304,82.9482958 L9.99277993,82.9482958 L9.99277993,75.8445075" id="Fill-3"></path>
                <path d="M19.8482875,81.8422194 C20.7007235,81.8422194 21.2186887,81.5072841 21.2186887,80.8680732 L21.2186887,80.8476333 C21.2186887,80.2488376 20.741371,79.8936947 19.7572371,79.8936947 L17.7780525,79.8936947 L17.7780525,81.8422194 L19.8482875,81.8422194 L19.8482875,81.8422194 Z M19.4829246,78.8382535 C20.2847254,78.8382535 20.822666,78.523758 20.822666,77.8740949 L20.822666,77.853655 C20.822666,77.2957391 20.3760081,76.9505838 19.5744395,76.9505838 L17.7780525,76.9505838 L17.7780525,78.8382535 L19.4829246,78.8382535 L19.4829246,78.8382535 Z M16.5498014,75.8445075 L19.7367972,75.8445075 C20.5485857,75.8445075 21.1880289,76.067488 21.593807,76.4734984 C21.9083025,76.7882261 22.0708924,77.1740289 22.0708924,77.6506498 L22.0708924,77.6708574 C22.0708924,78.523758 21.583587,78.9801713 21.0560987,79.2544838 C21.8883271,79.5380872 22.4669152,80.0154049 22.4669152,80.9795634 L22.4669152,80.9995388 C22.4669152,82.2682051 21.4212293,82.9482958 19.8382998,82.9482958 L16.5498014,82.9482958 L16.5498014,75.8445075 L16.5498014,75.8445075 Z" id="Fill-4"></path>
                <path d="M28.4553362,80.1271274 L27.2275497,77.2852869 L26.0097507,80.1271274 L28.4553362,80.1271274 L28.4553362,80.1271274 Z M26.6691692,75.79364 L27.8263453,75.79364 L30.9520215,82.9482958 L29.6329522,82.9482958 L28.9122141,81.2332038 L25.5531052,81.2332038 L24.8223794,82.9482958 L23.5437253,82.9482958 L26.6691692,75.79364 L26.6691692,75.79364 Z" id="Fill-5"></path>
                <path id="Fill-6" d="M37.3894232,74.8496891 L37.836081,74.8496891 L37.836081,84.2473897 L37.3894232,84.2473897 L37.3894232,74.8496891 Z"></path>
                <path d="M44.8957378,79.4168415 L44.8957378,79.3964016 C44.8957378,77.3768019 46.4078246,75.7223327 48.5595868,75.7223327 C49.8686684,75.7223327 50.660017,76.1789783 51.3401076,76.8286414 L50.5385391,77.7521524 C49.970171,77.2246641 49.3611554,76.8692889 48.5493668,76.8692889 C47.1894178,76.8692889 46.2050517,77.9858174 46.2050517,79.3759617 L46.2050517,79.3964016 C46.2050517,80.7867782 47.1894178,81.9235144 48.5493668,81.9235144 C49.4222427,81.9235144 49.9803909,81.5681392 50.5891742,80.9995388 L51.3907428,81.8115596 C50.6502616,82.5833974 49.8382408,83.0702383 48.5087193,83.0702383 C46.4382521,83.0702383 44.8957378,81.4564166 44.8957378,79.4168415" id="Fill-7"></path>
                <path d="M52.9752983,75.8445075 L54.2235247,75.8445075 L54.2235247,78.797606 L57.6130612,78.797606 L57.6130612,75.8445075 L58.8612877,75.8445075 L58.8612877,82.9482958 L57.6130612,82.9482958 L57.6130612,79.9543175 L54.2235247,79.9543175 L54.2235247,82.9482958 L52.9752983,82.9482958 L52.9752983,75.8445075" id="Fill-8"></path>
                <path d="M64.038617,79.3659741 C64.9317005,79.3659741 65.5000686,78.8988763 65.5000686,78.1786027 L65.5000686,78.1581628 C65.5000686,77.3970095 64.9519082,76.9812437 64.0283971,76.9812437 L62.2118025,76.9812437 L62.2118025,79.3659741 L64.038617,79.3659741 L64.038617,79.3659741 Z M60.9633438,75.8445075 L64.1296674,75.8445075 C65.0227509,75.8445075 65.7232815,76.1081355 66.179927,76.5547934 C66.5555099,76.9403639 66.768735,77.4683168 66.768735,78.0870878 L66.768735,78.1075277 C66.768735,79.2746914 66.0684368,79.9747574 65.0736184,80.2590576 L66.9917155,82.9482958 L65.5202763,82.9482958 L63.7745245,80.4722827 L62.2118025,80.4722827 L62.2118025,82.9482958 L60.9633438,82.9482958 L60.9633438,75.8445075 L60.9633438,75.8445075 Z" id="Fill-9"></path>
                <path d="M68.4643162,79.9341099 L68.4643162,75.8445075 L69.7127749,75.8445075 L69.7127749,79.8834747 C69.7127749,81.2030085 70.3928656,81.9132945 71.5091619,81.9132945 C72.6152383,81.9132945 73.2953289,81.2431915 73.2953289,79.9341099 L73.2953289,75.8445075 L74.5437877,75.8445075 L74.5437877,79.8732548 C74.5437877,81.9945894 73.3459641,83.0600183 71.488722,83.0600183 C69.6416999,83.0600183 68.4643162,81.9945894 68.4643162,79.9341099" id="Fill-10"></path>
                <path d="M78.2791762,77.0014513 L76.0261437,77.0014513 L76.0261437,75.8445075 L81.7908874,75.8445075 L81.7908874,77.0014513 L79.5380872,77.0014513 L79.5380872,82.9482958 L78.2791762,82.9482958 L78.2791762,77.0014513" id="Fill-11"></path>
                <path d="M83.3851983,75.8445075 L84.633657,75.8445075 L84.633657,78.797606 L88.0231935,78.797606 L88.0231935,75.8445075 L89.2718845,75.8445075 L89.2718845,82.9482958 L88.0231935,82.9482958 L88.0231935,79.9543175 L84.633657,79.9543175 L84.633657,82.9482958 L83.3851983,82.9482958 L83.3851983,75.8445075" id="Fill-12"></path>
                <path d="M95.6767682,80.1271274 L94.4487493,77.2852869 L93.2309504,80.1271274 L95.6767682,80.1271274 L95.6767682,80.1271274 Z M93.8906012,75.79364 L95.0473127,75.79364 L98.1732211,82.9482958 L96.8536874,82.9482958 L96.1331815,81.2332038 L92.7740726,81.2332038 L92.0433468,82.9482958 L90.7644605,82.9482958 L93.8906012,75.79364 L93.8906012,75.79364 Z" id="Fill-13"></path>
                <path d="M98.915096,79.4168415 L98.915096,79.3964016 C98.915096,77.3768019 100.427415,75.7223327 102.578945,75.7223327 C103.888259,75.7223327 104.679607,76.1789783 105.359698,76.8286414 L104.557665,77.7521524 C103.989529,77.2246641 103.380514,76.8692889 102.568725,76.8692889 C101.208776,76.8692889 100.22441,77.9858174 100.22441,79.3759617 L100.22441,79.3964016 C100.22441,80.7867782 101.208776,81.9235144 102.568725,81.9235144 C103.441601,81.9235144 103.999749,81.5681392 104.608532,80.9995388 L105.410333,81.8115596 C104.669852,82.5833974 103.857831,83.0702383 102.528078,83.0702383 C100.45761,83.0702383 98.915096,81.4564166 98.915096,79.4168415" id="Fill-14"></path>
                <path d="M106.994889,75.8445075 L108.243347,75.8445075 L108.243347,78.797606 L111.632884,78.797606 L111.632884,75.8445075 L112.881343,75.8445075 L112.881343,82.9482958 L111.632884,82.9482958 L111.632884,79.9543175 L108.243347,79.9543175 L108.243347,82.9482958 L106.994889,82.9482958 L106.994889,75.8445075" id="Fill-15"></path>
                <path d="M119.285994,80.1271274 L118.057975,77.2852869 L116.840176,80.1271274 L119.285994,80.1271274 L119.285994,80.1271274 Z M117.499595,75.79364 L118.656771,75.79364 L121.782679,82.9482958 L120.463378,82.9482958 L119.742407,81.2332038 L116.383298,81.2332038 L115.652805,82.9482958 L114.374151,82.9482958 L117.499595,75.79364 L117.499595,75.79364 Z" id="Fill-16"></path>
                <path d="M123.346563,75.8445075 L124.594789,75.8445075 L124.594789,82.9482958 L123.346563,82.9482958 L123.346563,75.8445075 Z" id="Fill-17"></path>
                <path d="M126.768617,75.8445075 L128.016844,75.8445075 L128.016844,81.8115596 L131.751768,81.8115596 L131.751768,82.9482958 L126.768617,82.9482958 L126.768617,75.8445075" id="Fill-18"></path>
            </g>
        </g>
    </g>
</svg>