<?xml version="1.0" encoding="UTF-8" standalone="no"?>
<svg width="37px" height="30px" viewBox="0 0 37 30" version="1.1" xmlns="http://www.w3.org/2000/svg" xmlns:xlink="http://www.w3.org/1999/xlink">
    <!-- Generator: Sketch 3.6.1 (26313) - http://www.bohemiancoding.com/sketch -->
    <title>footer-twitter</title>
    <desc>Created with Sketch.</desc>
    <defs></defs>
    <g id="Page-1" stroke="none" stroke-width="1" fill="none" fill-rule="evenodd">
        <g id="1-SS-Home-Logged-Out" transform="translate(-644.000000, -2117.000000)" fill="#FFFFFF">
            <g id="Footer" transform="translate(0.000000, 1995.000000)">
                <g id="Twitter" transform="translate(624.000000, 106.000000)">
                    <path d="M56.3439484,19.4962878 C55.0068546,20.0894211 53.5696331,20.4902948 52.061541,20.6703791 C53.6007072,19.7476062 54.7831576,18.2863978 55.3399468,16.5451592 C53.899091,17.3997872 52.30341,18.0201784 50.6048755,18.3545427 C49.244885,16.9053278 47.3070256,16 45.1623692,16 C41.0445999,16 37.7058631,19.3383734 37.7058631,23.4561427 C37.7058631,24.0405534 37.7718273,24.6096997 37.8990312,25.155404 C31.7020245,24.8444816 26.2077281,21.8759079 22.5302657,17.3647153 C21.8884316,18.4659369 21.5206308,19.7468794 21.5206308,21.1134118 C21.5206308,23.7003741 22.8370086,25.9825923 24.837743,27.3196862 C23.615496,27.2809799 22.4657552,26.9455252 21.4604816,26.3871005 C21.4597547,26.4181745 21.4597547,26.4492486 21.4597547,26.4808678 C21.4597547,30.0934563 24.0299987,33.1070965 27.44106,33.7921799 C26.8153989,33.9626331 26.1566649,34.0538564 25.4766696,34.0538564 C24.9962026,34.0538564 24.5290011,34.0069727 24.0737932,33.9199289 C25.022552,36.8821424 27.7761512,39.0380655 31.0391109,39.098033 C28.4872206,41.0980405 25.2722349,42.290122 21.7786728,42.290122 C21.176817,42.290122 20.5833204,42.2546866 20,42.1858148 C23.2998488,44.3013961 27.2191802,45.536 31.4299901,45.536 C45.1449242,45.536 52.6450431,34.1741548 52.6450431,24.3207653 C52.6450431,23.9974858 52.6375926,23.6760236 52.6232367,23.3561969 C54.0802656,22.3047665 55.3443081,20.9916596 56.3439484,19.4962878 L33.8602059,28.0144289" id="footer-twitter"></path>
                </g>
            </g>
        </g>
    </g>
</svg>