<?xml version="1.0" encoding="UTF-8" standalone="no"?>
<svg width="271px" height="104px" viewBox="0 0 271 104" version="1.1" xmlns="http://www.w3.org/2000/svg" xmlns:xlink="http://www.w3.org/1999/xlink">
    <!-- Generator: Sketch 3.6.1 (26313) - http://www.bohemiancoding.com/sketch -->
    <title>mie-logo</title>
    <desc>Created with Sketch.</desc>
    <defs>
        <path id="path-1" d="M0,116.011558 L290.568531,116.011558 L290.568531,0.49380781 L0,0.49380781 L0,116.011558 Z"></path>
        <path id="path-3" d="M0.371003785,10.2887356 C0.371003785,24.3580236 11.7752479,35.7560843 25.8404136,35.7560843 C33.9798244,35.7560843 41.2226427,31.9326842 45.8849236,25.9925014 C44.8997025,26.1079248 43.8959311,26.173881 42.8777319,26.173881 C34.5610637,26.173881 27.4625246,22.0495556 22.8126105,15.8805871 C13.6550004,14.6871916 5.73819187,8.7738035 2.31259026,0.525152685 C1.06354418,3.53234447 0.371003785,6.83015589 0.371003785,10.2887356 L0.371003785,10.2887356 Z"></path>
        <path id="path-5" d="M25.3675337,55.0926025 C28.8322968,46.7594453 36.5924593,40.6584941 45.8881652,39.5660941 C50.5504461,33.6259113 59.7378896,33.0246182 67.8789359,30.6350245 C68.931369,30.3261099 68.1648814,29.8808342 69.251098,30.0230523 C64.603245,23.8540838 57.2161474,19.8616709 48.895357,19.8616709 C34.8301913,19.8616709 23.1352988,31.2659151 23.1352988,45.3310808 C23.1352988,48.7896606 24.1184876,52.0854107 25.3675337,55.0926025 Z"></path>
        <path id="path-7" d="M71.1531804,55.8810903 C71.1573026,55.8852125 73.901155,61.3169036 73.901155,64.7342607 C73.901155,70.6600156 72.3366128,76.2315737 68.939867,80.5599512 C81.589035,79.0718138 92.0878983,68.3405297 92.0878983,55.2915021 C92.0878983,42.3496534 81.7518644,31.6534078 69.251098,30.0230523 C72.4623419,34.2854736 74.366828,39.5887666 74.366828,45.3310807 C74.366828,48.7896604 72.4042876,52.8738985 71.1531804,55.8810903 Z"></path>
        <path id="path-9" d="M48.895357,39.3888368 C59.5040041,39.3888368 68.6451251,46.3719524 72.4808921,55.1771089 C73.7299381,52.1699171 74.7283658,49.0458349 74.7283656,45.5872552 C74.7283654,38.1115219 73.4627845,34.929321 69.251098,30.0230523 C68.1648814,29.8808342 67.0601145,29.80045 65.9326753,29.80045 C55.3093688,29.80045 49.3853483,34.2795339 44.7230674,40.2197167 C45.7103497,40.1084156 47.8771577,39.3888368 48.895357,39.3888368 Z"></path>
        <path id="path-11" d="M46.0512618,70.5550047 C46.2349697,70.6931004 45.9935501,71.0131097 46.0512618,71.0790659 C46.100729,71.142961 46.007978,71.1928125 46.0512618,71.2505242 C50.7011759,77.2195628 57.7829588,80.7413308 65.9326753,80.7413308 C66.9529357,80.7413308 67.9546459,80.6753746 68.939867,80.5599512 C72.3366128,76.2315737 74.3578242,72.71153 74.366828,64.8561854 C74.3717901,60.5269629 73.6928378,58.1348335 72.4726475,55.1564976 C68.6018414,64.287313 58.5028187,70.8437744 47.9601278,70.8437744 C46.8368108,70.8437744 47.1395396,70.6931006 46.0512618,70.5550047 Z"></path>
        <path id="path-13" d="M40.4653266,55.2739821 C40.4653266,61.0162963 42.6841137,66.836616 45.9007356,71.0969762 C58.2550757,72.2629899 69.7014105,64.8978419 71.8389743,55.9899745 L45.896604,70.4686483 L45.896604,39.5743386 C45.896604,39.5743386 61.5614159,49.486611 69.3938219,54.4427472 C70.2088727,54.9584894 71.8389743,55.9899739 71.8389743,55.9899739 C71.8389743,55.5898852 72.2599414,62.2682114 72.2599414,55.9899745 C72.2599414,49.7117376 59.7384406,37.5989492 46.4328277,39.5660941 C45.4250635,39.7150852 46.8903068,39.454793 45.9007359,39.5660941 C42.5002479,43.8985939 40.4653266,49.3482272 40.4653266,55.2739821 Z"></path>
        <path id="path-15" d="M45.8881654,70.7791888 C46.4364268,71.1091036 45.7047245,70.4521592 45.8881652,70.4707094 C42.6810436,66.2124104 40.4653266,61.0162963 40.4653266,55.2698599 C40.4653266,49.3482272 43.0898165,43.514547 46.48244,39.1820473 C33.0431111,40.7254554 28.8322968,46.7594453 25.3675337,55.0926025 C28.3545251,63.4559878 36.9634633,69.4270861 45.8881654,70.7791888 Z"></path>
    </defs>
    <g id="Page-1" stroke="none" stroke-width="1" fill="none" fill-rule="evenodd">
        <g id="1-MIE-Home" transform="translate(-134.000000, -30.000000)">
            <g id="header" transform="translate(-1.000000, -36.000000)">
                <g id="mie-logo" transform="translate(133.000000, 63.000000)">
                    <path d="M46.145516,37.34888 L43.3396483,35.7042099 L43.3396483,42.6347031 L43.3396483,68.1508323 L43.3396483,74.7359879 L46.0656567,73.1690187 L76.9366764,55.394926 L46.145516,37.34888 Z" id="Fill-1" fill="#FEFEFE"></path>
                    <path d="M136.398193,37.2457104 L136.398193,22.9444186 L130.732499,37.2457104 L129.342515,37.2457104 L123.65092,22.9444186 L123.65092,37.2457104 L120.40043,37.2457104 L120.40043,18.7205085 L124.984787,18.7205085 L130.037507,31.441881 L135.066485,18.7205085 L139.646524,18.7205085 L139.646524,37.2457104 L136.398193,37.2457104 Z" id="Fill-2" fill="#CCA3CC"></path>
                    <g id="Group-26" transform="translate(0.000000, 0.573260)">
                        <path d="M158.392742,27.424526 C158.392742,23.591279 155.977538,20.7314523 152.254367,20.7314523 C148.505296,20.7314523 146.11815,23.591279 146.11815,27.424526 C146.11815,31.2297142 148.505296,34.1175996 152.254367,34.1175996 C155.977538,34.1175996 158.392742,31.2297142 158.392742,27.424526 L158.392742,27.424526 Z M142.785643,27.424526 C142.785643,21.8969666 146.700908,17.843567 152.254367,17.843567 C157.784085,17.843567 161.72525,21.8969666 161.72525,27.424526 C161.72525,32.949927 157.784085,37.005485 152.254367,37.005485 C146.700908,37.005485 142.785643,32.949927 142.785643,27.424526 L142.785643,27.424526 Z" id="Fill-3" fill="#CCA3CC"></path>
                        <path d="M169.642113,36.6724501 L162.366283,18.1472482 L166.059236,18.1472482 L171.668813,33.1197899 L177.27839,18.1472482 L180.973502,18.1472482 L173.695513,36.6724501 L169.642113,36.6724501 Z" id="Fill-5" fill="#CCA3CC"></path>
                        <mask id="mask-2" fill="white">
                            <use xlink:href="#path-1"></use>
                        </mask>
                        <g id="Clip-8"></g>
                        <path d="M182.970633,36.6743926 L186.221122,36.6743926 L186.221122,18.1491907 L182.970633,18.1491907 L182.970633,36.6743926 Z" id="Fill-7" fill="#CCA3CC" mask="url(#mask-2)"></path>
                        <path d="M203.079639,36.6724501 L193.412345,23.4244378 L193.412345,36.6724501 L190.164014,36.6724501 L190.164014,18.1472482 L193.49868,18.1472482 L202.965246,30.978697 L202.965246,18.1472482 L206.215736,18.1472482 L206.215736,36.6724501 L203.079639,36.6724501 Z" id="Fill-9" fill="#CCA3CC" mask="url(#mask-2)"></path>
                        <path d="M209.354638,27.424526 C209.354638,21.5926379 213.686466,17.843567 219.073732,17.843567 C222.684668,17.843567 225.045914,19.5659381 226.517915,21.6746556 L223.878241,23.2027743 C222.881079,21.8149489 221.128491,20.7314523 219.073732,20.7314523 C215.408837,20.7314523 212.687146,23.5092614 212.687146,27.424526 C212.687146,31.2858316 215.408837,34.1175996 219.073732,34.1175996 C220.962297,34.1175996 222.628551,33.2585724 223.461678,32.4535042 L223.461678,29.5915192 L217.908218,29.5915192 L217.908218,26.7295341 L226.684109,26.7295341 L226.684109,33.6449188 C224.877562,35.673777 222.268105,37.035702 219.073732,37.035702 C213.686466,37.035702 209.354638,33.2283554 209.354638,27.424526" id="Fill-10" fill="#CCA3CC" mask="url(#mask-2)"></path>
                        <path d="M120.399783,64.0423944 L123.650273,64.0423944 L123.650273,45.5171926 L120.399783,45.5171926 L120.399783,64.0423944 Z" id="Fill-11" fill="#6381C0" mask="url(#mask-2)"></path>
                        <path d="M143.589848,64.0419628 L143.589848,49.740671 L137.924153,64.0419628 L136.536328,64.0419628 L130.842575,49.740671 L130.842575,64.0419628 L127.594244,64.0419628 L127.594244,45.5167609 L132.176441,45.5167609 L137.23132,58.2402917 L142.25814,45.5167609 L146.840338,45.5167609 L146.840338,64.0419628 L143.589848,64.0419628 Z" id="Fill-12" fill="#6381C0" mask="url(#mask-2)"></path>
                        <path d="M158.171511,48.766819 L154.836845,57.5988272 L161.504018,57.5988272 L158.171511,48.766819 Z M163.781088,64.0415311 L162.421321,60.4608122 L153.9217,60.4608122 L152.559775,64.0415311 L148.864663,64.0415311 L156.144811,45.5163292 L160.196052,45.5163292 L167.474041,64.0415311 L163.781088,64.0415311 Z" id="Fill-13" fill="#6381C0" mask="url(#mask-2)"></path>
                        <path d="M167.696568,54.7951179 C167.696568,48.9610714 172.028396,45.2141588 177.41782,45.2141588 C181.028756,45.2141588 183.390002,46.9343716 184.859845,49.0452474 L182.220171,50.5733661 C181.223009,49.1833825 179.472579,48.0998859 177.41782,48.0998859 C173.750767,48.0998859 171.029075,50.8798532 171.029075,54.7951179 C171.029075,58.6542651 173.750767,61.4881915 177.41782,61.4881915 C179.304227,61.4881915 180.970481,60.6248476 181.803607,59.8197794 L181.803607,56.9621111 L176.250148,56.9621111 L176.250148,54.100126 L185.026039,54.100126 L185.026039,61.0155107 C183.219491,63.0422105 180.610034,64.4019772 177.41782,64.4019772 C172.028396,64.4019772 167.696568,60.5989473 167.696568,54.7951179" id="Fill-14" fill="#6381C0" mask="url(#mask-2)"></path>
                        <path d="M188.4138,64.0419628 L188.4138,45.5167609 L201.107114,45.5167609 L201.107114,48.3787459 L191.66429,48.3787459 L191.66429,53.1551961 L200.912861,53.1551961 L200.912861,56.0150228 L191.66429,56.0150228 L191.66429,61.1821361 L201.107114,61.1821361 L201.107114,64.0419628 L188.4138,64.0419628 Z" id="Fill-15" fill="#6381C0" mask="url(#mask-2)"></path>
                        <path d="M120.400215,91.4112596 L120.400215,72.8882161 L133.093528,72.8882161 L133.093528,75.7480428 L123.650704,75.7480428 L123.650704,80.524493 L132.899276,80.524493 L132.899276,83.3843197 L123.650704,83.3843197 L123.650704,88.5514329 L133.093528,88.5514329 L133.093528,91.4112596 L120.400215,91.4112596 Z" id="Fill-16" fill="#FEFEFE" mask="url(#mask-2)"></path>
                        <path d="M149.672969,82.1370036 C149.672969,78.582185 147.452017,75.7482586 143.340341,75.7482586 L139.675446,75.7482586 L139.675446,88.5516488 L143.314441,88.5516488 C147.339782,88.5516488 149.672969,85.6616051 149.672969,82.1370036 L149.672969,82.1370036 Z M136.424957,91.4114755 L136.424957,72.8884319 L143.314441,72.8884319 C149.116112,72.8884319 153.005476,76.7195205 153.005476,82.1370036 C153.005476,87.6062872 149.116112,91.4114755 143.340341,91.4114755 L136.424957,91.4114755 Z" id="Fill-17" fill="#FEFEFE" mask="url(#mask-2)"></path>
                        <path d="M156.143947,84.0803907 L156.143947,72.8871369 L159.448396,72.8871369 L159.448396,83.9962147 C159.448396,86.9402174 161.086591,88.8568409 164.168729,88.8568409 C167.250867,88.8568409 168.889062,86.9402174 168.889062,83.9962147 L168.889062,72.8871369 L172.195669,72.8871369 L172.195669,84.0803907 C172.195669,88.6625885 169.558153,91.7447262 164.168729,91.7447262 C158.809522,91.7447262 156.143947,88.6625885 156.143947,84.0803907" id="Fill-18" fill="#FEFEFE" mask="url(#mask-2)"></path>
                        <path d="M175.333061,82.1624722 C175.333061,76.4428188 179.582871,72.5836716 185.054313,72.5836716 C188.775325,72.5836716 191.108512,74.4981367 192.468279,76.7212472 L189.718529,78.1630315 C188.831443,76.6111709 187.024896,75.4693986 185.054313,75.4693986 C181.389418,75.4693986 178.665568,78.2493659 178.665568,82.1624722 C178.665568,86.0237778 181.389418,88.8577042 185.054313,88.8577042 C187.024896,88.8577042 188.831443,87.6900316 189.718529,86.1640712 L192.496338,87.5518965 C191.080454,89.7728487 188.775325,91.7434312 185.054313,91.7434312 C179.582871,91.7434312 175.333061,87.8583836 175.333061,82.1624722" id="Fill-19" fill="#FEFEFE" mask="url(#mask-2)"></path>
                        <path d="M202.88366,76.1384901 L199.551152,84.9704983 L206.216167,84.9704983 L202.88366,76.1384901 Z M208.493237,91.4110438 L207.131312,87.8281666 L198.633849,87.8281666 L197.271924,91.4110438 L193.578971,91.4110438 L200.85696,72.8880003 L204.908201,72.8880003 L212.188349,91.4110438 L208.493237,91.4110438 Z" id="Fill-20" fill="#FEFEFE" mask="url(#mask-2)"></path>
                        <path d="M216.797094,91.4112596 L216.797094,75.7480428 L211.185359,75.7480428 L211.185359,72.8882161 L225.655003,72.8882161 L225.655003,75.7480428 L220.047584,75.7480428 L220.047584,91.4112596 L216.797094,91.4112596 Z" id="Fill-21" fill="#FEFEFE" mask="url(#mask-2)"></path>
                        <path d="M228.406264,91.4103963 L231.654595,91.4103963 L231.654595,72.8873528 L228.406264,72.8873528 L228.406264,91.4103963 Z" id="Fill-22" fill="#FEFEFE" mask="url(#mask-2)"></path>
                        <path d="M250.399303,82.1624722 C250.399303,78.3313836 247.984098,75.4693986 244.263086,75.4693986 C240.514015,75.4693986 238.124711,78.3313836 238.124711,82.1624722 C238.124711,85.9698188 240.514015,88.8577042 244.263086,88.8577042 C247.984098,88.8577042 250.399303,85.9698188 250.399303,82.1624722 M234.794361,82.1624722 C234.794361,76.6349128 238.709626,72.5836716 244.263086,72.5836716 C249.790645,72.5836716 253.733968,76.6349128 253.733968,82.1624722 C253.733968,87.6900316 249.790645,91.7434312 244.263086,91.7434312 C238.709626,91.7434312 234.794361,87.6900316 234.794361,82.1624722" id="Fill-23" fill="#FEFEFE" mask="url(#mask-2)"></path>
                        <path d="M269.756984,91.4112596 L260.091849,78.1632474 L260.091849,91.4112596 L256.843517,91.4112596 L256.843517,72.8882161 L260.176025,72.8882161 L269.646907,85.7175066 L269.646907,72.8882161 L272.895239,72.8882161 L272.895239,91.4112596 L269.756984,91.4112596 Z" id="Fill-24" fill="#FEFEFE" mask="url(#mask-2)"></path>
                        <path d="M104.509855,54.7382344 C104.509855,26.9789068 82.0064142,4.47546608 54.2450255,4.47546608 C26.4856978,4.47546608 3.98225717,26.9789068 3.98225717,54.7382344 C3.98225717,82.497562 26.4856978,105.005125 54.2450255,105.005125 C82.0064142,105.005125 104.509855,82.497562 104.509855,54.7382344 L104.509855,54.7382344 Z" id="Stroke-25" stroke="#FEFEFE" stroke-width="2.69200015" mask="url(#mask-2)"></path>
                    </g>
                    <g id="Group-38" transform="translate(23.054943, 54.567450)">
                        <mask id="mask-4" fill="white">
                            <use xlink:href="#path-3"></use>
                        </mask>
                        <g id="Clip-37"></g>
                        <path d="M-3.47094652,39.6021569 L49.7309962,39.6021569 L49.7309962,-3.31885875 L-3.47094652,-3.31885875 L-3.47094652,39.6021569 Z" id="Fill-36" fill="#412773" mask="url(#mask-4)"></path>
                    </g>
                    <mask id="mask-6" fill="white">
                        <use xlink:href="#path-5"></use>
                    </mask>
                    <use id="Clip-31" fill="#B088BC" xlink:href="#path-5"></use>
                    <mask id="mask-8" fill="white">
                        <use xlink:href="#path-7"></use>
                    </mask>
                    <use id="Clip-28" fill="#6381BF" xlink:href="#path-7"></use>
                    <mask id="mask-10" fill="white">
                        <use xlink:href="#path-9"></use>
                    </mask>
                    <use id="Clip-34" fill="#525FA8" xlink:href="#path-9"></use>
                    <mask id="mask-12" fill="white">
                        <use xlink:href="#path-11"></use>
                    </mask>
                    <use id="Clip-40" fill="#594393" xlink:href="#path-11"></use>
                    <mask id="mask-14" fill="white">
                        <use xlink:href="#path-13"></use>
                    </mask>
                    <use id="Clip-50" fill="#412773" xlink:href="#path-13"></use>
                    <mask id="mask-16" fill="white">
                        <use xlink:href="#path-15"></use>
                    </mask>
                    <use id="Clip-47" fill="#8F4D97" xlink:href="#path-15"></use>
                </g>
            </g>
        </g>
    </g>
</svg>