<?xml version="1.0" encoding="UTF-8" standalone="no"?>
<svg width="155px" height="186px" viewBox="0 0 155 186" version="1.1" xmlns="http://www.w3.org/2000/svg" xmlns:xlink="http://www.w3.org/1999/xlink">
    <!-- Generator: Sketch 3.6.1 (26313) - http://www.bohemiancoding.com/sketch -->
    <title>pattern</title>
    <desc>Created with Sketch.</desc>
    <defs></defs>
    <g id="Page-1" stroke="none" stroke-width="1" fill="none" fill-rule="evenodd">
        <g id="pattern">
            <rect id="Rectangle-80" fill="#222121" x="0" y="0" width="155" height="187"></rect>
            <path d="M25.3246753,77.3909532 L25.3246753,108.630697 L51.1164396,92.9946098 L25.3246753,77.3909532" id="Fill-12-Copy-38" fill="#292B2B"></path>
            <path d="M25.3246753,46.357566 L25.3246753,77.59731 L51.1164396,61.9612226 L25.3246753,46.357566" id="Fill-12-Copy-39" fill="#292B2B"></path>
            <path d="M25.3246753,15.3241788 L25.3246753,46.5639228 L51.1164396,30.9278354 L25.3246753,15.3241788" id="Fill-12-Copy-40" fill="#292B2B"></path>
            <path d="M25.3246753,15.9480231 L51.1746032,-0.691976052 L25.3246753,-0.691976306 L25.3246753,15.9480231 L25.3246753,15.9480231 Z" id="Fill-12-Copy-41" fill="#292B2B"></path>
            <path d="M25.3246753,139.457728 L25.3246753,170.697471 L51.1164396,155.061384 L25.3246753,139.457728" id="Fill-12-Copy-42" fill="#292B2B"></path>
            <path d="M25.3246753,186.094771 L51.1164396,186.094771 L25.3246753,170.491115 L25.3246753,186.094771 L25.3246753,186.094771 Z" id="Fill-12-Copy-43" fill="#292B2B"></path>
            <path d="M25.3246753,108.42434 L25.3246753,139.664084 L51.1164396,124.027996 L25.3246753,108.42434" id="Fill-12-Copy-44" fill="#292B2B"></path>
            <path d="M0,62 L0,93.2061348 L26.1056855,77.5868695 L0,62" id="Fill-12-Copy-29" fill="#292B2B"></path>
            <path d="M0,31 L0,62.2061348 L26.1056855,46.5868695 L0,31" id="Fill-12-Copy-30" fill="#292B2B"></path>
            <path d="M0,0 L0,31.2061348 L26.1056855,15.5868695 L0,0" id="Fill-12-Copy-33" fill="#292B2B"></path>
            <path d="M0,93 L0,124.206135 L26.1056855,108.58687 L0,93" id="Fill-12-Copy-34" fill="#292B2B"></path>
            <path d="M0,124 L0,155.206134 L26.1056855,139.586869 L0,124" id="Fill-12-Copy-45" fill="#292B2B"></path>
            <path d="M0,155 L0,186.206135 L26.1056855,170.58687 L0,155" id="Fill-12-Copy-46" fill="#292B2B"></path>
            <path d="M51,62 L51,93.2061348 L77.1056855,77.5868695 L51,62" id="Fill-12-Copy-47" fill="#292B2B"></path>
            <path d="M51,31 L51,62.2061348 L77.1056855,46.5868695 L51,31" id="Fill-12-Copy-48" fill="#292B2B"></path>
            <path d="M51,0 L51,31.5 L77.1056855,15.7336496 L51,0" id="Fill-12-Copy-49" fill="#292B2B"></path>
            <path d="M51,93 L51,124.206135 L77.1056855,108.58687 L51,93" id="Fill-12-Copy-50" fill="#292B2B"></path>
            <path d="M51,124 L51,155.206134 L77.1056855,139.586869 L51,124" id="Fill-12-Copy-51" fill="#292B2B"></path>
            <path d="M51,155 L51,186.206135 L77.1056855,170.58687 L51,155" id="Fill-12-Copy-52" fill="#292B2B"></path>
            <g id="Group" transform="translate(77.000000, -1.000000)" fill="#292B2B">
                <g transform="translate(26.000000, 0.000000)">
                    <path d="M0,62.6666761 L0,94.205674 L26.1056855,78.4198044 L0,62.6666761" id="Fill-12-Copy-47"></path>
                    <path d="M0,31.3360118 L0,62.8750097 L26.1056855,47.08914 L0,31.3360118" id="Fill-12-Copy-48"></path>
                    <path d="M0,0.00534744228 L0,31.5443453 L26.1056855,15.7584757 L0,0.00534744228" id="Fill-12-Copy-49"></path>
                    <path d="M0,93.9973404 L0,125.536338 L26.1056855,109.750469 L0,93.9973404" id="Fill-12-Copy-50"></path>
                    <path d="M0,125.328005 L0,156.867002 L26.1056855,141.081133 L0,125.328005" id="Fill-12-Copy-51"></path>
                    <path d="M0,156.658669 L0,188.197667 L26.1056855,172.411798 L0,156.658669" id="Fill-12-Copy-52"></path>
                </g>
                <path d="M0,78.4148936 L0,109.820806 L26.1056855,94.1015484 L0,78.4148936" id="Fill-12-Copy-38"></path>
                <path d="M0,47.25 L0,78.6559128 L26.1056855,62.9366548 L0,47.25" id="Fill-12-Copy-39"></path>
                <path d="M0,16.0851064 L0,47.4910192 L26.1056855,31.7717612 L0,16.0851064" id="Fill-12-Copy-40"></path>
                <path d="M0,16.72851 L26.1056855,2.54902215e-07 L0,0 L0,16.72851 L0,16.72851 Z" id="Fill-12-Copy-41"></path>
                <path d="M0,140.744681 L0,172.150593 L26.1056855,156.431335 L0,140.744681" id="Fill-12-Copy-42"></path>
                <path d="M0,187.596229 L26.1056855,187.596229 L0,171.909574 L0,187.596229 L0,187.596229 Z" id="Fill-12-Copy-43"></path>
                <path d="M0,109.579787 L0,140.985699 L26.1056855,125.266442 L0,109.579787" id="Fill-12-Copy-44"></path>
                <path d="M52,78.4148936 L52,109.820806 L78.1056855,94.1015484 L52,78.4148936" id="Fill-12-Copy-38"></path>
                <path d="M52,47.25 L52,78.6559128 L78.1056855,62.9366548 L52,47.25" id="Fill-12-Copy-39"></path>
                <path d="M52,16.0851064 L52,47.4910192 L78.1056855,31.7717612 L52,16.0851064" id="Fill-12-Copy-40"></path>
                <path d="M52,16.72851 L78.1056855,2.54902215e-07 L52,0 L52,16.72851 L52,16.72851 Z" id="Fill-12-Copy-41"></path>
                <path d="M52,140.744681 L52,172.150593 L78.1056855,156.431335 L52,140.744681" id="Fill-12-Copy-42"></path>
                <path d="M52,187.596229 L78.1056855,187.596229 L52,171.909574 L52,187.596229 L52,187.596229 Z" id="Fill-12-Copy-43"></path>
                <path d="M52,109.579787 L52,140.985699 L78.1056855,125.266442 L52,109.579787" id="Fill-12-Copy-44"></path>
            </g>
        </g>
    </g>
</svg>