<?xml version="1.0" encoding="utf-8"?>
<!-- Generator: Adobe Illustrator 16.0.4, SVG Export Plug-In . SVG Version: 6.00 Build 0)  -->
<!DOCTYPE svg PUBLIC "-//W3C//DTD SVG 1.1//EN" "http://www.w3.org/Graphics/SVG/1.1/DTD/svg11.dtd">
<svg version="1.1" id="Layer_1" xmlns="http://www.w3.org/2000/svg" xmlns:xlink="http://www.w3.org/1999/xlink" x="0px" y="0px"
	 width="155px" height="186px" viewBox="0 0 155 186" enable-background="new 0 0 155 186" xml:space="preserve">
<title>pattern</title>
<desc>Created with Sketch.</desc>
<g id="Page-1">
	<g id="pattern">
		<rect id="Rectangle-80" fill="#FFFFFF" width="155" height="187"/>
		<path id="Fill-12-Copy-38" fill="#F3F3F3" d="M25.325,77.391v31.24l25.792-15.636L25.325,77.391"/>
		<path id="Fill-12-Copy-39" fill="#F3F3F3" d="M25.325,46.357v31.24l25.792-15.636L25.325,46.357"/>
		<path id="Fill-12-Copy-40" fill="#F3F3F3" d="M25.325,15.324v31.24l25.792-15.636L25.325,15.324"/>
		<path id="Fill-12-Copy-41" fill="#F3F3F3" d="M25.325,15.948l25.85-16.64h-25.85V15.948L25.325,15.948z"/>
		<path id="Fill-12-Copy-42" fill="#F3F3F3" d="M25.325,139.457v31.24l25.792-15.636L25.325,139.457"/>
		<path id="Fill-12-Copy-43" fill="#F3F3F3" d="M25.325,186.095h25.792l-25.792-15.604V186.095L25.325,186.095z"/>
		<path id="Fill-12-Copy-44" fill="#F3F3F3" d="M25.325,108.424v31.24l25.792-15.637L25.325,108.424"/>
		<path id="Fill-12-Copy-29" fill="#F3F3F3" d="M0,62v31.206l26.105-15.619L0,62"/>
		<path id="Fill-12-Copy-30" fill="#F3F3F3" d="M0,31v31.206l26.105-15.619L0,31"/>
		<path id="Fill-12-Copy-33" fill="#F3F3F3" d="M0,0v31.206l26.105-15.619L0,0"/>
		<path id="Fill-12-Copy-34" fill="#F3F3F3" d="M0,93v31.206l26.105-15.619L0,93"/>
		<path id="Fill-12-Copy-45" fill="#F3F3F3" d="M0,124v31.206l26.105-15.619L0,124"/>
		<path id="Fill-12-Copy-46" fill="#F3F3F3" d="M0,155v31.206l26.105-15.619L0,155"/>
		<path id="Fill-12-Copy-47" fill="#F3F3F3" d="M51,62v31.206l26.105-15.619L51,62"/>
		<path id="Fill-12-Copy-48" fill="#F3F3F3" d="M51,31v31.206l26.105-15.619L51,31"/>
		<path id="Fill-12-Copy-49" fill="#F3F3F3" d="M51,0v31.5l26.105-15.766L51,0"/>
		<path id="Fill-12-Copy-50" fill="#F3F3F3" d="M51,93v31.206l26.105-15.619L51,93"/>
		<path id="Fill-12-Copy-51" fill="#F3F3F3" d="M51,124v31.206l26.105-15.619L51,124"/>
		<path id="Fill-12-Copy-52" fill="#F3F3F3" d="M51,155v31.206l26.105-15.619L51,155"/>
		<g id="Group" transform="translate(77.000000, -1.000000)">
			<g transform="translate(26.000000, 0.000000)">
				<path id="Fill-12-Copy-47_1_" fill="#F3F3F3" d="M0,62.667v31.539L26.105,78.42L0,62.667"/>
				<path id="Fill-12-Copy-48_1_" fill="#F3F3F3" d="M0,31.336v31.539l26.105-15.786L0,31.336"/>
				<path id="Fill-12-Copy-49_1_" fill="#F3F3F3" d="M0,0.005v31.539l26.105-15.786L0,0.005"/>
				<path id="Fill-12-Copy-50_1_" fill="#F3F3F3" d="M0,93.998v31.539l26.105-15.786L0,93.998"/>
				<path id="Fill-12-Copy-51_1_" fill="#F3F3F3" d="M0,125.328v31.539l26.105-15.786L0,125.328"/>
				<path id="Fill-12-Copy-52_1_" fill="#F3F3F3" d="M0,156.658v31.539l26.105-15.785L0,156.658"/>
			</g>
			<path id="Fill-12-Copy-38_1_" fill="#F3F3F3" d="M0,78.415v31.405l26.105-15.719L0,78.415"/>
			<path id="Fill-12-Copy-39_1_" fill="#F3F3F3" d="M0,47.25v31.406l26.105-15.719L0,47.25"/>
			<path id="Fill-12-Copy-40_1_" fill="#F3F3F3" d="M0,16.085v31.406l26.105-15.719L0,16.085"/>
			<path id="Fill-12-Copy-41_1_" fill="#F3F3F3" d="M0,16.729L26.105,0H0V16.729L0,16.729z"/>
			<path id="Fill-12-Copy-42_1_" fill="#F3F3F3" d="M0,140.744v31.406l26.105-15.719L0,140.744"/>
			<path id="Fill-12-Copy-43_1_" fill="#F3F3F3" d="M0,187.596h26.105L0,171.91V187.596L0,187.596z"/>
			<path id="Fill-12-Copy-44_1_" fill="#F3F3F3" d="M0,109.58v31.406l26.105-15.72L0,109.58"/>
			<path id="Fill-12-Copy-38_2_" fill="#F3F3F3" d="M52,78.415v31.405l26.105-15.719L52,78.415"/>
			<path id="Fill-12-Copy-39_2_" fill="#F3F3F3" d="M52,47.25v31.406l26.105-15.719L52,47.25"/>
			<path id="Fill-12-Copy-40_2_" fill="#F3F3F3" d="M52,16.085v31.406l26.105-15.719L52,16.085"/>
			<path id="Fill-12-Copy-41_2_" fill="#F3F3F3" d="M52,16.729L78.105,0H52V16.729L52,16.729z"/>
			<path id="Fill-12-Copy-42_2_" fill="#F3F3F3" d="M52,140.744v31.406l26.105-15.719L52,140.744"/>
			<path id="Fill-12-Copy-43_2_" fill="#F3F3F3" d="M52,187.596h26.105L52,171.91V187.596L52,187.596z"/>
			<path id="Fill-12-Copy-44_2_" fill="#F3F3F3" d="M52,109.58v31.406l26.105-15.72L52,109.58"/>
		</g>
	</g>
</g>
</svg>
