<?xml version="1.0" encoding="UTF-8" standalone="no"?>
<svg width="28px" height="28px" viewBox="0 0 28 28" version="1.1" xmlns="http://www.w3.org/2000/svg" xmlns:xlink="http://www.w3.org/1999/xlink">
    <defs>
        <path id="path-1" d="M0,0.111692308 L23.9030588,0.111692308 L23.9030588,30 L0,30"></path>
    </defs>
    <g id="Page-1" stroke="none" stroke-width="1" fill="none" fill-rule="evenodd">
        <g id="Home-Mobile" transform="translate(-26.000000, -177.000000)">
            <g id="search" transform="translate(39.000000, 192.000000) rotate(-11.000000) translate(-39.000000, -192.000000) translate(27.000000, 177.000000)">
                <g id="Group-3">
                    <mask id="mask-2"  fill="white">
                        <use xlink:href="#path-1"></use>
                    </mask>
                    <g id="Clip-2"></g>
                    <path d="M19.1439059,19.9438615 C18.0304941,20.9587846 16.7020235,21.7484769 15.2328471,22.2427846 L19.7170824,28.9863231 C20.4041412,30.0192462 21.8154353,30.3109385 22.8690824,29.6366308 C23.9236706,28.9627846 24.2201412,27.5786308 23.5330824,26.5447846 L19.1439059,19.9438615 Z" id="Fill-1" fill="#FFFFFF" mask="url(#mask-2)"></path>
                </g>
                <path d="M11.0404844,19.0376394 C6.18611717,19.0376394 2.25206488,15.2396379 2.25206488,10.5554961 C2.25206488,5.87045557 6.18611717,2.07245415 11.0404844,2.07245415 C15.894381,2.07245415 19.828904,5.87045557 19.828904,10.5554961 C19.828904,15.2396379 15.894381,19.0376394 11.0404844,19.0376394 M11,0 C4.92497967,0 0,4.70121756 0,10.5002247 C0,16.2987824 4.92497967,21 11,21 C17.0745496,21 22,16.2987824 22,10.5002247 C22,4.70121756 17.0745496,0 11,0" id="Fill-4" fill="#FFFFFF"></path>
            </g>
        </g>
    </g>
</svg>