<?xml version="1.0" encoding="UTF-8" standalone="no"?>
<svg width="258px" height="109px" viewBox="0 0 258 109" version="1.1" xmlns="http://www.w3.org/2000/svg" xmlns:xlink="http://www.w3.org/1999/xlink">
    <!-- Generator: Sketch 43.2 (39069) - http://www.bohemiancoding.com/sketch -->
    <title>logo-scottishfilm</title>
    <desc>Created with Sketch.</desc>
    <defs></defs>
    <g id="Page-1" stroke="none" stroke-width="1" fill="none" fill-rule="evenodd">
        <g id="Desktop-HD" transform="translate(-171.000000, -28.000000)">
            <g id="logo-scottishfilm" transform="translate(171.000000, 28.000000)">
                <g id="Group">
                    <g id="Logo">
                        <polyline id="Fill-2" fill="#65C3D5" points="65.8868724 60.3291287 33.2290795 79.7723267 41.1665312 93.3698625"></polyline>
                        <path d="M0.0794788833,88.9115352 C0.260112709,90.2469285 1.0717607,91.3266595 2.10177491,92.0727432 C2.82671867,92.6966235 3.93942303,93.0688614 5.07621191,93.0688614 C5.85735285,93.0688614 6.60397267,92.8919881 7.2333812,92.5551249 L7.24060655,92.5511051 L7.24542345,92.5591448 L64.9157829,58.2392955 L61.8674867,56.4954857 L26.3211583,77.7275158 L23.4992565,79.327415 L8.9048462,88.0400323 L6.25555009,89.6045569 L6.23387403,89.6166165 C5.96412751,89.760527 5.66066269,89.8369041 5.35639504,89.8369041 C4.67319777,89.8369041 4.04459206,89.4630583 3.71543709,88.864101 C3.56771876,88.5947712 3.48823988,88.2924787 3.48583143,87.9877743 L3.48422579,87.9580274 L3.48984551,85.3009083 L3.49787368,85.2920646 L3.48262016,25.9076628 L3.50590185,25.9197223 L3.49466241,20.4398663 L3.49546523,20.397256 C3.49787368,20.0965714 3.57735256,19.7950828 3.72426808,19.527361 C4.04940896,18.9308156 4.67480341,18.5609897 5.35478941,18.5609897 C5.65745142,18.5609897 5.9585078,18.6357588 6.18650782,18.7547463 L6.49478955,18.9597585 L6.51164871,18.946091 L8.83259267,20.317663 L23.6614255,29.4821111 L26.3436371,31.1013056 L86.3534053,68.0348597 L89.0444479,69.7280194 C89.2451521,69.8558506 89.4137437,70.0351358 89.5325606,70.2449718 C89.9187156,70.9323657 89.6746592,71.7363352 88.9505183,72.1552033 L28.1499754,107.989731 L29.2112995,108.339458 C29.4473277,108.417443 29.700215,108.483368 29.9603277,108.534018 C30.2822573,108.597532 30.6057926,108.634515 30.9221025,108.64577 C30.9975673,108.648986 31.0738349,108.651398 31.1484969,108.651398 C32.0861872,108.651398 32.9909619,108.440758 33.8355254,108.02993 C33.9021592,107.997771 33.9904691,107.965612 34.082793,107.931845 C34.2722579,107.862704 34.468948,107.790347 34.6014128,107.703518 L36.2006243,106.787797 L90.7841523,74.5952507 L90.8315185,74.5687197 C92.1971102,73.7776137 93.018392,72.0981214 92.8313357,70.5094777 C92.7349976,69.1395138 91.8639412,67.8475348 90.4429551,66.9631684 L90.2815889,66.8731238 L7.61712772,16.0638605 L7.50553616,16.0091905 L7.50393053,16.0091905 C7.41642347,15.9553246 7.32731079,15.9030666 7.23578965,15.8572403 L7.22455021,15.8516125 C5.61570494,14.9937771 3.52757791,15.2003972 2.14592985,16.3050513 C0.768295872,17.3059933 0.00802817003,18.8737338 0.00802817003,20.7196477 L0.0152535231,20.8675781 L0.0184647911,20.9093845 L2.84217094e-14,87.7538192 C2.84217094e-14,87.7538192 0.000802817003,88.3350891 0.0794788833,88.9115352" id="Fill-4" fill="#262927"></path>
                        <polyline id="Fill-6" fill="#262927" points="25.603304 74.7924166 28.4669522 73.1796538 28.428417 35.898785 25.5792195 33.9949852 25.603304 74.7924166"></polyline>
                        <path d="M92.6128846,39.1283907 C92.6016452,39.0206588 92.2989832,36.4527803 89.2563067,34.5256654 C85.907757,32.4064019 35.311821,1.23328919 34.8148773,0.927780782 C34.7586801,0.889994217 33.394694,0 31.5096797,0 C30.9067641,0 30.3118767,0.0932604599 29.740271,0.273349624 L28.6869751,0.608604898 L92.7196593,40.1558637 L92.6128846,39.1283907" id="Fill-7" fill="#262927"></path>
                        <polyline id="Fill-8" fill="#5CC1D4" points="5.027446 37.9910238 5.02022065 51.8611053 23.7651948 51.8611053 23.7804484 37.8254061"></polyline>
                        <polyline id="Fill-9" fill="#5CC1D4" points="5.05313614 87.1388153 23.790885 76.0359967 23.7692089 54.3440961 5.02022065 54.3440961 5.05313614 87.1388153"></polyline>
                        <polyline id="Fill-10" fill="#A2D9EA" points="5.02022065 58.3534919 5.02182628 54.3440961 9.89974239 54.3440961 5.02022065 58.3534919"></polyline>
                        <polyline id="Fill-11" fill="#262927" points="8.84515066 88.6098375 8.84515066 88.6098375 8.8467563 88.5784827 8.84515066 88.6098375"></polyline>
                        <polyline id="Fill-12" fill="#2D3030" points="34.185312 43.3316361 34.185312 65.7905236 53.0667651 54.5494223 34.185312 43.3316361"></polyline>
                        <polyline id="Fill-13" fill="#5CC1D4" points="78.1720072 56.6945926 92.8226147 66.1203308 92.816995 61.9581808 81.919557 50.5136752 78.1720072 56.6945926"></polyline>
                        <polyline id="Fill-14" fill="#5CC1D4" points="76.1743225 55.2778507 80.2373794 48.5212911 52.1789251 18.9127031 42.5523464 34.5386539 76.1743225 55.2778507"></polyline>
                        <polyline id="Fill-15" fill="#5CC1D4" points="40.2813413 33.2446564 50.2475115 17.0671825 48.1152296 14.8176759 26.7370156 1.43640783 7.41080191 12.5810328 40.2813413 33.2446564"></polyline>
                        <polyline id="Fill-16" fill="#30A2CF" points="50.4220234 17.0923875 50.4220234 17.0923875 48.2897415 14.8428809 50.8394883 16.4146412 50.4220234 17.0923875"></polyline>
                        <polyline id="Fill-17" fill="#97D5EA" points="88.5126 39.7406165 81.9969372 50.4896885 92.8943752 61.9341941 92.9056147 42.4202468 88.5126 39.7406165"></polyline>
                        <polyline id="Fill-18" fill="#97D5EA" points="80.1731257 48.553554 86.3106617 38.3439455 52.8717279 17.7156965 52.1146715 18.9449659 80.1731257 48.553554"></polyline>
                        <polyline id="Fill-19" fill="#97D5EA" points="48.2897415 14.8428809 50.4220234 17.0923875 50.8394883 16.4154452 48.2897415 14.8428809"></polyline>
                        <polyline id="Fill-20" fill="#65C3D5" points="26.4618307 106.904346 41.0522269 98.1410791 30.9977468 80.9176409 7.17174378 95.1535285 26.4618307 106.904346"></polyline>
                        <polyline id="Fill-21" fill="#5CC1D4" points="59.1637183 87.3836572 53.1530274 77.08722 41.1179977 93.2413788 43.2350261 96.8688891 59.1637183 87.3836572"></polyline>
                        <polyline id="Fill-22" fill="#5CC1D4" points="39.6232317 95.2817192 34.6634283 101.93939 41.2280629 98.0304908 39.6232317 95.2817192"></polyline>
                        <polyline id="Fill-23" fill="#65C3D5" points="5.02182628 54.3440961 5.02022065 58.3534919 9.89974239 54.3440961 5.02182628 54.3440961"></polyline>
                        <polyline id="Fill-24" fill="#35A9BE" points="86.0756386 71.410032 71.9564959 62.7231418 79.2532997 75.4837454 86.0756386 71.410032"></polyline>
                        <polyline id="Fill-25" fill="#35A9BE" points="77.1877628 76.5949617 67.1332826 59.3715235 65.8383388 60.1433342 65.1647754 60.9030854 41.1179977 93.184068 43.2350261 96.8115783 77.1877628 76.5949617"></polyline>
                        <polyline id="Fill-26" fill="#35A9BE" points="39.6232317 95.2817192 34.6634283 101.93939 41.2280629 98.0304908 39.6232317 95.2817192"></polyline>
                        <polyline id="Fill-27" fill="#35A9BE" points="5.02182628 54.3440961 5.02022065 58.3534919 9.89974239 54.3440961 5.02182628 54.3440961"></polyline>
                        <path d="M104.468401,32.8095236 L106.306852,30.271392 C107.560049,31.6381401 109.593585,32.8641935 112.183472,32.8641935 C114.857656,32.8641935 115.888473,31.5545273 115.888473,30.297923 C115.888473,26.3938472 105.081753,28.821031 105.081753,21.9856825 C105.081753,18.8904 107.755134,16.51869 111.849501,16.51869 C114.718769,16.51869 117.086276,17.467374 118.785037,19.1412385 L116.947389,21.5684223 C115.471008,20.0899224 113.49367,19.4194119 111.543627,19.4194119 C109.648979,19.4194119 108.42388,20.3680959 108.42388,21.735648 C108.42388,25.2224636 119.2306,23.0734532 119.2306,29.9924146 C119.2306,33.088501 117.030882,35.7665234 112.044585,35.7665234 C108.618162,35.7665234 106.139866,34.538862 104.468401,32.8095236" id="Fill-28" fill="#24A8BF"></path>
                        <path d="M121.441528,26.1430087 C121.441528,20.3970388 125.702881,16.51869 131.190135,16.51869 C134.922431,16.51869 137.262643,18.4441969 138.626629,20.6760162 L135.868952,22.1263771 C134.977825,20.5642644 133.167473,19.4194119 131.190135,19.4194119 C127.513233,19.4194119 124.783655,22.20999 124.783655,26.1430087 C124.783655,30.0197495 127.513233,32.8641935 131.190135,32.8641935 C133.167473,32.8641935 134.977825,31.69281 135.868952,30.1596402 L138.65553,31.5545273 C137.234544,33.7847386 134.922431,35.7665234 131.190135,35.7665234 C125.702881,35.7665234 121.441528,31.8608396 121.441528,26.1430087" id="Fill-29" fill="#24A8BF"></path>
                        <path d="M156.22111,26.1430087 C156.22111,22.2936028 153.798208,19.4194119 150.065109,19.4194119 C146.305517,19.4194119 143.909108,22.2936028 143.909108,26.1430087 C143.909108,29.9642756 146.305517,32.8641935 150.065109,32.8641935 C153.798208,32.8641935 156.22111,29.9642756 156.22111,26.1430087 L156.22111,26.1430087 Z M140.566178,26.1430087 C140.566178,20.5915994 144.494362,16.51869 150.065109,16.51869 C155.607757,16.51869 159.563237,20.5915994 159.563237,26.1430087 C159.563237,31.69281 155.607757,35.7665234 150.065109,35.7665234 C144.494362,35.7665234 140.566178,31.69281 140.566178,26.1430087 L140.566178,26.1430087 Z" id="Fill-30" fill="#24A8BF"></path>
                        <polyline id="Fill-31" fill="#24A8BF" points="166.274005 35.3627491 166.274005 19.6298703 160.647061 19.6298703 160.647061 16.7580913 175.159584 16.7580913 175.159584 19.6298703 169.531836 19.6298703 169.531836 35.3627491 166.274005 35.3627491"></polyline>
                        <polyline id="Fill-32" fill="#24A8BF" points="182.529155 35.3627491 182.529155 19.6298703 176.903013 19.6298703 176.903013 16.7580913 191.414733 16.7580913 191.414733 19.6298703 185.787789 19.6298703 185.787789 35.3627491 182.529155 35.3627491"></polyline>
                        <polygon id="Fill-33" fill="#24A8BF" points="194.115198 16.7580913 197.374635 16.7580913 197.374635 35.3627491 194.115198 35.3627491"></polygon>
                        <path d="M200.091651,32.8095236 L201.9293,30.271392 C203.182497,31.6381401 205.216032,32.8641935 207.806723,32.8641935 C210.480103,32.8641935 211.510921,31.5545273 211.510921,30.297923 C211.510921,26.3938472 200.704201,28.821031 200.704201,21.9856825 C200.704201,18.8904 203.377581,16.51869 207.472751,16.51869 C210.341216,16.51869 212.708723,17.467374 214.407484,19.1412385 L212.569836,21.5684223 C211.092653,20.0899224 209.116117,19.4194119 207.166075,19.4194119 C205.271427,19.4194119 204.046328,20.3680959 204.046328,21.735648 C204.046328,25.2224636 214.853851,23.0734532 214.853851,29.9924146 C214.853851,33.088501 212.653329,35.7665234 207.667033,35.7665234 C204.241413,35.7665234 201.761511,34.538862 200.091651,32.8095236" id="Fill-34" fill="#24A8BF"></path>
                        <polyline id="Fill-35" fill="#24A8BF" points="230.705701 35.3627491 230.705701 27.2177343 221.040587 27.2177343 221.040587 35.3627491 217.781953 35.3627491 217.781953 16.7580913 221.040587 16.7580913 221.040587 24.3451513 230.705701 24.3451513 230.705701 16.7580913 233.965138 16.7580913 233.965138 35.3627491 230.705701 35.3627491"></polyline>
                        <polyline id="Fill-36" fill="#007990" points="105.185575 62.8938991 105.185575 44.2892413 117.915042 44.2892413 117.915042 47.1626283 108.44421 47.1626283 108.44421 51.9599142 117.719957 51.9599142 117.719957 54.8324971 108.44421 54.8324971 108.44421 62.8938991 105.185575 62.8938991"></polyline>
                        <polygon id="Fill-37" fill="#007990" points="121.441528 44.2892413 124.700965 44.2892413 124.700965 62.8938991 121.441528 62.8938991"></polygon>
                        <polyline id="Fill-38" fill="#007990" points="128.374214 62.8938991 128.374214 44.2892413 131.632848 44.2892413 131.632848 60.0213162 139.822384 60.0213162 139.822384 62.8938991 128.374214 62.8938991"></polyline>
                        <polyline id="Fill-39" fill="#007990" points="158.761999 62.8938991 158.761999 48.5285724 153.07966 62.8938991 151.686773 62.8938991 145.976335 48.5285724 145.976335 62.8938991 142.717701 62.8938991 142.717701 44.2892413 147.313829 44.2892413 152.383618 57.0643164 157.424506 44.2892413 162.020633 44.2892413 162.020633 62.8938991 158.761999 62.8938991"></polyline>
                        <polyline id="Fill-40" fill="#2D3030" points="105.185575 90.1856478 105.185575 71.58099 117.915042 71.58099 117.915042 74.453573 108.44421 74.453573 108.44421 79.2516629 117.719957 79.2516629 117.719957 82.1258538 108.44421 82.1258538 108.44421 87.3130649 117.915042 87.3130649 117.915042 90.1856478 105.185575 90.1856478"></polyline>
                        <path d="M134.489091,80.8700534 C134.489091,77.299625 132.260471,74.453573 128.138006,74.453573 L124.461104,74.453573 L124.461104,87.3130649 L128.109907,87.3130649 C132.14888,87.3130649 134.489091,84.410735 134.489091,80.8700534 L134.489091,80.8700534 Z M121.20247,90.1856478 L121.20247,71.58099 L128.109907,71.58099 C133.931133,71.58099 137.831218,75.4311999 137.831218,80.8700534 C137.831218,86.3643809 133.931133,90.1856478 128.138006,90.1856478 L121.20247,90.1856478 L121.20247,90.1856478 Z" id="Fill-41" fill="#2D3030"></path>
                        <path d="M141.044294,82.8220913 L141.044294,71.58099 L144.358323,71.58099 L144.358323,82.7384785 C144.358323,85.6962822 146.001689,87.6193772 149.093338,87.6193772 C152.184986,87.6193772 153.829155,85.6962822 153.829155,82.7384785 L153.829155,71.58099 L157.143184,71.58099 L157.143184,82.8220913 C157.143184,87.4248166 154.497099,90.5209031 149.093338,90.5209031 C143.717675,90.5209031 141.044294,87.4248166 141.044294,82.8220913" id="Fill-42" fill="#2D3030"></path>
                        <path d="M160.408003,80.9651034 C160.408003,75.2191335 164.670158,71.3415887 170.157412,71.3415887 C173.889708,71.3415887 176.229117,73.2662917 177.593906,75.4989149 L174.837033,76.9484719 C173.945103,75.3855552 172.135553,74.2423106 170.157412,74.2423106 C166.479708,74.2423106 163.750933,77.0320847 163.750933,80.9651034 C163.750933,84.8426482 166.479708,87.6870923 170.157412,87.6870923 C172.135553,87.6870923 173.945103,86.5157087 174.837033,84.981735 L177.622005,86.376622 C176.201019,88.6084413 173.889708,90.5886181 170.157412,90.5886181 C164.670158,90.5886181 160.408003,86.6829344 160.408003,80.9651034" id="Fill-43" fill="#2D3030"></path>
                        <path d="M187.429446,74.8443022 L184.086516,83.7144975 L190.771573,83.7144975 L187.429446,74.8443022 L187.429446,74.8443022 Z M193.054785,90.1856478 L191.690799,86.5878844 L183.168093,86.5878844 L181.802502,90.1856478 L178.098304,90.1856478 L185.395108,71.58099 L189.462179,71.58099 L196.760588,90.1856478 L193.054785,90.1856478 L193.054785,90.1856478 Z" id="Fill-44" fill="#2D3030"></path>
                        <polyline id="Fill-45" fill="#2D3030" points="201.414747 90.1856478 201.414747 74.453573 195.788605 74.453573 195.788605 71.58099 210.300325 71.58099 210.300325 74.453573 204.673381 74.453573 204.673381 90.1856478 201.414747 90.1856478"></polyline>
                        <polygon id="Fill-46" fill="#2D3030" points="213.00079 71.58099 216.259424 71.58099 216.259424 90.1856478 213.00079 90.1856478"></polygon>
                        <path d="M235.110291,80.9651034 C235.110291,77.1156976 232.68739,74.2423106 228.95429,74.2423106 C225.193896,74.2423106 222.799092,77.1156976 222.799092,80.9651034 C222.799092,84.7863704 225.193896,87.6870923 228.95429,87.6870923 C232.68739,87.6870923 235.110291,84.7863704 235.110291,80.9651034 L235.110291,80.9651034 Z M219.45536,80.9651034 C219.45536,75.4144981 223.383543,71.3415887 228.95429,71.3415887 C234.497742,71.3415887 238.452418,75.4144981 238.452418,80.9651034 C238.452418,86.5157087 234.497742,90.5886181 228.95429,90.5886181 C223.383543,90.5886181 219.45536,86.5157087 219.45536,80.9651034 L219.45536,80.9651034 Z" id="Fill-47" fill="#2D3030"></path>
                        <polyline id="Fill-48" fill="#2D3030" points="254.401357 90.1856478 244.708144 76.8807569 244.708144 90.1856478 241.448707 90.1856478 241.448707 71.58099 244.791637 71.58099 254.290568 84.4678169 254.290568 71.58099 257.549202 71.58099 257.549202 90.1856478 254.401357 90.1856478"></polyline>
                        <polyline id="Fill-49" fill="#35A9BE" points="23.7804484 33.1409653 5.03146008 21.5461174 5.02022065 52.0125409 12.3828554 52.0125409 23.7716174 42.9284897 23.7804484 33.1409653"></polyline>
                    </g>
                </g>
            </g>
        </g>
    </g>
</svg>