<?xml version="1.0" encoding="UTF-8" standalone="no"?>
<svg width="304px" height="92px" viewBox="0 0 304 92" version="1.1" xmlns="http://www.w3.org/2000/svg" xmlns:xlink="http://www.w3.org/1999/xlink">
    <!-- Generator: Sketch 3.6.1 (26313) - http://www.bohemiancoding.com/sketch -->
    <title>ss-logo</title>
    <desc>Created with Sketch.</desc>
    <defs></defs>
    <g id="Page-1" stroke="none" stroke-width="1" fill="none" fill-rule="evenodd">
        <g id="ss-logo">
            <g>
                <path d="M40.4785776,59.0890855 L63.2732487,45.9280405 L40.4785776,32.7683723 L40.4785776,59.0890855" id="Fill-57-Copy" fill="#FFFFFF"></path>
                <path d="M90.9728495,42.1260539 C88.9913993,18.801594 68.2412317,3.08296626 45.559479,0.42418005 C39.5853478,-0.276010848 33.801674,1.60640148 28.5381223,3.73259935 L28.5381223,14.0470831 L83.9093016,46.1034984 L90.9728495,42.1260539" id="Fill-63-Copy" fill="#00A3DB"></path>
                <path d="M28.6716374,14.0904001 L19.5529428,8.81166315 C7.90502562,17.0209665 0.275364473,30.5647681 0.275364473,45.8653951 C0.275364473,60.8755125 7.61589292,74.1983342 18.8920681,82.4496306 L28.6716374,76.9430296 L28.6716374,14.0904001" id="Fill-61-Copy" fill="#C8412A"></path>
                <path d="M28.6379052,87.8353504 C33.8930528,89.9581535 39.6266953,91.1384873 45.6320843,91.1384873 C69.3279595,91.1384873 88.8432265,72.9363157 90.9515087,49.7804761 L83.9206745,45.7105026 L28.6379052,76.8368798 L28.6379052,87.8353504" id="Fill-59-Copy" fill="#83BF52"></path>
                <path d="M90.769422,41.8554 L83.5151147,45.9402599 L90.7473724,50.1268324 C90.8768247,48.7163715 90.9515087,47.291685 90.9515087,45.8485053 C90.9515087,44.5020592 90.8803811,43.173395 90.769422,41.8554" id="Fill-58-Copy" fill="#00A480"></path>
                <path d="M28.6695721,3.85510263 C25.4278439,5.16583752 22.3719866,6.84005352 19.5508776,8.82887343 L28.6695721,14.1076104 L28.6695721,3.85510263" id="Fill-62-Copy" fill="#0075B1"></path>
                <path d="M19.0680428,82.2152091 C22.0058276,84.3648241 25.2171139,86.1587523 28.6379052,87.5417544 L28.6379052,76.8266881 L19.0680428,82.2152091" id="Fill-60-Copy" fill="#67A039"></path>
                <path d="M109.59506,36.4968073 L111.945296,33.2557675 C113.548606,35.0015782 116.148046,36.5684021 119.461369,36.5684021 C122.880708,36.5684021 124.199015,34.8941861 124.199015,33.2908764 C124.199015,28.3047142 110.379161,31.403253 110.379161,22.6769528 C110.379161,18.7234074 113.797811,15.695775 119.033866,15.695775 C122.701721,15.695775 125.729353,16.9073787 127.902667,19.044207 L125.552432,22.1434341 C123.66412,20.2544338 121.134897,19.4001156 118.641472,19.4001156 C116.22033,19.4001156 114.652817,20.6117192 114.652817,22.3561532 C114.652817,26.8087967 128.472672,24.0661666 128.472672,32.8998589 C128.472672,36.8534043 125.658447,40.2727426 119.282383,40.2727426 C114.902022,40.2727426 111.731889,38.7052304 109.59506,36.4968073" id="Fill-64-Copy" fill="#FBD3C8"></path>
                <path d="M131.348854,27.9839146 C131.348854,20.6468282 136.798317,15.695775 143.815292,15.695775 C148.588735,15.695775 151.581258,18.1540913 153.325692,21.0034252 L149.79965,22.8552513 C148.659641,20.8609241 146.344515,19.4001156 143.815292,19.4001156 C139.112755,19.4001156 135.623887,22.9626434 135.623887,27.9839146 C135.623887,32.9349678 139.112755,36.5684021 143.815292,36.5684021 C146.344515,36.5684021 148.659641,35.0717962 149.79965,33.1132663 L153.36149,34.8941861 C151.544773,37.74352 148.588735,40.2727426 143.815292,40.2727426 C136.798317,40.2727426 131.348854,35.285892 131.348854,27.9839146" id="Fill-65-Copy" fill="#FBD3C8"></path>
                <path d="M170.645429,23.6551851 C170.645429,21.3758557 168.935416,19.9150471 166.584492,19.9150471 L160.849338,19.9150471 L160.849338,27.4669178 L166.584492,27.4669178 C168.935416,27.4669178 170.645429,25.9710003 170.645429,23.6551851 L170.645429,23.6551851 Z M170.253035,40.0042623 L165.016291,31.135461 L160.849338,31.135461 L160.849338,40.0042623 L156.682385,40.0042623 L156.682385,16.2465039 L167.118699,16.2465039 C171.820547,16.2465039 174.918398,19.2741363 174.918398,23.6909825 C174.918398,27.8937327 172.140658,30.2088596 169.256216,30.6721603 L175.098073,40.0042623 L170.253035,40.0042623 L170.253035,40.0042623 Z" id="Fill-66-Copy" fill="#FBD3C8"></path>
                <path d="M178.986908,40.0042623 L178.986908,16.2465039 L195.265079,16.2465039 L195.265079,19.9150471 L183.153861,19.9150471 L183.153861,26.0419067 L195.015874,26.0419067 L195.015874,29.7104499 L183.153861,29.7104499 L183.153861,36.3357191 L195.265079,36.3357191 L195.265079,40.0042623 L178.986908,40.0042623" id="Fill-67-Copy" fill="#FBD3C8"></path>
                <path d="M199.639243,40.0042623 L199.639243,16.2465039 L215.917414,16.2465039 L215.917414,19.9150471 L203.806885,19.9150471 L203.806885,26.0419067 L215.667521,26.0419067 L215.667521,29.7104499 L203.806885,29.7104499 L203.806885,36.3357191 L215.917414,36.3357191 L215.917414,40.0042623 L199.639243,40.0042623" id="Fill-68-Copy" fill="#FBD3C8"></path>
                <path d="M236.853375,40.0042623 L224.45922,23.0142743 L224.45922,40.0042623 L220.291579,40.0042623 L220.291579,16.2465039 L224.567301,16.2465039 L236.712251,32.7022849 L236.712251,16.2465039 L240.879204,16.2465039 L240.879204,40.0042623 L236.853375,40.0042623" id="Fill-69-Copy" fill="#FBD3C8"></path>
                <path d="M245.900475,16.2465039 L250.067428,16.2465039 L250.067428,40.0042623 L245.900475,40.0042623 L245.900475,16.2465039 Z" id="Fill-70-Copy" fill="#FBD3C8"></path>
                <path d="M271.550675,40.0042623 L259.155144,23.0142743 L259.155144,40.0042623 L254.987502,40.0042623 L254.987502,16.2465039 L259.263224,16.2465039 L271.409551,32.7022849 L271.409551,16.2465039 L275.575816,16.2465039 L275.575816,40.0042623 L271.550675,40.0042623" id="Fill-71-Copy" fill="#FBD3C8"></path>
                <path d="M279.770305,27.9839146 C279.770305,20.5043271 285.328537,15.695775 292.240185,15.695775 C296.866308,15.695775 299.895317,17.9041981 301.781564,20.6117192 L298.401465,22.5702491 C297.114136,20.7893293 294.869916,19.4001156 292.240185,19.4001156 C287.538337,19.4001156 284.048092,22.9626434 284.048092,27.9839146 C284.048092,32.9349678 287.538337,36.5684021 292.240185,36.5684021 C294.656508,36.5684021 296.797467,35.4635021 297.864505,34.4308853 L297.864505,30.7623421 L290.739449,30.7623421 L290.739449,27.0937989 L301.994972,27.0937989 L301.994972,35.9626002 C299.68191,38.5627293 296.336232,40.30854 292.240185,40.30854 C285.328537,40.30854 279.770305,35.4290816 279.770305,27.9839146" id="Fill-72-Copy" fill="#FBD3C8"></path>
                <path d="M109.59506,72.0188244 L111.945296,68.7777845 C113.548606,70.5235953 116.148046,72.0904191 119.461369,72.0904191 C122.880708,72.0904191 124.199015,70.4162031 124.199015,68.8128935 C124.199015,63.8267313 110.379161,66.92527 110.379161,58.1996583 C110.379161,54.2461128 113.797811,51.217792 119.033866,51.217792 C122.701721,51.217792 125.729353,52.4287073 127.902667,54.566224 L125.552432,57.6647628 C123.66412,55.7771393 121.134897,54.9221326 118.641472,54.9221326 C116.22033,54.9221326 114.652817,56.1337363 114.652817,57.8781702 C114.652817,62.3308138 128.472672,59.5881836 128.472672,68.4218759 C128.472672,72.374733 125.658447,75.7947597 119.282383,75.7947597 C114.902022,75.7947597 111.731889,74.2272474 109.59506,72.0188244" id="Fill-73-Copy" fill="#FFFFFF"></path>
                <path d="M148.977687,75.5262793 L148.977687,65.1250748 L136.617265,65.1250748 L136.617265,75.5262793 L132.450312,75.5262793 L132.450312,51.768521 L136.617265,51.768521 L136.617265,61.4565316 L148.977687,61.4565316 L148.977687,51.768521 L153.143952,51.768521 L153.143952,75.5262793 L148.977687,75.5262793" id="Fill-74-Copy" fill="#FFFFFF"></path>
                <path d="M177.250735,63.5059317 C177.250735,58.5913642 174.150819,54.9221326 169.379441,54.9221326 C164.570201,54.9221326 161.506771,58.5913642 161.506771,63.5059317 C161.506771,68.3860786 164.570201,72.0904191 169.379441,72.0904191 C174.150819,72.0904191 177.250735,68.3860786 177.250735,63.5059317 L177.250735,63.5059317 Z M157.233114,63.5059317 C157.233114,56.4180501 162.255074,51.217792 169.379441,51.217792 C176.466634,51.217792 181.524391,56.4180501 181.524391,63.5059317 C181.524391,70.5945016 176.466634,75.7947597 169.379441,75.7947597 C162.255074,75.7947597 157.233114,70.5945016 157.233114,63.5059317 L157.233114,63.5059317 Z" id="Fill-75-Copy" fill="#FFFFFF"></path>
                <path d="M199.282646,59.1772022 C199.282646,56.8978727 197.572633,55.4377526 195.222397,55.4377526 L189.487932,55.4377526 L189.487932,62.9889349 L195.222397,62.9889349 C197.572633,62.9889349 199.282646,61.492329 199.282646,59.1772022 L199.282646,59.1772022 Z M198.89094,75.5262793 L193.654196,66.6574781 L189.487932,66.6574781 L189.487932,75.5262793 L185.320291,75.5262793 L185.320291,51.768521 L195.755227,51.768521 C200.457076,51.768521 203.556303,54.7961534 203.556303,59.2129995 C203.556303,63.4157498 200.778564,65.731565 197.892744,66.1941773 L203.733913,75.5262793 L198.89094,75.5262793 L198.89094,75.5262793 Z" id="Fill-76-Copy" fill="#FFFFFF"></path>
                <path d="M213.1679,75.5262793 L213.1679,55.4377526 L205.972626,55.4377526 L205.972626,51.768521 L224.530126,51.768521 L224.530126,55.4377526 L217.335541,55.4377526 L217.335541,75.5262793 L213.1679,75.5262793" id="Fill-77-Copy" fill="#FFFFFF"></path>
                <path d="M226.349597,72.0188244 L228.699833,68.7777845 C230.303831,70.5235953 232.903272,72.0904191 236.215906,72.0904191 C239.634556,72.0904191 240.95424,70.4162031 240.95424,68.8128935 C240.95424,63.8267313 227.133697,66.92527 227.133697,58.1996583 C227.133697,54.2461128 230.553036,51.217792 235.788403,51.217792 C239.456258,51.217792 242.484578,52.4287073 244.657204,54.566224 L242.306968,57.6647628 C240.419345,55.7771393 237.890122,54.9221326 235.396697,54.9221326 C232.975555,54.9221326 231.408042,56.1337363 231.408042,57.8781702 C231.408042,62.3308138 245.227897,59.5881836 245.227897,68.4218759 C245.227897,72.374733 242.413672,75.7947597 236.037608,75.7947597 C231.657247,75.7947597 228.487114,74.2272474 226.349597,72.0188244" id="Fill-78-Copy" fill="#FFFFFF"></path>
                <path d="M89.4197939,52.5946144 C86.3990456,75.4526194 66.096423,92.7448199 43.7223711,90.9198418 C39.4969032,90.5756362 34.3138554,89.0053703 30.5654565,87.481228 L89.4197939,52.5946144" id="Fill-79-Copy" fill="#5AA741"></path>
                <path d="M32.4930079,3.82227381 C52.1223643,-4.12818694 75.1428343,4.25115398 83.8305835,22.9532206 C85.4703789,26.4854584 86.5663295,31.3380688 87.0489057,35.0245107 L32.4930079,3.82227381" id="Fill-81-Copy" fill="#008FBC"></path>
                <path d="M19.3488842,81.8748073 C0.029312787,66.7132394 -4.81159466,39.9127036 8.99104957,20.3872972 C11.5973743,16.6994785 15.8462481,12.7989407 19.2772895,10.1884855 L19.3488842,81.8748073" id="Fill-80-Copy" fill="#8A2C1E"></path>
                <path d="M45.7524957,3.84339964 C22.6439091,3.84339964 3.84271123,22.6445975 3.84271123,45.7538725 C3.84271123,68.8631475 22.6439091,87.6643453 45.7524957,87.6643453 C68.8624591,87.6643453 87.6643453,68.8631475 87.6643453,45.7538725 C87.6643453,22.6445975 68.8624591,3.84339964 45.7524957,3.84339964 L45.7524957,3.84339964 Z M45.7524957,91.507745 C20.524291,91.507745 0,70.9827655 0,45.7538725 C0,20.5249794 20.524291,0 45.7524957,0 C70.9813887,0 91.5070566,20.5249794 91.5070566,45.7538725 C91.5070566,70.9827655 70.9813887,91.507745 45.7524957,91.507745 L45.7524957,91.507745 Z" id="Fill-82-Copy" fill="#FFFFFF"></path>
            </g>
        </g>
    </g>
</svg>